<svg width="1505" height="1807" viewBox="0 0 1505 1807" fill="none" xmlns="http://www.w3.org/2000/svg">
	<path d="M888.555 811.465C801.491 860.334 754.553 1028.56 789.519 1114.56C828.151 1209.53 1069.71 1195.1 1097.43 1171.94C1125.15 1148.79 898.545 1074.68 929.467 987.299C963.809 890.305 1136.25 890.172 1131.56 848.756C1126.94 808.004 989.192 754.983 888.555 811.465Z" stroke="#7266FF" stroke-width="0.5" stroke-miterlimit="10" />
	<path d="M861.299 799.514C759.25 842.102 714.972 1045.72 759.956 1141.65C810.94 1250.31 1073.38 1210.03 1112.34 1192.84C1145.92 1178.04 927.92 1078.38 953.982 972.793C982.27 858.072 1137.8 839.44 1126.18 812.822C1113.69 784.289 981.049 749.659 861.299 799.514Z" stroke="#7266FF" stroke-width="0.5" stroke-miterlimit="10" />
	<path d="M834.044 787.591C717.173 823.764 675.474 1062.87 730.394 1168.72C793.838 1291.16 1074.95 1224.62 1127.24 1213.76C1165.25 1205.78 957.486 1082.22 978.471 958.235C1000.87 825.999 1142.85 787.218 1120.81 777.077C1104.36 759.11 973.34 744.444 834.044 787.591Z" stroke="#7266FF" stroke-width="0.5" stroke-miterlimit="10" />
	<path d="M806.785 775.56C675.173 805.584 636.052 1079.9 700.909 1195.74C776.923 1331.7 1080.25 1258.43 1142.22 1234.6C1181.05 1219.67 987.237 1086 1003.04 943.702C1019.68 793.952 1146.22 735.714 1115.51 741.223C1093.06 734.649 965.6 739.387 806.785 775.56Z" stroke="#7266FF" stroke-width="0.5" stroke-miterlimit="10" />
	<path d="M779.528 763.688C633.228 787.644 596.687 1097.04 671.262 1222.92C759.873 1372.51 1078.48 1274.5 1157.05 1255.58C1201.13 1244.93 1016.91 1089.96 1027.47 929.275C1038.33 762.011 1152.35 691.023 1110.05 705.476C1082.96 714.712 957.917 734.462 779.528 763.688Z" stroke="#7266FF" stroke-width="0.5" stroke-miterlimit="10" />
	<path d="M752.303 751.737C591.289 769.756 557.354 1114.13 641.702 1249.99C742.991 1413.18 1077.21 1262.07 1171.98 1276.6C1221.09 1284.08 1046.78 1093.96 1051.99 914.848C1057.42 730.123 1156.51 638.267 1104.68 669.782C1072.43 689.266 950.265 729.617 752.303 751.737Z" stroke="#7266FF" stroke-width="0.5" stroke-miterlimit="10" />
	<path d="M725.047 739.812C549.346 751.896 518.045 1131.09 612.112 1277.08C726.133 1453.82 1078.38 1273.04 1186.86 1297.39C1239.93 1309.32 1076.61 1097.76 1076.45 900.235C1076.29 697.943 1159.79 585.618 1099.28 633.848C1061.33 664.112 942.61 724.827 725.047 739.812Z" stroke="#7266FF" stroke-width="0.5" stroke-miterlimit="10" />
	<path d="M697.786 727.861C507.398 734.089 478.811 1148.2 582.543 1304.18C709.215 1494.47 1079.84 1283.6 1201.76 1318.31C1258.93 1334.58 1106.52 1101.6 1100.96 885.728C1095.29 665.975 1162.86 533.394 1093.9 598.048C1050.03 639.145 934.895 720.115 697.786 727.861Z" stroke="#7266FF" stroke-width="0.5" stroke-miterlimit="10" />
	<path d="M670.531 715.909C465.456 716.308 439.448 1165.24 552.981 1331.28C692.358 1535.11 1081.55 1294.01 1216.66 1339.26C1278.07 1359.84 1136.47 1105.51 1125.45 871.248C1114.29 633.981 1165.87 481.41 1088.53 562.247C1038.63 614.337 927.268 715.43 670.531 715.909Z" stroke="#7266FF" stroke-width="0.5" stroke-miterlimit="10" />
	<path d="M643.275 703.985C423.377 698.662 400.166 1182.25 523.417 1358.35C675.445 1575.7 1083.48 1304.13 1231.57 1360.13C1297.32 1384.99 1166.41 1109.34 1149.94 856.716C1133.32 601.934 1168.94 429.48 1083.12 526.394C1027.2 589.61 919.586 710.799 643.275 703.985Z" stroke="#7266FF" stroke-width="0.5" stroke-miterlimit="10" />
	<path d="M616.018 692.034C381.514 680.828 360.828 1199.25 493.852 1385.44C658.694 1616.32 1085.68 1314.21 1246.47 1381.05C1316.65 1410.17 1196.41 1113.2 1174.45 842.209C1152.38 569.887 1171.9 377.683 1077.75 490.593C1015.74 564.936 911.875 706.194 616.018 692.034Z" stroke="#7266FF" stroke-width="0.5" stroke-miterlimit="10" />
	<path d="M588.76 680.082C339.542 663.1 321.652 1216.26 464.287 1412.54C641.888 1656.91 1087.76 1324.22 1261.38 1401.89C1336.01 1435.32 1226.38 1117.09 1198.94 827.622C1171.43 537.785 1174.91 325.858 1072.37 454.712C1004.31 540.287 904.164 701.588 588.76 680.082Z" stroke="#7266FF" stroke-width="0.5" stroke-miterlimit="10" />
	<path d="M561.506 668.158C297.548 645.4 282.399 1233.38 434.726 1439.61C625.087 1697.5 1090.08 1334.2 1276.31 1422.87C1355.47 1460.56 1256.41 1120.89 1223.45 813.169C1190.5 505.446 1177.93 274.194 1067 418.886C992.859 515.667 896.457 697.037 561.506 668.158Z" stroke="#7266FF" stroke-width="0.5" stroke-miterlimit="10" />
	<path d="M534.25 656.206C255.55 627.699 243.144 1250.25 405.135 1466.7C608.283 1738.2 1092.49 1344.27 1291.19 1443.79C1374.94 1485.76 1286.41 1124.73 1247.94 798.662C1209.58 473.744 1180.97 222.529 1061.6 383.138C981.403 491.072 888.747 692.459 534.25 656.206Z" stroke="#7266FF" stroke-width="0.5" stroke-miterlimit="10" />
	<path d="M506.99 644.256C213.549 609.999 204.319 1266.94 375.649 1493.8C592.099 1778.29 1095.07 1354.06 1306.17 1464.68C1394.51 1510.97 1316.51 1128.56 1272.51 784.156C1228.74 441.697 1184.09 170.839 1056.3 347.312C969.943 466.478 880.98 687.935 506.99 644.256Z" stroke="#7266FF" stroke-width="0.5" stroke-miterlimit="10" />
	<path d="M479.737 632.331C171.555 592.325 165.039 1283.95 346.007 1520.85C575.162 1818.96 1097.49 1363.8 1321 1485.55C1413.98 1536.12 1346.46 1132.34 1296.92 769.543C1247.78 409.517 1187.05 119.095 1050.85 311.379C958.49 441.884 873.246 683.383 479.737 632.331Z" stroke="#7266FF" stroke-width="0.5" stroke-miterlimit="10" />
	<path d="M452.479 620.379C129.42 574.65 125.728 1300.99 316.441 1547.97C558.302 1859.39 1100.04 1373.86 1335.9 1506.5C1433.63 1561.41 1377.14 1136.14 1321.4 755.116C1267.51 377.469 1190.09 67.536 1045.47 275.684C947.032 417.315 865.48 678.857 452.479 620.379Z" stroke="#7266FF" stroke-width="0.5" stroke-miterlimit="10" />
	<path d="M425.226 608.43C87.4255 557.564 86.4211 1318.02 286.881 1575.07C541.447 1900.17 1102.65 1383.77 1350.83 1527.42C1453.1 1586.62 1407.03 1139.98 1345.92 740.611C1286.49 345.423 1193.13 15.9268 1040.07 239.859C935.579 392.749 857.611 675.079 425.226 608.43Z" stroke="#7266FF" stroke-width="0.5" stroke-miterlimit="10" />
	<path d="M397.964 596.504C45.4218 539.755 47.1592 1335.03 257.311 1602.16C524.555 1940.79 1105.27 1393.64 1365.73 1548.34C1472.67 1611.85 1436.94 1143.76 1370.4 726.104C1305.46 313.375 1196.19 -35.7121 1034.69 204.057C924.036 368.313 849.868 670.394 397.964 596.504Z" stroke="#7266FF" stroke-width="0.5" stroke-miterlimit="10" />
	<path d="M370.71 584.553C3.42681 521.949 7.82475 1352.07 227.75 1629.23C507.699 1981.33 1107.97 1403.54 1380.64 1569.24C1492.27 1637.08 1467 1147.67 1394.89 711.678C1324.31 281.408 1198.8 -87.5356 1029.32 168.311C912.338 343.426 842.133 665.683 370.71 584.553Z" stroke="#7266FF" stroke-width="0.5" stroke-miterlimit="10" />
	<path d="M343.456 572.601C-38.5687 504.062 -31.5646 1369.13 198.188 1656.33C490.842 2022.02 1110.66 1413.44 1395.54 1590.05C1511.9 1662.24 1496.78 1151.4 1419.41 696.984C1343.42 249.253 1202.09 -139.067 1023.94 132.403C901.046 318.991 834.453 661.104 343.456 572.601Z" stroke="#7266FF" stroke-width="0.5" stroke-miterlimit="10" />
	<path d="M1018.54 96.6028C889.75 294.53 826.632 656.286 316.197 560.677C-80.596 486.334 -70.7956 1386.11 168.594 1683.42C473.981 2062.67 1113.34 1423.35 1410.45 1611.05C1650.71 1762.88 1395.16 -482.245 1018.54 96.6028Z" stroke="#7266FF" stroke-width="0.5" stroke-miterlimit="10" />
</svg>
