<svg width="557" height="548" viewBox="0 0 557 548" fill="none" xmlns="http://www.w3.org/2000/svg">
<path d="M25.5085 405.132H179.24L184.184 307.584H20.5645L25.5085 405.132Z" fill="#EBEBEB"/>
<path d="M167.972 352.2H32.6002L30.7402 318.336H170.144L167.972 352.2ZM33.7282 351H166.844L168.872 319.536H31.9882L33.7282 351Z" fill="#DBDBDB"/>
<path d="M166.136 391.2H36.536L35 360.6H168.044L166.136 391.2ZM37.616 390H165.008L166.772 361.8H36.2L37.616 390Z" fill="#DBDBDB"/>
<path d="M115.845 338.999H87.1527L86.0967 330.827H116.901L115.845 338.999ZM88.2447 337.799H114.801L115.545 332.027H87.4647L88.2447 337.799Z" fill="#DBDBDB"/>
<path d="M115.845 379.991H87.1527L86.0967 371.831H116.901L115.845 379.991ZM88.2447 378.791H114.801L115.545 373.031H87.4647L88.2447 378.791Z" fill="#DBDBDB"/>
<path d="M46.8328 405.132L45.3448 415.752L42.3328 437.112H36.4648V405.132H46.8328Z" fill="#EBEBEB"/>
<path d="M46.8328 405.132L45.3448 415.752H36.4648V405.132H46.8328Z" fill="#DBDBDB"/>
<path d="M157.929 405.132L159.417 415.752L162.417 437.112H168.285V405.132H157.929Z" fill="#EBEBEB"/>
<path d="M157.929 405.132L159.417 415.752H168.285V405.132H157.929Z" fill="#DBDBDB"/>
<path d="M321.009 23.6035H264.345V101.508H321.009V23.6035Z" fill="#EBEBEB"/>
<path d="M384.057 23.6035H327.393V101.508H384.057V23.6035Z" fill="#EBEBEB"/>
<path d="M321.009 107.892H264.345V185.796H321.009V107.892Z" fill="#EBEBEB"/>
<path d="M384.057 107.892H327.393V185.796H384.057V107.892Z" fill="#EBEBEB"/>
<path d="M451.101 23.6035H394.437V101.508H451.101V23.6035Z" fill="#EBEBEB"/>
<path d="M514.148 23.6035H457.484V101.508H514.148V23.6035Z" fill="#EBEBEB"/>
<path d="M451.101 107.892H394.437V185.796H451.101V107.892Z" fill="#EBEBEB"/>
<path d="M514.148 107.892H457.484V185.796H514.148V107.892Z" fill="#EBEBEB"/>
<path d="M462.944 522.695C493.655 522.695 518.552 516.839 518.552 509.615C518.552 502.391 493.655 496.535 462.944 496.535C432.232 496.535 407.336 502.391 407.336 509.615C407.336 516.839 432.232 522.695 462.944 522.695Z" fill="#EBEBEB"/>
<path d="M280.976 499.812C387.505 499.812 473.864 488.954 473.864 475.56C473.864 462.166 387.505 451.308 280.976 451.308C174.447 451.308 88.0879 462.166 88.0879 475.56C88.0879 488.954 174.447 499.812 280.976 499.812Z" fill="#EBEBEB"/>
<path d="M256.04 531.012C362.569 531.012 448.928 520.154 448.928 506.76C448.928 493.366 362.569 482.508 256.04 482.508C149.511 482.508 63.1523 493.366 63.1523 506.76C63.1523 520.154 149.511 531.012 256.04 531.012Z" fill="#EBEBEB"/>
<path d="M13.9277 437.112L74.6957 436.812L135.464 436.716L257 436.512L378.536 436.716L439.304 436.812L500.072 437.112L439.304 437.4L378.536 437.508L257 437.712L135.464 437.508L74.6957 437.4L13.9277 437.112Z" fill="#263238"/>
<path d="M376.652 338.664C382.832 341.748 388.94 344.952 395.036 348.168C401.132 351.384 407.192 354.684 413.276 357.948C419.36 361.212 425.372 364.584 431.384 367.968L440.384 373.068C443.36 374.808 446.384 376.512 449.324 378.288C446.228 376.752 443.18 375.156 440.096 373.584L430.94 368.784C424.832 365.568 418.784 362.256 412.7 359.004C406.616 355.752 400.616 352.356 394.604 348.972C388.592 345.588 382.592 342.18 376.652 338.664Z" fill="#A6A6A6"/>
<path d="M444.2 338.664C438.692 341.832 433.112 344.892 427.532 347.94C421.952 350.988 416.324 353.94 410.732 356.928C405.14 359.916 399.464 362.796 393.788 365.676L385.269 369.96C382.413 371.34 379.568 372.768 376.688 374.124C379.436 372.528 382.232 371.004 384.992 369.432L393.392 364.848C398.984 361.812 404.612 358.848 410.192 355.86C415.772 352.872 421.472 349.992 427.136 347.124C432.8 344.256 438.452 341.4 444.2 338.664Z" fill="#A6A6A6"/>
<path d="M308.061 338.664C314.241 341.748 320.349 344.952 326.445 348.168C332.541 351.384 338.601 354.684 344.685 357.948C350.769 361.212 356.781 364.584 362.781 367.968L371.793 373.068C374.769 374.808 377.793 376.512 380.733 378.288C377.637 376.752 374.589 375.156 371.505 373.584L362.349 368.784C356.241 365.568 350.193 362.256 344.109 359.004C338.025 355.752 332.013 352.356 326.013 348.972C320.013 345.588 314.001 342.18 308.061 338.664Z" fill="#A6A6A6"/>
<path d="M375.596 338.664C370.088 341.832 364.508 344.892 358.928 347.94C353.348 350.988 347.708 353.94 342.128 356.928C336.548 359.916 330.86 362.796 325.184 365.676L316.664 369.96C313.808 371.34 310.964 372.768 308.084 374.124C310.832 372.528 313.628 371.004 316.388 369.432L324.788 364.848C330.38 361.812 336.008 358.848 341.588 355.86C347.168 352.872 352.868 349.992 358.532 347.124C364.196 344.256 369.86 341.4 375.596 338.664Z" fill="#A6A6A6"/>
<path d="M320.6 329.172L316.964 350.964L292.352 483.912H288.38L306.284 350.964L308.924 329.172H320.6Z" fill="#A6A6A6"/>
<path d="M308.924 329.172H320.6L316.964 350.964H306.284L308.924 329.172Z" fill="#263238"/>
<path d="M397.916 483.912H393.944L369.332 350.964L365.696 329.172H377.372L380.012 350.964L397.916 483.912Z" fill="#A6A6A6"/>
<path d="M377.372 329.172L380.012 350.964H369.332L365.696 329.172H377.372Z" fill="#263238"/>
<path d="M471.764 483.912H467.792L443.168 350.964L439.532 329.172H451.208L453.86 350.964L471.764 483.912Z" fill="#A6A6A6"/>
<path d="M453.86 350.964H443.168L439.532 329.172H451.208L453.86 350.964Z" fill="#263238"/>
<path d="M465.464 339.408H285.068V320.4H352.592L375.296 174.3H458.588L465.464 339.408Z" fill="#A6A6A6"/>
<path d="M465.465 339.408H455.637L449.229 174.3H458.589L465.465 339.408Z" fill="#DBDBDB"/>
<path d="M340.148 216.264C348.884 224.292 362.24 225.864 373.568 224.916C385.124 223.932 397.832 220.908 407.372 214.032C411.677 211.074 415.076 206.978 417.188 202.2C419.312 197.04 418.904 192.024 415.172 188.052C412.172 184.848 406.412 183.108 405.908 179.832C405.404 176.556 407.66 173.568 407.924 170.316C408.356 164.748 404.864 161.16 400.604 158.232C390.512 151.284 391.256 139.992 384.26 130.512C380.288 125.124 369.92 115.632 355.052 122.928C349.388 125.7 346.148 131.772 344.588 137.784C342.752 144.852 346.1 153.276 343.592 160.188C341.444 166.08 337.22 167.604 335.192 173.748C334.34 176.412 334.184 179.388 337.688 184.836C338.96 186.804 340.46 189.876 339.968 192.516C339.284 196.188 335.432 198.408 334.64 202.248C333.596 207.528 336.296 212.724 340.148 216.264Z" fill="#263238"/>
<path d="M413.912 204.108C419.144 202.404 420.308 194.592 416.312 191.304C413.792 189.216 410.396 188.592 407.912 186.504C403.76 183.084 406.388 179.028 407.708 174.852C410.576 165.792 404.036 160.968 397.244 156.684C392.084 153.42 390.476 149.04 389.288 143.256C389.288 143.172 389.408 143.136 389.432 143.256C390.512 147.48 391.748 151.596 395.228 154.5C398.06 156.9 401.552 158.232 404.324 160.704C408.968 164.844 410.228 169.92 408.296 175.752C407.744 177.432 406.508 179.424 406.448 181.176C406.316 185.292 409.616 186.9 412.748 188.376C415.148 189.576 417.824 190.872 419.048 193.416C420.908 197.268 418.16 203.316 414.08 204.384C413.828 204.48 413.708 204.18 413.912 204.108Z" fill="#263238"/>
<path d="M411.631 208.644C414.607 206.124 417.895 203.76 419.287 199.944C421.339 194.304 417.163 190.944 413.287 187.776C411.607 186.42 410.167 185.028 409.891 182.784C409.495 179.436 411.463 176.256 411.355 172.884C411.079 164.844 402.619 161.268 397.831 156.084C393.043 150.9 390.631 144.084 388.063 137.448C388.063 137.304 388.231 137.22 388.279 137.364C391.543 145.764 395.371 153.612 402.535 159.396C407.539 163.428 412.879 167.796 411.955 174.912C411.727 176.652 410.983 178.332 410.755 180.06C410.383 183.516 411.607 185.52 414.139 187.56C416.671 189.6 419.359 191.472 420.247 194.64C421.987 200.796 416.431 205.932 411.955 209.1C411.896 209.124 411.829 209.126 411.768 209.108C411.706 209.09 411.652 209.051 411.615 208.999C411.577 208.946 411.559 208.883 411.562 208.818C411.565 208.754 411.589 208.693 411.631 208.644Z" fill="#263238"/>
<path d="M332.948 200.496C334.976 196.26 338.948 193.68 336.896 188.424C335.516 184.824 333.008 182.136 333.104 178.044C333.342 174.743 334.701 171.622 336.956 169.2C339.632 165.936 342.716 163.2 344.408 159.204C346.244 154.884 346.616 150.12 347.036 145.512C347.036 145.416 347.192 145.428 347.192 145.512C346.976 151.716 346.52 158.124 342.752 163.368C340.784 166.092 338.216 168.348 336.284 171.096C332.804 176.052 333.62 180.696 336.284 185.736C337.484 188.052 338.684 190.38 337.976 193.056C337.268 195.732 335.192 197.664 333.896 200.016C328.4 210.024 341 219.456 350.12 219.6C350.528 219.6 350.588 220.236 350.12 220.236C343.328 220.332 335.3 215.436 332.732 209.124C332.162 207.751 331.887 206.273 331.924 204.787C331.961 203.301 332.31 201.839 332.948 200.496Z" fill="#263238"/>
<path d="M334.04 205.187C333.44 201.203 335.516 198.599 336.884 195.179C339.032 189.791 335.132 185.495 333.884 180.395C333.517 178.717 333.489 176.983 333.8 175.293C334.111 173.604 334.755 171.993 335.696 170.555C338.096 166.523 341.432 163.355 343.172 158.903C344.986 154.124 345.361 148.918 344.252 143.927C344.252 143.831 344.372 143.831 344.396 143.927C345.29 147.275 345.473 150.773 344.934 154.195C344.394 157.618 343.144 160.889 341.264 163.799C338.864 167.507 335.264 170.807 334.34 175.391C333.356 180.191 336.356 184.031 337.748 188.471C338.186 189.774 338.359 191.152 338.256 192.522C338.153 193.893 337.776 195.229 337.148 196.451C336.055 198.271 335.246 200.245 334.748 202.307C334.477 205.29 335.286 208.271 337.028 210.707C342.008 218.423 351.596 222.167 360.104 222.107C360.404 222.107 360.464 222.587 360.104 222.587C356.249 222.669 352.416 221.986 348.827 220.58C345.237 219.173 341.961 217.07 339.188 214.391C336.528 211.956 334.723 208.729 334.04 205.187Z" fill="#263238"/>
<path d="M280.16 484.368C283.364 485.472 375.212 486.12 378.728 483.936C380.06 483.12 382.628 446.376 381.872 442.788C379.328 430.608 367.172 393.696 367.172 393.696L305.732 393.084L322.124 442.2L322.328 453C322.328 453 287 468.432 283.4 471.252C279.8 474.072 276.956 483.276 280.16 484.368Z" fill="#DD6A57"/>
<path d="M279.872 484.5C283.1 485.604 375.452 486.264 378.992 484.068C380.636 483.048 381.596 463.416 382.16 442.68L322.088 442.08L322.28 452.88C322.28 452.88 286.808 468.48 283.184 471.276C279.56 474.072 276.656 483.396 279.872 484.5Z" fill="#14365B"/>
<path d="M281.227 480.815C296.707 480.551 359.227 480.923 374.527 481.835C374.647 481.835 374.647 481.919 374.527 481.931C359.179 482.531 296.707 481.656 281.227 481.068C280.903 481.056 280.903 480.815 281.227 480.815Z" fill="#263238"/>
<path d="M320.12 449.46C326.228 448.368 333.668 449.352 338.288 453.732C338.468 453.9 338.228 454.152 338.036 454.092C332.228 452.165 326.23 450.869 320.144 450.228C320.042 450.231 319.943 450.194 319.869 450.124C319.795 450.054 319.751 449.958 319.748 449.856C319.745 449.754 319.782 449.655 319.852 449.581C319.922 449.507 320.018 449.463 320.12 449.46Z" fill="#009294"/>
<path d="M315.704 452.076C321.8 450.984 329.252 451.968 333.872 456.348C334.052 456.516 333.812 456.768 333.608 456.708C327.803 454.785 321.809 453.49 315.728 452.844C315.626 452.848 315.527 452.81 315.453 452.74C315.379 452.671 315.335 452.574 315.332 452.472C315.329 452.371 315.366 452.272 315.436 452.197C315.506 452.123 315.602 452.08 315.704 452.076Z" fill="#009294"/>
<path d="M311.288 454.692C317.384 453.6 324.836 454.596 329.456 458.964C329.636 459.132 329.396 459.384 329.192 459.324C323.387 457.405 317.393 456.114 311.312 455.472C311.22 455.459 311.135 455.414 311.073 455.344C311.01 455.275 310.975 455.185 310.972 455.092C310.969 454.999 310.999 454.908 311.057 454.834C311.115 454.761 311.197 454.711 311.288 454.692Z" fill="#009294"/>
<path d="M306.872 457.32C312.968 456.216 320.42 457.212 325.04 461.58C325.22 461.76 324.98 462.012 324.776 461.94C318.971 460.021 312.977 458.729 306.896 458.088C306.794 458.091 306.695 458.054 306.621 457.984C306.547 457.914 306.503 457.818 306.5 457.716C306.497 457.614 306.534 457.515 306.604 457.441C306.674 457.367 306.77 457.323 306.872 457.32Z" fill="#009294"/>
<path d="M311.636 443.987C315.92 447.371 321.524 448.787 326.54 450.671C327.056 450.875 327.476 450.383 327.5 449.915C327.526 449.915 327.551 449.909 327.574 449.897C327.596 449.885 327.616 449.867 327.63 449.846C327.644 449.825 327.653 449.8 327.655 449.774C327.658 449.749 327.654 449.723 327.644 449.699C325.839 444.293 322.639 439.458 318.368 435.683C315.836 433.523 311.384 432.011 308.972 435.287C306.56 438.563 309.14 442.007 311.636 443.987ZM310.124 439.067C309.092 432.383 316.244 435.935 318.044 437.603C319.196 438.697 320.266 439.872 321.248 441.119C323.254 443.709 325.125 446.4 326.852 449.183C324.452 448.103 321.968 447.239 319.52 446.243C316.604 445.055 310.688 442.763 310.124 439.067Z" fill="#009294"/>
<path d="M348.056 440.568C346.604 436.752 341.912 436.968 338.9 438.408C333.774 440.896 329.392 444.686 326.192 449.4C326.178 449.421 326.168 449.444 326.164 449.469C326.159 449.494 326.161 449.519 326.168 449.543C326.175 449.568 326.187 449.59 326.203 449.609C326.22 449.627 326.241 449.642 326.264 449.652C326.231 449.766 326.224 449.886 326.245 450.003C326.266 450.121 326.314 450.231 326.385 450.326C326.456 450.422 326.548 450.499 326.654 450.553C326.76 450.607 326.877 450.635 326.996 450.636C332.336 450.156 338.108 450.3 343.148 448.236C346.088 447 349.4 444.168 348.056 440.568ZM335 448.272C332.384 448.572 329.756 448.74 327.152 449.136C329.565 446.922 332.088 444.831 334.712 442.872C335.999 441.944 337.346 441.102 338.744 440.352C340.928 439.236 348.776 437.724 345.944 443.952C344.384 447.3 338.072 447.912 335 448.272Z" fill="#009294"/>
<path d="M423.668 302.28C412.4 313.476 396.704 320.544 383.348 327.48C371.876 333.384 362.144 339.144 358.46 347.256C355.232 354.456 382.016 433.428 382.016 433.428L317 439.308C317 439.308 288.716 362.028 295.796 328.764C296.996 323.304 302.408 316.236 310.196 308.52C338.024 281.04 395.72 245.328 395.72 245.328H431.156C431.156 245.328 445.856 280.2 423.668 302.28Z" fill="#83ABDB"/>
<path d="M427.159 253.044C427.015 251.436 426.847 249.828 426.691 248.244C426.691 248.088 426.427 248.088 426.451 248.244C427.915 261.156 429.127 275.316 423.043 287.304C417.187 298.824 405.451 305.76 394.999 312.6L376.039 325.2L366.535 331.464C363.93 333.105 361.411 334.88 358.987 336.78C356.776 338.491 354.908 340.604 353.479 343.008C352.016 345.73 351.39 348.823 351.679 351.9C353.227 372.66 373.783 427.644 374.263 429.42C374.299 429.5 374.363 429.564 374.442 429.6C374.521 429.636 374.611 429.643 374.695 429.618C374.778 429.593 374.85 429.538 374.897 429.464C374.943 429.39 374.961 429.302 374.947 429.216C370.483 415.368 358.447 384.552 353.059 356.76C352.375 353.16 351.859 349.428 352.975 345.888C353.961 343.071 355.665 340.56 357.919 338.604C360.117 336.652 362.473 334.886 364.963 333.324L374.563 326.94L393.391 314.496C403.675 307.692 415.267 301.092 421.951 290.34C428.971 279.156 428.299 265.644 427.159 253.044Z" fill="#263238"/>
<path d="M423.667 302.28C412.399 313.476 396.703 320.544 383.347 327.48C359.743 321.288 329.935 313.548 310.147 308.568C337.975 281.088 395.671 245.376 395.671 245.376H431.107C431.107 245.376 445.855 280.2 423.667 302.28Z" fill="#263238"/>
<path d="M159.8 437.844C162.536 439.836 250.028 467.784 254.036 466.74C255.56 466.356 260.372 453.852 265.76 438.576C266.96 435.276 268.16 431.868 269.288 428.388C276.98 405.852 284.612 381.756 284.612 381.756L226.136 362.892L212.408 410.04L209.396 420.396C209.396 420.396 171.104 424.68 166.832 426.3C162.56 427.92 157.064 435.84 159.8 437.844Z" fill="#DD6A57"/>
<path d="M159.488 437.88C162.236 439.896 250.22 467.988 254.288 466.944C256.148 466.464 262.904 447.996 269.624 428.376L212.432 409.932L209.396 420.336C209.396 420.336 170.9 424.644 166.604 426.264C162.308 427.884 156.74 435.876 159.488 437.88Z" fill="#14365B"/>
<path d="M161.876 434.76C176.732 439.116 236.276 458.052 250.676 463.488C250.796 463.488 250.772 463.608 250.676 463.572C235.844 459.588 176.456 440.16 161.876 435.012C161.48 434.892 161.552 434.676 161.876 434.76Z" fill="#263238"/>
<path d="M208.328 416.4C214.484 417.168 221.3 420.324 224.408 425.88C224.528 426.096 224.228 426.264 224.048 426.144C219.075 422.582 213.737 419.561 208.124 417.132C208.04 417.094 207.972 417.028 207.932 416.944C207.893 416.861 207.885 416.766 207.91 416.677C207.934 416.589 207.99 416.512 208.067 416.461C208.144 416.41 208.236 416.388 208.328 416.4Z" fill="#009294"/>
<path d="M203.336 417.588C209.48 418.356 216.296 421.512 219.416 427.068C219.536 427.272 219.224 427.44 219.056 427.332C214.081 423.768 208.738 420.747 203.12 418.32C203.033 418.283 202.962 418.216 202.922 418.13C202.881 418.045 202.874 417.948 202.9 417.857C202.927 417.767 202.986 417.689 203.067 417.64C203.147 417.59 203.243 417.571 203.336 417.588Z" fill="#009294"/>
<path d="M198.344 418.764C204.488 419.544 211.304 422.7 214.412 428.244C214.544 428.46 214.232 428.628 214.064 428.508C209.086 424.952 203.744 421.935 198.128 419.508C198.048 419.465 197.985 419.396 197.95 419.312C197.915 419.229 197.909 419.135 197.935 419.048C197.96 418.961 198.014 418.885 198.089 418.834C198.163 418.782 198.253 418.757 198.344 418.764Z" fill="#009294"/>
<path d="M193.4 419.951C199.556 420.719 206.372 423.887 209.48 429.431C209.6 429.647 209.3 429.815 209.12 429.695C204.149 426.135 198.81 423.118 193.196 420.695C193.117 420.653 193.055 420.585 193.02 420.503C192.985 420.42 192.979 420.329 193.002 420.242C193.026 420.156 193.078 420.08 193.15 420.028C193.223 419.975 193.31 419.948 193.4 419.951Z" fill="#009294"/>
<path d="M201.86 408.6C204.944 413.1 209.876 416.112 214.1 419.4C214.199 419.467 214.313 419.51 214.432 419.524C214.55 419.538 214.671 419.523 214.783 419.48C214.894 419.438 214.994 419.369 215.074 419.28C215.154 419.191 215.211 419.084 215.24 418.968C215.265 418.973 215.291 418.973 215.316 418.967C215.34 418.961 215.363 418.949 215.383 418.933C215.403 418.917 215.418 418.897 215.429 418.873C215.44 418.85 215.445 418.825 215.444 418.8C215.32 413.102 213.702 407.536 210.752 402.66C208.976 399.852 205.184 397.08 201.896 399.492C198.608 401.904 200.06 406.02 201.86 408.6ZM201.86 403.452C202.868 396.756 208.64 402.252 209.864 404.412C210.637 405.798 211.311 407.238 211.88 408.72C213.021 411.792 214.006 414.92 214.832 418.092C212.852 416.34 210.74 414.768 208.7 413.1C206.288 411.144 201.32 407.196 201.872 403.5L201.86 403.452Z" fill="#009294"/>
<path d="M237.643 416.208C237.391 412.14 232.843 411 229.543 411.408C223.901 412.282 218.587 414.624 214.135 418.2C214.115 418.216 214.099 418.236 214.088 418.258C214.077 418.281 214.071 418.306 214.071 418.332C214.071 418.357 214.077 418.382 214.088 418.405C214.099 418.428 214.115 418.448 214.135 418.464C214.058 418.562 214.005 418.678 213.983 418.801C213.961 418.925 213.97 419.052 214.01 419.171C214.049 419.29 214.117 419.397 214.208 419.483C214.299 419.569 214.41 419.631 214.531 419.664C219.775 420.792 225.247 422.652 230.683 422.148C233.851 421.8 237.871 420.06 237.643 416.208ZM222.835 419.676C220.243 419.172 217.687 418.56 215.083 418.164C218.044 416.762 221.076 415.516 224.167 414.432C225.67 413.925 227.205 413.525 228.763 413.232C231.163 412.812 239.119 413.712 234.619 418.776C232.135 421.548 225.919 420.264 222.835 419.676Z" fill="#009294"/>
<path d="M209.876 404.46L274.676 423.528L294.764 349.572C296.516 325.128 300.92 313.272 315.296 308.772C339.776 301.188 399.584 329.172 426.668 310.404C448.664 295.14 431.12 245.268 431.12 245.268H367.52C367.52 245.268 359.84 254.616 358.424 260.112C358.424 260.112 279.668 254.04 262.04 276.384C238.484 306.384 209.876 404.46 209.876 404.46Z" fill="#83ABDB"/>
<path d="M326.335 307.704C322.545 307.376 318.726 307.672 315.031 308.58C311.521 309.526 308.25 311.202 305.431 313.5C302.701 315.723 300.489 318.516 298.951 321.684C297.151 325.392 296.551 329.592 295.915 333.684C295.567 336.084 295.339 338.484 295.207 340.884C295.075 343.284 294.979 346.62 294.979 348.672C294.979 348.852 295.22 348.864 295.22 348.672C295.255 346.514 295.435 344.361 295.759 342.228C296.023 340.2 296.383 338.184 296.731 336.168C297.308 332.152 298.243 328.196 299.528 324.348C300.766 321.052 302.673 318.048 305.129 315.524C307.584 313.001 310.535 311.012 313.795 309.684C315.769 308.886 317.832 308.33 319.94 308.028C322.071 307.798 324.217 307.73 326.359 307.824C326.359 307.824 326.383 307.704 326.335 307.704Z" fill="#263238"/>
<path d="M417.5 269.4C415.291 268.901 413.152 268.135 411.128 267.12C409.106 266.195 407.271 264.905 405.716 263.316C404.54 261.779 403.754 259.979 403.424 258.072C403.172 257.04 403.028 255.984 402.86 254.94C402.692 253.896 402.392 252.648 402.308 251.496C402.308 251.352 402.056 251.364 402.068 251.496C402.608 255.84 401.384 260.688 404.624 264.384C406.277 266.067 408.286 267.359 410.504 268.164C412.7 269.126 415.047 269.694 417.44 269.844C417.493 269.841 417.543 269.82 417.582 269.784C417.621 269.748 417.647 269.7 417.654 269.647C417.661 269.594 417.649 269.541 417.621 269.496C417.593 269.451 417.55 269.417 417.5 269.4Z" fill="#263238"/>
<path d="M429.404 259.38C428.828 257.036 428.155 254.724 427.387 252.444C427.387 252.3 427.099 252.36 427.159 252.516C430.269 262.029 431.635 272.026 431.192 282.024C431.135 286.753 430.495 291.457 429.284 296.028C428.122 300.396 425.29 304.132 421.4 306.432C417.385 308.527 413.029 309.889 408.536 310.452C403.499 311.239 398.405 311.597 393.308 311.52C382.927 311.424 372.62 310.02 362.336 308.808C352.364 307.608 342.391 306.252 332.395 305.352C324.211 304.62 315.487 304.536 307.916 308.16C300.715 311.628 296.012 318.24 292.94 325.428C289.484 333.552 287.527 342.312 285.187 350.796C282.403 360.912 268.028 416.076 267.812 418.44C267.812 418.668 268.135 418.656 268.159 418.44C268.663 413.256 281.108 367.632 283.904 357.444L288.116 342.18C289.232 338.112 290.336 334.032 291.716 330.048C294.38 322.452 298.292 314.832 305.215 310.296C312.596 305.496 321.788 305.1 330.32 305.724C335.12 306.06 339.92 306.708 344.72 307.272L360.476 309.144C370.532 310.344 380.6 311.748 390.728 312.06C395.792 312.253 400.863 312.048 405.895 311.448C410.447 311.004 414.917 309.938 419.179 308.28C422.952 306.82 426.122 304.131 428.179 300.648C430.291 296.868 431.011 292.488 431.479 288.252C432.474 278.581 431.772 268.81 429.404 259.38Z" fill="#263238"/>
<path d="M382.735 186.144C374.335 213.744 367.303 235.164 359.167 240.144C352.603 244.188 311.803 251.724 303.871 252.144C300.739 252.312 298.135 252.408 296.287 252.48C291.727 252.636 285.115 222.312 288.451 218.736C289.219 217.92 292.243 217.356 296.479 216.948C310.723 215.568 338.671 215.952 340.387 214.416C342.103 212.88 351.499 201.144 364.171 185.82C372.907 175.236 379.903 172.248 382.639 175.344C384.199 177.132 384.355 180.816 382.735 186.144Z" fill="#DD6A57"/>
<path d="M303.86 252.192C299.042 254.173 294.099 255.836 289.064 257.172C285.056 258.048 273.464 260.28 272.024 255.972C271.064 253.032 277.736 250.908 282.428 249.312C284.888 248.472 288.02 246.144 287.408 244.512C286.352 241.728 279.992 244.044 275.756 246.144C267.596 250.2 256.556 257.736 252.02 253.428C250.304 251.796 252.596 249.192 255.86 246.696C250.64 249.504 245.132 251.736 243.152 249.996C242.024 249.012 242.048 247.764 242.804 246.396C242.151 246.638 241.441 246.685 240.762 246.531C240.082 246.378 239.462 246.031 238.976 245.532C237.464 243.72 238.424 241.26 240.368 238.8C240.064 238.746 239.778 238.621 239.532 238.436C239.286 238.25 239.087 238.009 238.952 237.732C235.856 232.248 254.096 218.292 260.168 217.272C278 214.248 296.576 216.996 296.576 216.996C303.104 222.972 303.884 252.18 303.86 252.192Z" fill="#DD6A57"/>
<path d="M279.116 234.132C274.888 234.471 270.789 235.746 267.116 237.864C262.832 240.408 259.328 244.044 255.332 246.972C255.224 247.056 255.332 247.224 255.452 247.14C257.348 245.616 259.4 244.272 261.344 242.82C263.288 241.368 265.124 239.904 267.128 238.632C270.737 236.258 274.842 234.744 279.128 234.204C279.128 234.204 279.164 234.12 279.116 234.132Z" fill="#263238"/>
<path d="M276.332 226.464C271.57 227.262 266.902 228.545 262.4 230.292C257.6 232.368 253.628 236.028 249.776 239.532C247.472 241.644 245.208 243.804 242.984 246.012C242.888 246.108 242.984 246.264 243.116 246.18C247.028 242.548 251.028 239.036 255.116 235.644C258.938 232.457 263.356 230.063 268.112 228.6C270.824 227.772 273.584 227.148 276.344 226.524L276.332 226.464Z" fill="#263238"/>
<path d="M271.832 219.624C267.296 220.248 263.324 220.824 259.196 222.924C253.736 225.756 248.312 230.784 246.404 232.524C244.304 234.492 242.264 236.532 240.26 238.596C240.176 238.68 240.26 238.824 240.404 238.74C244.988 234.254 249.854 230.065 254.972 226.2C257.388 224.313 260.08 222.808 262.952 221.736C265.853 220.813 268.828 220.138 271.844 219.72C271.844 219.72 271.856 219.624 271.832 219.624Z" fill="#263238"/>
<path d="M385.28 181.536C384.224 189.372 378.26 204.42 378.26 204.42L348.908 201.072C348.908 201.072 364.676 180.888 376.568 173.472C381.344 170.508 386.36 173.616 385.28 181.536Z" fill="#FFC727"/>
<path d="M378.512 200.424C374.18 199.644 369.86 198.924 365.492 198.396C363.308 198.132 361.136 197.904 358.952 197.7C356.768 197.496 354.56 197.532 352.388 197.304C352.268 197.304 352.256 197.484 352.388 197.496C354.56 197.604 356.756 198.024 358.928 198.252C361.1 198.48 363.284 198.732 365.468 198.984C369.812 199.5 374.168 200.004 378.512 200.616C378.62 200.628 378.62 200.448 378.512 200.424Z" fill="#263238"/>
<path d="M374.456 183.132C375.692 182.025 377.179 181.234 378.788 180.828C378.178 181.388 377.496 181.864 376.76 182.244C376.034 182.638 375.259 182.937 374.456 183.132ZM370.664 197.016C369.886 196.772 369.079 196.627 368.264 196.584C368.966 197.022 369.726 197.361 370.52 197.592C371.297 197.842 372.105 197.987 372.92 198.024C372.218 197.586 371.459 197.247 370.664 197.016ZM364.592 184.536C364.341 185.313 364.196 186.12 364.16 186.936C364.594 186.233 364.929 185.474 365.156 184.68C365.407 183.903 365.553 183.096 365.588 182.28C365.162 182.987 364.827 183.745 364.592 184.536Z" fill="white"/>
<path d="M385.28 181.536C385.28 181.968 385.16 182.436 385.064 182.892C384.968 183.348 384.92 183.624 384.824 184.02C383.177 190.982 380.982 197.803 378.26 204.42L377.06 204.288L375.92 204.156L366.692 203.1L365.324 202.956L356.12 201.912L354.92 201.768L351.536 201.384L376.52 173.472C381.8 171.408 386.336 173.616 385.28 181.536Z" fill="#263238"/>
<path d="M356.96 260.736C356.96 260.736 384.848 265.044 436.34 256.416C436.34 256.416 410.9 193.32 393.14 177.216C385.076 169.872 377.912 171.66 372.164 177.216C370.736 178.608 353.624 204.288 352.676 212.844C351.848 220.404 358.556 228.18 358.556 228.18L356.96 260.736Z" fill="#FFC727"/>
<path d="M408.103 230.832C407.544 230.222 407.067 229.54 406.687 228.804C406.284 228.082 405.985 227.306 405.799 226.5C406.359 227.11 406.835 227.792 407.215 228.528C407.609 229.254 407.908 230.029 408.103 230.832ZM382.687 202.572C382.307 201.833 381.827 201.151 381.259 200.544C381.455 201.347 381.753 202.121 382.147 202.848C382.527 203.584 383.004 204.266 383.563 204.876C383.38 204.071 383.085 203.295 382.687 202.572ZM426.847 252.216C426.464 251.486 425.988 250.808 425.431 250.2C425.627 251.003 425.925 251.777 426.319 252.504C426.699 253.24 427.176 253.922 427.735 254.532C427.543 253.724 427.244 252.945 426.847 252.216ZM375.799 237.66C375.419 236.924 374.943 236.242 374.383 235.632C374.579 236.435 374.877 237.209 375.271 237.936C375.651 238.672 376.128 239.354 376.687 239.964C376.494 239.16 376.196 238.385 375.799 237.66ZM387.151 175.704C386.78 174.963 386.303 174.28 385.735 173.676C386.141 175.285 386.932 176.772 388.039 178.008C387.853 177.2 387.55 176.424 387.139 175.704H387.151ZM390.199 227.856C390.934 227.473 391.615 226.997 392.227 226.44C391.42 226.633 390.641 226.931 389.911 227.328C389.177 227.71 388.496 228.186 387.883 228.744C388.691 228.551 389.47 228.252 390.199 227.856ZM363.103 216.912C363.833 216.528 364.511 216.052 365.119 215.496C364.313 215.68 363.537 215.979 362.815 216.384C362.08 216.764 361.398 217.24 360.787 217.8C361.607 217.61 362.398 217.311 363.139 216.912H363.103ZM376.723 182.244C377.459 181.864 378.141 181.388 378.751 180.828C377.142 181.234 375.656 182.024 374.419 183.132C375.235 182.939 376.021 182.641 376.759 182.244H376.723ZM381.295 255.192C382.042 254.822 382.737 254.354 383.359 253.8C381.75 254.206 380.264 254.996 379.027 256.104C379.832 255.901 380.606 255.594 381.331 255.192H381.295ZM405.151 196.524C405.881 196.14 406.559 195.664 407.167 195.108C405.558 195.514 404.072 196.304 402.835 197.412C403.655 197.222 404.446 196.923 405.187 196.524H405.151ZM413.683 245.604C414.419 245.224 415.101 244.748 415.711 244.188C414.904 244.37 414.128 244.669 413.407 245.076C412.672 245.456 411.99 245.932 411.379 246.492C412.195 246.299 412.981 246.001 413.719 245.604H413.683ZM395.803 240.396C395.026 240.146 394.219 240 393.403 239.964C394.106 240.402 394.865 240.741 395.659 240.972C396.438 241.216 397.244 241.361 398.059 241.404C397.368 240.969 396.622 240.63 395.839 240.396H395.803ZM362.059 231.876C361.282 231.626 360.475 231.48 359.659 231.444C360.362 231.882 361.121 232.221 361.915 232.452C362.694 232.696 363.5 232.841 364.315 232.884C363.624 232.449 362.878 232.11 362.095 231.876H362.059ZM396.787 210.096C396.01 209.845 395.203 209.699 394.387 209.664C395.095 210.1 395.858 210.439 396.655 210.672C397.434 210.917 398.24 211.062 399.055 211.104C398.359 210.671 397.609 210.332 396.823 210.096H396.787ZM370.627 197.016C369.849 196.771 369.042 196.626 368.227 196.584C368.93 197.022 369.689 197.361 370.483 197.592C371.261 197.842 372.068 197.987 372.883 198.024C372.192 197.589 371.446 197.25 370.663 197.016H370.627ZM422.815 232.668C422.038 232.417 421.231 232.271 420.415 232.236C421.12 232.669 421.878 233.008 422.671 233.244C423.45 233.487 424.257 233.632 425.071 233.676C424.38 233.241 423.634 232.902 422.851 232.668H422.815ZM413.287 213.288C413.037 214.065 412.892 214.872 412.855 215.688C413.293 214.986 413.632 214.226 413.863 213.432C414.109 212.653 414.254 211.847 414.295 211.032C413.872 211.737 413.545 212.496 413.323 213.288H413.287ZM376.771 219.624C376.521 220.401 376.376 221.208 376.339 222.024C376.777 221.322 377.116 220.562 377.347 219.768C377.594 218.99 377.735 218.183 377.767 217.368C377.351 218.075 377.028 218.833 376.807 219.624H376.771ZM365.503 252.6C365.252 253.377 365.107 254.184 365.071 255C365.507 254.292 365.846 253.529 366.079 252.732C366.325 251.953 366.47 251.147 366.511 250.332C366.073 251.038 365.733 251.801 365.503 252.6ZM401.395 255C401.145 255.777 401 256.584 400.963 257.4C401.397 256.697 401.733 255.938 401.959 255.144C402.21 254.367 402.356 253.56 402.391 252.744C401.966 253.451 401.632 254.209 401.395 255ZM392.395 188.508C392.144 189.285 391.999 190.092 391.963 190.908C392.397 190.203 392.736 189.445 392.971 188.652C393.215 187.873 393.36 187.067 393.403 186.252C392.967 186.95 392.627 187.705 392.395 188.496V188.508ZM358.123 203.88C357.872 204.657 357.727 205.464 357.691 206.28C358.127 205.572 358.466 204.809 358.699 204.012C358.95 203.235 359.096 202.428 359.131 201.612C358.696 202.319 358.357 203.082 358.123 203.88Z" fill="white"/>
<path d="M384.007 174.696C384.007 176.136 379.963 186.696 373.699 188.016C371.659 188.46 368.743 177.444 368.743 177.444L368.347 176.676L362.731 165.972L373.807 153.792L375.439 152.136C375.439 152.136 376.783 155.16 378.415 158.952L378.643 159.492C378.739 159.708 378.835 159.9 378.919 160.104C379.171 160.668 379.423 161.304 379.663 161.82C379.903 162.336 380.035 162.696 380.215 163.164C380.395 163.632 380.575 164.088 380.767 164.544C382.078 167.85 383.16 171.242 384.007 174.696Z" fill="#DD6A57"/>
<path d="M378.415 159C378.125 162.508 377.074 165.91 375.335 168.971C373.596 172.032 371.212 174.678 368.347 176.724L362.731 166.02L373.807 153.84L375.439 152.184C375.439 152.184 376.783 155.16 378.415 159Z" fill="#263238"/>
<path d="M341.984 151.728C344.384 172.8 357.26 173.76 361.808 173.244C365.936 172.764 379.916 170.64 379.724 149.436C379.532 128.232 368.984 122.664 359.492 123.24C350 123.816 339.608 130.644 341.984 151.728Z" fill="#DD6A57"/>
<path d="M344.6 147.756C345.08 147.624 345.512 147.432 345.98 147.264C346.489 147.153 346.948 146.879 347.288 146.484C347.373 146.34 347.408 146.172 347.386 146.007C347.364 145.842 347.287 145.688 347.168 145.572C346.899 145.376 346.582 145.256 346.251 145.224C345.919 145.193 345.585 145.25 345.284 145.392C344.624 145.579 344.059 146.007 343.7 146.592C343.631 146.729 343.602 146.883 343.617 147.036C343.632 147.19 343.69 147.335 343.784 147.457C343.878 147.579 344.004 147.671 344.149 147.724C344.293 147.777 344.45 147.788 344.6 147.756Z" fill="#263238"/>
<path d="M359 145.8C358.51 145.794 358.021 145.758 357.536 145.692C357.014 145.724 356.496 145.585 356.06 145.296C355.942 145.178 355.867 145.025 355.845 144.86C355.824 144.695 355.857 144.528 355.94 144.384C356.15 144.124 356.425 143.926 356.737 143.807C357.049 143.689 357.387 143.656 357.716 143.712C358.399 143.714 359.055 143.975 359.552 144.444C359.658 144.556 359.73 144.696 359.758 144.848C359.787 145 359.771 145.156 359.713 145.299C359.654 145.442 359.556 145.566 359.43 145.654C359.304 145.743 359.154 145.793 359 145.8Z" fill="#263238"/>
<path d="M356.323 151.368C356.323 151.368 356.443 151.368 356.455 151.476C356.563 152.916 356.935 154.548 358.291 154.884V154.968C356.671 154.92 356.203 152.748 356.323 151.368Z" fill="#263238"/>
<path d="M357.44 149.724C359.732 149.292 360.428 153.9 358.304 154.296C356.18 154.692 355.52 150.084 357.44 149.724Z" fill="#263238"/>
<path d="M358.376 149.832C358.82 150.024 359.288 150.432 359.78 150.408C360.272 150.384 360.704 149.832 360.98 149.304C360.98 149.304 361.052 149.304 361.064 149.304C361.199 149.715 361.172 150.162 360.989 150.554C360.806 150.946 360.481 151.254 360.08 151.416C359.228 151.668 358.496 150.972 358.136 150.12C358.1 150.012 358.208 149.748 358.376 149.832Z" fill="#263238"/>
<path d="M348.344 152.268C348.344 152.268 348.236 152.352 348.248 152.412C348.524 153.828 348.596 155.496 347.384 156.18C347.384 156.18 347.384 156.264 347.384 156.252C348.944 155.784 348.824 153.564 348.344 152.268Z" fill="#263238"/>
<path d="M346.832 150.972C344.504 151.164 345.068 155.772 347.216 155.616C349.364 155.46 348.776 150.816 346.832 150.972Z" fill="#263238"/>
<path d="M345.908 151.392C345.572 151.692 345.26 152.172 344.828 152.256C344.396 152.34 343.892 151.896 343.508 151.452H343.436C343.52 152.34 343.928 153.228 344.792 153.3C345.656 153.372 346.064 152.532 346.172 151.62C346.196 151.512 346.04 151.284 345.908 151.392Z" fill="#263238"/>
<path d="M351.56 158.724C351.56 158.724 351.56 160.896 351.704 161.904C351.704 162 351.968 162.012 352.316 161.988C353.2 162.033 354.079 161.833 354.856 161.409C355.633 160.986 356.278 160.356 356.72 159.588C356.78 159.48 356.636 159.396 356.552 159.48C355.386 160.532 353.914 161.184 352.352 161.34C352.244 161.064 352.472 157.608 352.352 157.62C351.576 157.794 350.828 158.077 350.132 158.46C349.988 153.924 350.588 149.4 350.384 144.888C350.384 144.72 350.132 144.708 350.108 144.888C349.323 149.714 349.025 154.607 349.22 159.492C349.22 159.996 351.188 159 351.56 158.724Z" fill="#263238"/>
<path d="M352.388 161.484C353.062 162.241 353.916 162.815 354.872 163.152C355.395 163.32 355.957 163.32 356.48 163.152C357.68 162.78 357.584 161.712 357.308 160.812C357.156 160.335 356.95 159.876 356.696 159.444C355.514 160.566 354.004 161.281 352.388 161.484Z" fill="#263238"/>
<path d="M354.872 163.152C355.395 163.32 355.957 163.32 356.48 163.152C357.68 162.78 357.584 161.712 357.308 160.812C356.698 160.871 356.126 161.134 355.684 161.558C355.242 161.983 354.956 162.544 354.872 163.152Z" fill="#FF9CBD"/>
<path d="M378.344 151.236C376.04 151.236 369.572 145.404 368.54 134.316C368.54 134.316 370.148 144.216 371.012 145.62C371.876 147.024 367.412 142.308 366.428 133.38C363.765 135.617 360.795 137.46 357.608 138.852C353.468 140.352 350.876 140.52 350.552 140.232C350.228 139.944 356.3 137.508 357.836 135.432C357.836 135.432 347.036 141.516 341.828 142.308C341.24 142.404 339.572 130.128 347.192 124.308C354.812 118.488 367.94 123.108 371.612 126.18C371.612 126.18 375.656 126.444 380.468 132.048C385.28 137.652 380.84 151.2 378.344 151.236Z" fill="#263238"/>
<path d="M359.659 158.016C357.894 158.007 356.204 157.298 354.961 156.045C353.717 154.792 353.02 153.098 353.023 151.332C353.027 150.086 353.381 148.865 354.044 147.809C354.707 146.754 355.654 145.905 356.775 145.361C357.897 144.816 359.149 144.598 360.389 144.73C361.628 144.862 362.806 145.339 363.788 146.108C364.77 146.876 365.516 147.905 365.942 149.076C366.369 150.248 366.457 151.516 366.198 152.735C365.939 153.955 365.343 155.077 364.478 155.975C363.613 156.872 362.513 157.509 361.303 157.812C360.766 157.947 360.214 158.016 359.659 158.016ZM353.911 151.332C353.907 152.474 354.241 153.592 354.872 154.544C355.503 155.496 356.402 156.24 357.455 156.681C358.509 157.122 359.669 157.24 360.79 157.021C361.911 156.802 362.942 156.256 363.752 155.45C364.562 154.645 365.115 153.618 365.341 152.499C365.567 151.379 365.456 150.218 365.022 149.161C364.587 148.105 363.85 147.201 362.901 146.565C361.953 145.928 360.838 145.587 359.695 145.584C359.218 145.582 358.742 145.643 358.279 145.764C357.036 146.074 355.931 146.79 355.14 147.798C354.348 148.807 353.916 150.051 353.911 151.332Z" fill="#FFC727"/>
<path d="M345.704 159.78C343.004 160.128 340.412 157.452 339.944 153.78C339.697 152.136 339.974 150.457 340.736 148.98C341.025 148.326 341.477 147.759 342.049 147.331C342.621 146.904 343.293 146.631 344.001 146.539C344.709 146.448 345.429 146.54 346.091 146.808C346.753 147.076 347.335 147.509 347.78 148.068C348.89 149.305 349.586 150.857 349.772 152.508C350.216 155.952 348.572 159.036 346.172 159.708L345.704 159.78ZM341.516 149.4C340.846 150.708 340.602 152.194 340.82 153.648C341.228 156.804 343.376 159.132 345.62 158.844C347.864 158.556 349.316 155.76 348.908 152.604C348.744 151.142 348.132 149.768 347.156 148.668C346.788 148.233 346.322 147.893 345.796 147.674C345.27 147.455 344.7 147.364 344.132 147.408L343.808 147.468C343.312 147.611 342.852 147.857 342.457 148.19C342.062 148.523 341.742 148.935 341.516 149.4Z" fill="#FFC727"/>
<path d="M353.335 152.064L353.815 151.32C352.711 150.6 350.215 149.772 348.859 151.704L349.579 152.232C350.827 150.492 353.239 152.004 353.335 152.064Z" fill="#FFC727"/>
<path d="M383 149.952L383.732 149.436C383.492 149.1 381.332 146.112 379.352 146.04C377.372 145.968 365.78 148.632 365.288 148.74L365.48 149.616C368.84 148.848 377.864 146.88 379.328 146.928C380.792 146.976 382.4 149.124 383 149.952Z" fill="#FFC727"/>
<path d="M380.6 157.2C380.31 157.374 380.005 157.523 379.688 157.644C379.372 157.763 379.041 157.836 378.704 157.86C378.275 157.906 377.84 157.857 377.432 157.716C377.11 157.607 376.804 157.457 376.52 157.272C376.123 156.998 375.778 156.657 375.5 156.264V150.48C375.5 150.48 378.728 143.064 381.992 144.096C385.256 145.128 383.852 155.22 380.6 157.2Z" fill="#DD6A57"/>
<path d="M381.572 147C381.632 147 381.656 147.06 381.572 147.084C379.34 148.56 378.512 151.068 378.092 153.576C378.184 153.305 378.334 153.057 378.53 152.85C378.727 152.642 378.967 152.48 379.233 152.374C379.498 152.268 379.784 152.22 380.07 152.235C380.355 152.25 380.635 152.327 380.888 152.46C380.96 152.46 380.888 152.604 380.888 152.604C380.438 152.551 379.982 152.637 379.583 152.852C379.183 153.067 378.86 153.399 378.656 153.804C378.33 154.49 378.08 155.211 377.912 155.952C377.84 156.192 377.42 156.156 377.456 155.892C376.796 152.76 378.32 147.96 381.572 147Z" fill="#263238"/>
<path d="M380.18 156.384C380.18 156.579 380.122 156.769 380.014 156.931C379.906 157.093 379.752 157.219 379.572 157.293C379.393 157.368 379.195 157.387 379.004 157.349C378.813 157.312 378.638 157.218 378.5 157.08C378.363 156.943 378.269 156.767 378.231 156.576C378.193 156.385 378.212 156.188 378.287 156.008C378.361 155.828 378.487 155.674 378.649 155.566C378.811 155.458 379.001 155.4 379.196 155.4C379.457 155.4 379.707 155.504 379.892 155.689C380.076 155.873 380.18 156.123 380.18 156.384Z" fill="white"/>
<path d="M381.871 154.524C381.871 154.662 381.831 154.796 381.754 154.911C381.678 155.025 381.569 155.114 381.442 155.167C381.315 155.22 381.175 155.234 381.04 155.207C380.905 155.18 380.781 155.114 380.683 155.016C380.586 154.919 380.52 154.795 380.493 154.66C380.466 154.525 380.48 154.385 380.532 154.258C380.585 154.131 380.674 154.022 380.789 153.945C380.903 153.869 381.038 153.828 381.176 153.828C381.36 153.828 381.537 153.901 381.668 154.032C381.798 154.163 381.871 154.34 381.871 154.524Z" fill="white"/>
<path d="M396.944 180.708C412.712 202.176 433.952 238.416 424.052 246.216C407.78 259.02 360.848 265.644 350.096 266.724C345.452 267.18 336.788 236.724 339.956 232.872C343.124 229.02 392.636 227.256 393.044 224.232C393.272 222.516 389.552 207.672 385.1 189.204C379.952 167.904 392.42 174.6 396.944 180.708Z" fill="#DD6A57"/>
<path d="M348.116 230.544C348.116 230.544 333.92 230.148 324.632 230.328C319.448 230.424 310.58 231.396 306.8 233.208C301.16 235.92 279.284 250.872 282.8 256.26C285.98 261.132 303.2 245.892 303.2 245.892C303.2 245.892 284.456 259.8 289.4 264.9C294.344 270 311.408 250.272 311.408 250.272C311.408 250.272 292.532 264.924 298.436 269.472C302.9 272.892 319.4 255.84 319.4 255.84C319.4 255.84 303.272 268.548 307.7 272.256C312.608 276.36 328.82 261.576 328.82 261.576C341.684 269.112 350.9 267.444 357.308 265.476C358.832 264.972 348.116 230.544 348.116 230.544Z" fill="#DD6A57"/>
<path d="M309.296 240.696C307.04 242.244 304.748 243.792 302.636 245.496C300.524 247.2 298.484 249.096 296.54 250.98C293.967 253.46 291.681 256.221 289.724 259.212C293.576 254.148 301.028 247.8 303.14 246.012C305.252 244.224 307.256 242.412 309.356 240.684C309.416 240.732 309.344 240.66 309.296 240.696Z" fill="#263238"/>
<path d="M315.716 248.196C312.932 250.284 310.076 252.276 307.376 254.496C304.676 256.716 302.336 259.044 299.816 261.432C299.612 261.624 299.816 261.66 299.984 261.432C302.6 259.152 305.204 257.232 307.844 254.976C310.484 252.72 313.052 250.356 315.776 248.208L315.716 248.196Z" fill="#263238"/>
<path d="M322.388 253.632C318.032 256.749 314.011 260.308 310.388 264.252C310.208 264.444 310.388 264.468 310.628 264.252C314.552 260.652 317.6 257.796 322.508 253.752C322.568 253.728 322.484 253.572 322.388 253.632Z" fill="#263238"/>
<path d="M358.736 229.212C356.744 229.212 352.532 229.884 347.864 229.992C337.364 230.208 322.532 229.86 317.24 229.992C302.936 230.424 294.032 240.792 289.952 244.392C287.511 246.571 285.289 248.982 283.316 251.592C282.296 253.02 281.3 255.048 282.596 256.68C284.168 258.66 290.276 256.68 296.696 251.148C296.924 250.944 296.78 250.812 296.54 250.992C287.564 257.976 284.06 257.088 283.16 255.792C282.584 254.988 283.16 253.62 283.736 252.588C284.635 251.093 285.716 249.715 286.952 248.484C291.087 244.215 295.646 240.379 300.56 237.036C305.838 233.259 312.08 231.058 318.56 230.688C323.168 230.4 337.304 230.82 347.888 230.508C352.52 230.364 356.72 229.536 358.688 229.38C358.904 229.44 358.88 229.212 358.736 229.212Z" fill="#263238"/>
<path d="M417.092 207.96L386.96 207.192C386.96 207.192 383.72 192.396 383.072 183.96C382.22 172.788 386.168 169.848 395.972 179.472C402.524 185.916 417.092 207.96 417.092 207.96Z" fill="#FFC727"/>
<path d="M388.028 178.008C386.92 176.772 386.13 175.285 385.724 173.676C386.831 174.912 387.622 176.399 388.028 178.008ZM405.188 196.524C405.918 196.14 406.595 195.664 407.204 195.108C405.594 195.514 404.108 196.304 402.872 197.412C403.679 197.219 404.458 196.92 405.188 196.524ZM392.396 188.496C392.145 189.273 391.999 190.08 391.964 190.896C392.397 190.191 392.736 189.433 392.972 188.64C393.215 187.861 393.36 187.055 393.404 186.24C392.966 186.942 392.627 187.701 392.396 188.496Z" fill="white"/>
<path d="M390.643 207.3C390.319 207.228 387.223 207.048 387.043 207.096C386.707 205.344 386.395 203.592 386.035 201.852C385.855 200.976 385.663 200.1 385.459 199.236C385.255 198.372 385.015 197.184 384.823 196.344C384.823 196.212 384.619 196.236 384.631 196.344C384.787 197.472 384.931 198.3 385.075 199.272C385.219 200.244 385.339 201.012 385.507 201.876C385.843 203.7 386.131 205.656 386.563 207.468C387.94 207.527 389.319 207.499 390.691 207.384L390.643 207.3Z" fill="#263238"/>
<path d="M414.104 205.02C409.724 204.612 405.356 204.252 400.964 204.096C398.768 204.024 396.584 203.976 394.388 203.964C392.192 203.952 389.996 204.168 387.812 204.12C387.786 204.12 387.762 204.13 387.744 204.148C387.726 204.166 387.716 204.191 387.716 204.216C387.716 204.242 387.726 204.266 387.744 204.284C387.762 204.302 387.786 204.312 387.812 204.312C389.996 204.24 392.216 204.468 394.4 204.516L400.976 204.684C405.356 204.828 409.736 204.96 414.116 205.212C414.2 205.212 414.2 205.032 414.104 205.02Z" fill="#263238"/>
<path d="M269.805 264.756H336.273V259.596L269.805 257.448V264.756Z" fill="#455A64"/>
<path d="M217.557 264.671H261.417C265.149 264.671 259.737 254.015 246.081 249.923C232.425 245.831 213.249 260.675 217.557 264.671Z" fill="#37474F"/>
<path d="M234.764 264.672C234.051 262.426 233.093 260.265 231.908 258.228C231.32 257.236 230.636 256.304 229.868 255.444C229.071 254.579 228.209 253.776 227.288 253.044C228.477 253.397 229.577 253.998 230.516 254.808C231.472 255.608 232.284 256.566 232.916 257.64C233.557 258.707 234.045 259.858 234.368 261.06C234.699 262.234 234.833 263.454 234.764 264.672Z" fill="#263238"/>
<path d="M229.569 254.532C227.265 256.02 224.961 257.376 222.801 258.924C221.714 259.666 220.694 260.501 219.753 261.42C218.774 262.316 218.022 263.43 217.557 264.672C217.579 263.243 218.111 261.868 219.057 260.796C219.928 259.7 220.955 258.738 222.105 257.94C223.242 257.148 224.446 256.457 225.705 255.876C226.942 255.293 228.237 254.842 229.569 254.532Z" fill="#263238"/>
<path d="M186.092 244.044H292.688L275.744 164.676H169.136L186.092 244.044Z" fill="#455A64"/>
<path d="M182.156 244.044H288.752L271.796 164.676H165.2L182.156 244.044Z" fill="#37474F"/>
<path d="M239.648 215.592H242.144L238.352 197.784H235.844L239.648 215.592Z" fill="#263238"/>
<path d="M234.716 215.592H237.212L233.42 197.784H230.912L234.716 215.592Z" fill="#263238"/>
<path d="M229.784 215.592H232.28L228.488 197.784H225.98L229.784 215.592Z" fill="#263238"/>
<path d="M224.852 215.592H227.348L223.556 197.784H221.048L224.852 215.592Z" fill="#263238"/>
<path d="M219.908 215.592H222.416L218.612 197.784H216.116L219.908 215.592Z" fill="#263238"/>
<path d="M214.977 215.592H217.485L213.681 197.784H211.185L214.977 215.592Z" fill="#263238"/>
<path d="M210.044 215.592H212.552L208.748 197.784H206.252L210.044 215.592Z" fill="#263238"/>
<path d="M212.3 264.768H264.728V260.7L212.3 258.996V264.768Z" fill="#455A64"/>
<path d="M198.044 264.756H226.196L243.152 220.296H215L198.044 264.756Z" fill="#455A64"/>
<path d="M193.412 264.756H221.564L238.508 220.296H210.368L193.412 264.756Z" fill="#263238"/>
<path d="M445.964 264.756H68.0361V271.632H445.964V264.756Z" fill="#37474F"/>
<path d="M436.964 271.632H77.0361V288.888H436.964V271.632Z" fill="#37474F"/>
<path d="M436.964 271.632H77.0361V280.26H436.964V271.632Z" fill="#263238"/>
<path d="M125.828 423.768H93.5723V429.444H125.828V423.768Z" fill="#37474F"/>
<path d="M143.324 506.76H139.844L111.428 374.124L109.808 366.564L104.708 342.756L102.812 333.876L95.6601 300.564L93.1641 288.888H105.572L107.6 300.564L108.92 308.22L109.808 313.32L114.908 342.756L116.552 352.236L143.324 506.76Z" fill="#37474F"/>
<path d="M105.572 288.888L107.6 300.564H95.6601L93.1641 288.888H105.572Z" fill="#263238"/>
<path d="M116.553 352.236L111.429 374.124L109.808 366.564L104.708 342.756L102.812 333.876L108.92 308.22L109.808 313.32L114.908 342.756L116.553 352.236Z" fill="#263238"/>
<path d="M126.452 288.888L123.956 300.564L114.908 342.756L109.808 366.564L79.772 506.76H76.292L104.708 342.756L109.808 313.32L112.016 300.564L114.032 288.888H126.452Z" fill="#37474F"/>
<path d="M126.453 288.888L123.957 300.564H112.017L114.033 288.888H126.453Z" fill="#263238"/>
<path d="M420.212 423.768H387.956V429.444H420.212V423.768Z" fill="#37474F"/>
<path d="M437.708 506.76H434.216L405.812 374.124L404.192 366.564L399.08 342.756L397.184 333.876L390.044 300.564L387.536 288.888H399.956L401.972 300.564L403.304 308.22L404.192 313.32L409.28 342.756L410.924 352.236L437.708 506.76Z" fill="#37474F"/>
<path d="M399.956 288.888L401.972 300.564H390.044L387.536 288.888H399.956Z" fill="#263238"/>
<path d="M410.925 352.236L405.813 374.124L404.193 366.564L399.081 342.756L397.185 333.876L403.305 308.22L404.193 313.32L409.281 342.756L410.925 352.236Z" fill="#263238"/>
<path d="M420.824 288.888L418.328 300.564L409.28 342.756L404.192 366.564L374.144 506.76H370.676L399.08 342.756L404.192 313.32L406.388 300.564L408.416 288.888H420.824Z" fill="#37474F"/>
<path d="M420.824 288.888L418.328 300.564H406.388L408.416 288.888H420.824Z" fill="#263238"/>
<path d="M100.016 257.94L97.6396 257.628L107.972 178.968L138.428 159.528L148.256 165.96L146.948 167.964L138.404 162.384L110.204 180.384L100.016 257.94Z" fill="#263238"/>
<path d="M107.072 179.676C107.07 180.078 107.187 180.472 107.409 180.807C107.631 181.143 107.948 181.404 108.319 181.559C108.69 181.714 109.098 181.756 109.493 181.678C109.887 181.6 110.25 181.407 110.534 181.122C110.819 180.838 111.012 180.475 111.09 180.081C111.168 179.686 111.127 179.278 110.972 178.907C110.817 178.535 110.555 178.219 110.219 177.997C109.884 177.775 109.49 177.658 109.088 177.66C108.554 177.66 108.041 177.873 107.663 178.251C107.285 178.629 107.072 179.142 107.072 179.676Z" fill="#FFC727"/>
<path d="M138.32 162.972C139.433 162.972 140.336 162.07 140.336 160.956C140.336 159.843 139.433 158.94 138.32 158.94C137.206 158.94 136.304 159.843 136.304 160.956C136.304 162.07 137.206 162.972 138.32 162.972Z" fill="#FFC727"/>
<path d="M165.128 168.72L151.7 183.708L145.508 176.052L141.74 171.384L151.796 160.164L156.848 163.416L165.128 168.72Z" fill="#FFC727"/>
<path opacity="0.1" d="M165.128 168.72L151.7 183.708L145.508 176.052L156.848 163.416L165.128 168.72Z" fill="black"/>
<path d="M184.58 176.113L161.18 202.225L145.64 182.401L163.172 162.841L184.58 176.113Z" fill="#FFC727"/>
<path d="M117.2 264.768H82.5801L84.7041 253.896H115.076L117.2 264.768Z" fill="#FFC727"/>
<path d="M467.156 365.712C466.146 372.743 466.509 379.903 468.224 386.796C469.036 389.989 470.116 393.108 471.452 396.12C473.132 399.972 474.884 403.74 474.464 407.964C474.056 408.24 475.46 408.192 475.496 407.784C486.776 401.364 501.248 400.188 509.924 389.688C514.04 384.708 516.116 378.408 517.124 372.108C518.192 365.244 518.48 357.708 516.716 350.88C515.216 345.156 511.916 339.636 506.504 336.828C501.092 334.02 493.688 334.188 487.844 336C475.208 339.924 468.944 353.52 467.156 365.712Z" fill="#7FCCBB"/>
<path d="M461.371 449.208C462.907 444.084 464.443 438.948 466.027 433.836C469.123 423.804 472.339 413.82 475.903 403.944C478.039 398.04 480.287 392.188 482.647 386.388C482.395 382.731 481.947 379.089 481.303 375.48C480.367 371.112 478.987 366.888 477.703 362.604C477.683 362.544 477.687 362.477 477.715 362.42C477.743 362.363 477.793 362.319 477.853 362.298C477.914 362.278 477.98 362.282 478.037 362.31C478.095 362.338 478.139 362.388 478.159 362.448C480.691 368.352 484.003 375.888 484.075 382.848C486.835 376.284 489.775 369.816 492.943 363.444C493.307 358.053 493.142 352.639 492.451 347.28C492.442 347.229 492.453 347.177 492.482 347.134C492.511 347.091 492.556 347.062 492.607 347.052C492.658 347.043 492.711 347.054 492.754 347.083C492.796 347.112 492.826 347.157 492.835 347.208C493.792 351.9 494.163 356.693 493.939 361.476C496.339 356.676 498.907 351.96 501.631 347.304C501.871 346.884 502.459 347.304 502.243 347.724C498.007 355.884 494.071 364.224 490.375 372.66C495.572 368.163 501.574 364.689 508.063 362.424C508.351 362.328 508.555 362.736 508.267 362.844C501.188 365.897 494.711 370.188 489.139 375.516C486.491 381.7 483.967 387.932 481.567 394.212C488.623 387.288 498.283 382.74 507.619 380.304C507.943 380.22 508.027 380.7 507.715 380.796C496.915 384.048 488.515 390.18 480.283 397.596C479.323 400.132 478.387 402.676 477.475 405.228C473.979 414.884 470.659 424.608 467.515 434.4C466.003 439.08 464.503 443.784 463.039 448.476C461.467 453.54 460.231 458.88 458.239 463.764C458.047 464.232 457.207 464.124 457.315 463.56C458.424 458.711 459.778 453.921 461.371 449.208Z" fill="#263238"/>
<path d="M480.079 355.8C482.082 358.879 483.464 362.32 484.147 365.928C484.147 366.024 484.015 366.072 483.979 365.928C482.719 362.528 481.248 359.21 479.575 355.992C479.407 355.8 479.887 355.548 480.079 355.8Z" fill="#263238"/>
<path d="M500.204 379.345C503.34 377.601 506.768 376.446 510.319 375.937C510.415 375.937 510.475 376.057 510.319 376.093C508.687 376.777 506.984 377.293 505.34 377.881C503.696 378.469 502.063 379.285 500.395 379.861C500.334 379.864 500.273 379.848 500.221 379.814C500.17 379.781 500.13 379.731 500.109 379.673C500.087 379.616 500.085 379.553 500.102 379.493C500.119 379.434 500.155 379.382 500.204 379.345Z" fill="#263238"/>
<path d="M505.868 351.072C506.89 350.299 507.983 349.624 509.132 349.056C509.17 349.032 509.216 349.024 509.26 349.035C509.304 349.045 509.342 349.072 509.366 349.11C509.389 349.148 509.397 349.194 509.387 349.238C509.377 349.282 509.35 349.32 509.312 349.344C508.311 350.139 507.239 350.838 506.108 351.432C505.904 351.552 505.664 351.204 505.868 351.072Z" fill="#263238"/>
<path d="M429.128 404.028C437.252 406.428 445.424 408.66 453.548 411.048C454.256 411.264 467.948 384.948 463.016 371.388C458.432 358.836 447.932 349.452 435.416 345.18C429.62 343.212 422.492 341.58 416.36 342.912C410.912 344.112 407.06 348.576 405.296 353.712C402.896 360.672 403.688 368.988 404.996 376.092C406.046 382.768 408.803 389.059 413 394.356C417.296 399.48 422.804 402.144 429.128 404.028Z" fill="#7FCCBB"/>
<path d="M417.355 379.008C422.489 381.518 427.814 383.617 433.279 385.284C436.925 386.267 440.482 387.556 443.911 389.136C440.491 381.48 436.711 373.992 432.727 366.576C427.471 365.052 421.927 362.688 418.003 358.968C417.959 358.93 417.931 358.876 417.927 358.817C417.922 358.759 417.941 358.701 417.979 358.656C418.017 358.612 418.072 358.584 418.13 358.58C418.189 358.575 418.247 358.594 418.291 358.632C422.623 361.692 427.399 363.528 432.187 365.592C431.107 363.6 430.011 361.6 428.899 359.592C428.599 359.04 429.355 358.488 429.727 359.028C433.994 365.229 437.851 371.703 441.271 378.408C442.146 372.531 442.427 366.582 442.111 360.648C442.105 360.63 442.104 360.611 442.107 360.592C442.11 360.574 442.117 360.556 442.128 360.541C442.139 360.525 442.154 360.513 442.171 360.504C442.188 360.495 442.206 360.491 442.225 360.491C442.244 360.491 442.263 360.495 442.28 360.504C442.297 360.513 442.311 360.525 442.322 360.541C442.334 360.556 442.341 360.574 442.344 360.592C442.347 360.611 442.345 360.63 442.339 360.648C443.356 367.118 443.291 373.712 442.147 380.16C444.991 385.848 447.583 391.68 449.923 397.572C450.847 394.032 452.047 390.54 452.851 386.964C454.09 381.863 454.496 376.595 454.051 371.364C454.051 371.208 454.255 371.196 454.279 371.364C455.724 381.065 454.547 390.976 450.871 400.068C452.227 403.668 453.523 407.184 454.711 410.748C460.84 428.975 464.473 447.947 465.511 467.148C465.511 467.241 465.475 467.329 465.409 467.394C465.344 467.46 465.256 467.496 465.163 467.496C465.071 467.496 464.982 467.46 464.917 467.394C464.852 467.329 464.815 467.241 464.815 467.148C462.691 448.217 458.638 429.552 452.719 411.444C450.319 404.364 447.643 397.488 444.667 390.732C439.867 389.316 435.067 387.396 430.375 385.764C425.683 384.132 421.063 382.32 417.175 379.296C417.019 379.176 417.187 378.924 417.355 379.008Z" fill="#263238"/>
<path d="M409.784 371.4C414.752 373.176 419.456 375.648 424.424 377.4C424.652 377.484 424.52 377.856 424.28 377.808C419.036 376.716 413.828 375.096 409.592 371.652C409.4 371.52 409.604 371.304 409.784 371.4Z" fill="#263238"/>
<path d="M450.344 360.6C450.344 360.336 450.68 360.192 450.752 360.456C452.12 365.04 453.056 369.9 451.736 374.58C451.736 374.76 451.388 374.772 451.376 374.58C451.148 369.888 451.4 365.304 450.344 360.6Z" fill="#263238"/>
<path d="M429.799 350.076C431.381 352.352 432.139 355.099 431.947 357.864C431.947 358.032 431.659 358.14 431.611 357.864C431.011 355.248 430.003 352.86 429.211 350.316C429.208 350.246 429.226 350.177 429.263 350.118C429.3 350.059 429.355 350.013 429.42 349.987C429.485 349.96 429.556 349.955 429.624 349.971C429.692 349.987 429.753 350.024 429.799 350.076Z" fill="#263238"/>
<path d="M525.8 415.632C523.4 423.192 517.76 433.632 508.796 433.728C502.988 433.728 497.132 433.092 491.312 433.008C485.072 432.912 478.832 432.924 472.604 433.296C472.1 433.296 473.348 414.624 488.336 405.516C492.536 402.96 497.672 402.156 502.436 401.124C507.89 399.834 513.488 399.249 519.092 399.384C522.536 399.528 525.404 400.26 526.628 403.776C527.852 407.292 526.904 412.044 525.8 415.632Z" fill="#7FCCBB"/>
<path d="M519.32 406.2C515.72 407.136 512 408.204 508.34 409.368C509.294 408.334 510.303 407.352 511.364 406.428C512.936 405.12 514.664 404.028 516.344 402.936C516.488 402.84 516.404 402.564 516.224 402.636C512.677 404.109 509.614 406.545 507.38 409.668C502.832 411.144 498.32 412.764 493.976 414.552C490.974 415.778 488.097 417.289 485.384 419.064C486.254 417.174 487.295 415.366 488.492 413.664C490.484 411.084 493.172 409.644 495.776 407.82C495.828 407.788 495.866 407.737 495.88 407.677C495.895 407.617 495.885 407.554 495.854 407.502C495.822 407.449 495.77 407.412 495.711 407.397C495.651 407.382 495.588 407.392 495.536 407.424C492.805 408.596 490.35 410.327 488.329 412.506C486.308 414.684 484.765 417.261 483.8 420.072C480.716 422.321 477.898 424.914 475.4 427.8C465.476 439.068 457.664 454.056 457.64 469.344C457.64 469.716 458.228 469.812 458.3 469.44C460.841 454.444 467.374 440.408 477.212 428.808C477.92 427.98 478.652 427.2 479.384 426.408C482.101 426.042 484.838 425.838 487.58 425.796C490.772 425.796 493.94 426.264 497.12 426.528C502.352 426.948 508.136 427.02 512.852 424.38C512.899 424.354 512.935 424.312 512.953 424.261C512.971 424.21 512.969 424.155 512.948 424.105C512.927 424.056 512.888 424.016 512.839 423.993C512.79 423.971 512.735 423.968 512.684 423.984C502.172 427.812 491.084 422.964 480.584 425.244C485.101 420.941 490.395 417.537 496.184 415.212L497.156 414.828C503.912 415.632 511.04 417.396 517.616 415.2C517.657 415.189 517.692 415.162 517.714 415.124C517.735 415.087 517.741 415.043 517.73 415.002C517.718 414.96 517.691 414.925 517.654 414.904C517.617 414.882 517.573 414.877 517.532 414.888C511.172 416.472 505.076 414.48 498.812 414.168C505.64 411.504 512.6 409.368 519.452 406.752C519.932 406.536 519.944 406.008 519.32 406.2Z" fill="#263238"/>
<path d="M522.296 412.824C519.035 413.245 515.754 413.494 512.468 413.568C512.396 413.568 512.372 413.688 512.468 413.7C515.776 414.317 519.186 414.102 522.392 413.076C522.524 413.028 522.452 412.8 522.296 412.824Z" fill="#263238"/>
<path d="M500.096 406.345C498.281 407.158 496.633 408.302 495.236 409.717C495.056 409.873 495.296 410.185 495.476 410.041C496.304 409.441 497.156 408.841 498.008 408.325C498.835 407.869 499.636 407.369 500.408 406.825C500.6 406.645 500.36 406.201 500.096 406.345Z" fill="#263238"/>
<path d="M447.175 430.681C447.283 430.921 446.923 431.161 446.779 430.897C446.755 430.936 446.721 430.97 446.682 430.994C446.642 431.019 446.598 431.035 446.551 431.041C440.519 432.484 434.403 433.554 428.239 434.245C423.283 434.677 417.571 434.953 413.227 432.085C407.347 428.185 403.483 417.757 406.663 411.133C410.419 403.273 421.747 407.533 427.435 410.341C436.186 414.611 443.169 421.806 447.175 430.681Z" fill="#7FCCBB"/>
<path d="M451.568 434.316C448.265 431.119 444.595 428.323 440.636 425.988C437.784 421.476 434.004 417.622 429.548 414.684C429.332 414.54 429.152 414.876 429.344 415.032C432.889 417.871 436.033 421.177 438.692 424.86C434.273 422.449 429.685 420.363 424.964 418.62C423.284 415.491 420.722 412.925 417.595 411.24C417.535 411.24 417.464 411.24 417.524 411.336C420.099 413.297 422.347 415.655 424.184 418.32C421.388 417.276 418.58 416.316 415.784 415.38C415.532 415.296 415.436 415.68 415.676 415.776C420.692 417.732 425.804 419.796 430.772 422.172C424.718 423.138 418.549 423.138 412.495 422.172C412.464 422.167 412.431 422.174 412.404 422.191C412.377 422.209 412.357 422.235 412.348 422.266C412.339 422.297 412.342 422.331 412.356 422.36C412.37 422.389 412.394 422.412 412.424 422.424C418.738 424.296 425.446 424.4 431.816 422.724C434.978 424.258 438.048 425.977 441.008 427.872C438.515 427.665 436.005 427.872 433.58 428.484C429.295 429.478 424.91 429.973 420.512 429.96C420.344 429.96 420.308 430.224 420.512 430.248C428.084 431.556 435.248 428.112 442.76 429.048C445.549 430.944 448.167 433.08 450.584 435.432C455.269 440.118 459.128 445.563 461.995 451.536C465.152 457.968 466.868 464.736 469.424 471.432C469.439 471.494 469.479 471.547 469.534 471.58C469.59 471.613 469.655 471.622 469.718 471.606C469.78 471.59 469.833 471.55 469.865 471.495C469.898 471.44 469.907 471.374 469.892 471.312C467.648 458.112 461.12 443.652 451.568 434.316Z" fill="#263238"/>
<path d="M428.708 416.328C428.208 415.418 427.55 414.605 426.764 413.928C426.132 413.236 425.375 412.669 424.532 412.26C424.46 412.26 424.412 412.332 424.46 412.38C425.084 413.088 425.948 413.58 426.62 414.276C427.292 414.972 427.82 415.752 428.528 416.424C428.545 416.434 428.565 416.44 428.586 416.44C428.606 416.44 428.626 416.436 428.644 416.426C428.663 416.416 428.678 416.402 428.689 416.385C428.7 416.368 428.706 416.348 428.708 416.328Z" fill="#263238"/>
<path d="M416.215 420.396C415.087 420.12 413.899 420.144 412.759 419.904C411.622 419.633 410.501 419.3 409.399 418.908C409.369 418.903 409.339 418.908 409.312 418.923C409.285 418.938 409.265 418.961 409.254 418.989C409.242 419.017 409.241 419.049 409.25 419.078C409.259 419.107 409.278 419.132 409.303 419.148C411.371 420.421 413.798 420.986 416.215 420.756C416.252 420.743 416.284 420.718 416.306 420.686C416.328 420.654 416.34 420.615 416.34 420.576C416.34 420.537 416.328 420.499 416.306 420.467C416.284 420.434 416.252 420.41 416.215 420.396Z" fill="#263238"/>
<path d="M487.604 448.188L486.368 462.228L482.179 509.616H445.063L439.819 462.228L438.271 448.188H487.604Z" fill="#455A64"/>
<path d="M487.604 448.188L486.368 462.228H439.819L438.271 448.188H487.604Z" fill="#263238"/>
<path d="M491.276 444.36H434.6V455.748H491.276V444.36Z" fill="#455A64"/>
</svg>
