<svg width="669" height="584" viewBox="0 0 669 584" fill="none" xmlns="http://www.w3.org/2000/svg">
<g clip-path="url(#clip0_1498_10142)">
<path d="M148.188 428.262L64.0117 413.424L51.2527 497.664L135.429 512.503L148.188 428.262Z" fill="#F5F5F5"/>
<path d="M112.033 441.376C110.887 441.227 109.726 441.445 108.694 442.003C107.662 442.56 106.805 443.432 106.228 444.511C105.652 445.59 105.382 446.828 105.452 448.07C105.522 449.313 105.93 450.506 106.623 451.502C107.316 452.497 108.266 453.251 109.353 453.669C110.44 454.087 111.617 454.152 112.738 453.854C113.858 453.557 114.873 452.911 115.657 451.997C116.44 451.082 116.957 449.939 117.143 448.711C117.366 447.007 116.953 445.278 115.995 443.903C115.037 442.528 113.612 441.619 112.033 441.376Z" fill="#E0E0E0"/>
<path d="M70.373 184.357C70.6462 184.403 70.9145 184.477 71.1742 184.579C71.6939 184.743 72.4301 185 73.3396 185.327C75.1476 185.981 77.6702 186.974 80.3552 188.106L87.3168 191.038L89.4821 191.914C89.7504 192.003 90.0083 192.124 90.2508 192.276C89.9748 192.233 89.703 192.163 89.4388 192.066C88.93 191.891 88.1937 191.634 87.2735 191.295C85.4654 190.618 82.9428 189.602 80.2686 188.469L73.2962 185.584L71.1309 184.719C70.8665 184.63 70.6123 184.508 70.373 184.357Z" fill="#E0E0E0"/>
<path d="M91.008 191.459C90.9106 191.459 92.567 185.805 94.6999 178.914C96.8327 172.023 98.63 166.463 98.7274 166.498C98.8249 166.533 97.1684 172.152 95.0355 179.043C92.9027 185.934 91.1054 191.552 91.008 191.459Z" fill="#E0E0E0"/>
<path d="M104.141 220.402C104.274 220.133 104.426 219.875 104.595 219.631L105.916 217.575C106.999 215.847 108.536 213.44 110.128 210.719C111.719 207.998 113.083 205.498 114.058 203.711C114.523 202.858 114.913 202.134 115.216 201.55C115.348 201.278 115.504 201.02 115.682 200.779C115.592 201.071 115.476 201.353 115.335 201.62C115.097 202.158 114.74 202.917 114.253 203.851C113.332 205.708 112.001 208.243 110.398 210.964C108.796 213.686 107.248 216.068 106.068 217.774C105.483 218.615 104.985 219.292 104.649 219.748C104.314 220.203 104.162 220.425 104.141 220.402Z" fill="#E0E0E0"/>
<path d="M84.209 218.416C84.4681 218.386 84.7294 218.386 84.9885 218.416L87.1538 218.533C88.9511 218.661 91.4845 218.848 94.1803 219.082C96.8762 219.315 99.4096 219.561 101.207 219.748L103.372 219.993C103.632 220.012 103.89 220.059 104.141 220.133C103.883 220.176 103.62 220.176 103.361 220.133L101.196 220.005C99.3988 219.888 96.8654 219.701 94.1695 219.456C91.4737 219.21 88.9402 218.988 87.143 218.801L84.9777 218.556C84.7164 218.551 84.4573 218.504 84.209 218.416Z" fill="#E0E0E0"/>
<path d="M92.7949 245.56C93.1292 245.515 93.4675 245.515 93.8018 245.56L96.5409 245.701C98.847 245.841 102.041 246.063 105.56 246.331C109.078 246.6 112.272 246.869 114.567 247.067L117.296 247.347C117.634 247.366 117.971 247.413 118.303 247.488C117.968 247.532 117.63 247.532 117.296 247.488L114.557 247.347C112.24 247.207 109.057 246.985 105.527 246.717C101.998 246.448 98.8254 246.191 96.5193 245.981L93.791 245.712C93.456 245.688 93.1231 245.637 92.7949 245.56Z" fill="#E0E0E0"/>
<path d="M117.695 247.266C117.852 246.914 118.037 246.578 118.247 246.261L119.828 243.586C121.16 241.344 122.99 238.225 124.917 234.721C126.844 231.217 128.533 227.994 129.724 225.658L131.142 222.889C131.301 222.537 131.49 222.201 131.705 221.885C131.586 222.254 131.441 222.614 131.272 222.96C130.969 223.625 130.514 224.595 129.951 225.786C128.803 228.122 127.169 231.404 125.231 234.908C123.293 238.412 121.431 241.519 120.034 243.738C119.341 244.848 118.767 245.736 118.356 246.343C118.162 246.672 117.941 246.98 117.695 247.266Z" fill="#E0E0E0"/>
<path d="M600.392 350.587V350.914H598.996V350.657L599.754 349.886C599.938 349.688 599.97 349.571 599.97 349.454C599.97 349.337 599.851 349.162 599.613 349.162C599.529 349.158 599.445 349.175 599.368 349.212C599.291 349.248 599.223 349.303 599.169 349.372L598.92 349.174C599.009 349.061 599.121 348.972 599.246 348.914C599.372 348.855 599.508 348.828 599.645 348.835C600.057 348.835 600.327 349.057 600.327 349.419C600.324 349.547 600.295 349.672 600.24 349.785C600.186 349.898 600.108 349.997 600.013 350.073L599.505 350.587H600.392Z" fill="white"/>
<path d="M600.588 349.571C600.586 349.539 600.591 349.507 600.601 349.478C600.611 349.448 600.627 349.421 600.647 349.398C600.667 349.375 600.692 349.357 600.719 349.344C600.746 349.332 600.775 349.325 600.804 349.325C600.864 349.325 600.922 349.351 600.965 349.397C601.007 349.443 601.031 349.506 601.031 349.571C601.031 349.636 601.007 349.698 600.965 349.744C600.922 349.79 600.864 349.816 600.804 349.816C600.775 349.816 600.746 349.81 600.719 349.797C600.692 349.785 600.667 349.766 600.647 349.744C600.627 349.721 600.611 349.693 600.601 349.664C600.591 349.634 600.586 349.602 600.588 349.571ZM600.588 350.739C600.586 350.707 600.591 350.675 600.601 350.646C600.611 350.616 600.627 350.589 600.647 350.566C600.667 350.543 600.692 350.525 600.719 350.512C600.746 350.5 600.775 350.493 600.804 350.493C600.834 350.492 600.865 350.497 600.893 350.509C600.921 350.52 600.947 350.538 600.968 350.562C600.99 350.585 601.006 350.612 601.017 350.643C601.028 350.673 601.033 350.706 601.031 350.739C601.032 350.77 601.026 350.802 601.014 350.831C601.002 350.86 600.986 350.886 600.964 350.908C600.943 350.93 600.918 350.947 600.89 350.958C600.863 350.969 600.833 350.974 600.804 350.972C600.771 350.976 600.738 350.97 600.707 350.956C600.676 350.942 600.649 350.921 600.628 350.893C600.606 350.866 600.592 350.833 600.585 350.798C600.578 350.763 600.579 350.727 600.588 350.692V350.739Z" fill="white"/>
<path d="M601.962 348.858V350.914H601.615V349.232H601.215V348.905L601.962 348.858Z" fill="white"/>
<path d="M603.975 350.4H603.639V350.867H603.303V350.4H602.221V350.131L603.163 348.812H603.542L602.654 350.073H603.282V349.664H603.607V350.073H603.942L603.975 350.4Z" fill="white"/>
<path d="M750.915 349.571H607.072V350.388H750.915V349.571Z" fill="white"/>
<path d="M651.915 348.718H606.963V350.914H651.915V348.718Z" fill="#EBEBEB"/>
<path d="M653.366 349.98C653.366 350.442 653.239 350.893 653.001 351.277C652.763 351.661 652.425 351.961 652.029 352.138C651.633 352.315 651.198 352.361 650.778 352.271C650.358 352.181 649.972 351.958 649.669 351.631C649.367 351.305 649.16 350.888 649.077 350.435C648.993 349.982 649.036 349.512 649.2 349.086C649.364 348.659 649.641 348.294 649.997 348.037C650.354 347.781 650.772 347.644 651.2 347.644C651.775 347.644 652.326 347.89 652.732 348.328C653.138 348.766 653.366 349.36 653.366 349.98Z" fill="#EBEBEB"/>
<path d="M695.742 256.808C695.742 256.96 676.655 257.089 653.118 257.089C629.581 257.089 610.482 256.96 610.482 256.808C610.482 256.656 629.57 256.516 653.118 256.516C676.666 256.516 695.742 256.645 695.742 256.808Z" fill="white"/>
<path d="M603.098 260.441C604.957 260.441 606.465 258.814 606.465 256.808C606.465 254.802 604.957 253.176 603.098 253.176C601.238 253.176 599.73 254.802 599.73 256.808C599.73 258.814 601.238 260.441 603.098 260.441Z" fill="white"/>
<path d="M669.163 51.8475H121.572V477.093H669.163V51.8475Z" fill="white"/>
<path d="M668.482 51.8475H120.891V83.2784H668.482V51.8475Z" fill="#E0E0E0"/>
<path d="M140.28 68.1295C140.24 68.8837 139.996 69.6086 139.578 70.2148C139.16 70.8209 138.587 71.2817 137.929 71.5402C137.271 71.7987 136.557 71.8437 135.876 71.6694C135.195 71.4952 134.576 71.1094 134.095 70.5598C133.615 70.0101 133.294 69.3207 133.173 68.5767C133.052 67.8327 133.136 67.0667 133.413 66.3733C133.691 65.6799 134.151 65.0896 134.737 64.6752C135.322 64.2608 136.007 64.0405 136.708 64.0415C137.191 64.0566 137.667 64.1744 138.108 64.388C138.55 64.6017 138.948 64.9071 139.279 65.2867C139.611 65.6664 139.87 66.1129 140.042 66.6006C140.214 67.0884 140.295 67.6079 140.28 68.1295Z" fill="#263238"/>
<path d="M153.577 68.1295C153.537 68.8832 153.293 69.6077 152.876 70.2136C152.459 70.8195 151.886 71.2803 151.229 71.5392C150.571 71.7981 149.858 71.8437 149.177 71.6704C148.496 71.4971 147.877 71.1125 147.396 70.564C146.915 70.0155 146.594 69.3272 146.471 68.5839C146.349 67.8406 146.431 67.075 146.707 66.3814C146.983 65.6878 147.442 65.0966 148.026 64.6808C148.61 64.265 149.294 64.0427 149.994 64.0415C150.478 64.0551 150.955 64.1718 151.398 64.3847C151.84 64.5977 152.239 64.9029 152.572 65.2827C152.905 65.6625 153.166 66.1095 153.338 66.598C153.51 67.0865 153.592 67.607 153.577 68.1295Z" fill="#263238"/>
<path d="M166.861 68.1295C166.82 68.8837 166.576 69.6086 166.158 70.2148C165.741 70.8209 165.167 71.2817 164.509 71.5402C163.851 71.7987 163.138 71.8437 162.456 71.6694C161.775 71.4952 161.156 71.1094 160.675 70.5598C160.195 70.0101 159.874 69.3207 159.753 68.5767C159.632 67.8327 159.716 67.0667 159.994 66.3733C160.271 65.6799 160.731 65.0896 161.317 64.6752C161.902 64.2608 162.588 64.0405 163.288 64.0415C163.772 64.0551 164.248 64.1718 164.69 64.385C165.132 64.5981 165.531 64.9034 165.863 65.2834C166.195 65.6634 166.454 66.1105 166.625 66.5989C166.796 67.0874 166.876 67.6076 166.861 68.1295Z" fill="#263238"/>
<path d="M356.987 117.127C356.987 117.349 345.024 117.524 330.278 117.524C315.532 117.524 303.568 117.349 303.568 117.127C303.568 116.905 315.478 116.718 330.278 116.718C345.078 116.718 356.987 116.893 356.987 117.127Z" fill="#263238"/>
<path d="M428.044 117.127C428.044 117.349 416.08 117.524 401.334 117.524C386.588 117.524 374.625 117.349 374.625 117.127C374.625 116.905 386.534 116.718 401.334 116.718C416.134 116.718 428.044 116.893 428.044 117.127Z" fill="#263238"/>
<path d="M499.11 117.127C499.11 117.349 487.147 117.524 472.401 117.524C457.655 117.524 445.691 117.349 445.691 117.127C445.691 116.905 457.601 116.718 472.401 116.718C487.201 116.718 499.11 116.893 499.11 117.127Z" fill="#263238"/>
<path d="M570.782 117.127C570.782 117.349 558.873 117.524 544.073 117.524C529.273 117.524 517.363 117.349 517.363 117.127C517.363 116.905 529.327 116.718 544.073 116.718C558.819 116.718 570.782 116.893 570.782 117.127Z" fill="#263238"/>
<path d="M633.058 126.833C633.058 126.833 633.513 126.833 634.335 126.588C635.546 126.235 636.622 125.479 637.41 124.427C637.99 123.659 638.404 122.761 638.623 121.799C638.835 120.619 638.901 119.413 638.818 118.213C638.666 115.655 639.348 112.373 637.324 109.897C636.851 109.286 636.271 108.783 635.617 108.416C634.963 108.049 634.247 107.826 633.513 107.76C631.986 107.76 630.265 107.76 628.608 107.76H617.781H592.88C591.828 107.782 590.802 108.122 589.92 108.742C589.038 109.361 588.334 110.235 587.889 111.264C587.431 112.314 587.215 113.468 587.261 114.628V118.237C587.192 119.378 587.257 120.524 587.456 121.647C587.702 122.697 588.186 123.664 588.863 124.462C589.482 125.215 590.263 125.793 591.137 126.144C592.048 126.402 592.991 126.5 593.93 126.436L614.274 126.518L627.991 126.646L631.726 126.728H632.69C632.917 126.728 633.025 126.728 633.025 126.728C632.914 126.744 632.801 126.744 632.69 126.728H631.726L627.991 126.81L614.274 126.938L593.93 127.02C592.925 127.101 591.915 126.998 590.942 126.716C589.928 126.351 589.016 125.717 588.29 124.871C587.528 123.983 586.984 122.902 586.709 121.729C586.566 121.126 586.494 120.506 586.492 119.884C586.492 119.288 586.492 118.716 586.492 118.108V114.674C586.436 113.39 586.674 112.11 587.185 110.948C587.685 109.789 588.477 108.806 589.471 108.11C590.464 107.414 591.62 107.033 592.804 107.012H617.706H628.532C630.243 107.012 631.867 107.012 633.48 107.012C634.278 107.089 635.054 107.335 635.763 107.736C636.473 108.137 637.103 108.685 637.616 109.348C638.586 110.607 639.128 112.185 639.153 113.822C639.153 115.305 639.153 116.718 639.153 118.038C639.224 119.275 639.137 120.517 638.893 121.729C638.646 122.737 638.191 123.671 637.562 124.462C636.724 125.53 635.582 126.269 634.314 126.565C633.911 126.724 633.487 126.814 633.058 126.833Z" fill="#263238"/>
<path d="M319.625 228.344H172.425C167.277 228.344 163.104 232.846 163.104 238.4V254.974C163.104 260.528 167.277 265.031 172.425 265.031H319.625C324.773 265.031 328.946 260.528 328.946 254.974V238.4C328.946 232.846 324.773 228.344 319.625 228.344Z" fill="#E0E0E0"/>
<path d="M120.89 51.8475L668.492 51.5555H668.773V51.8475C668.773 180.164 668.773 324.692 668.773 477V477.385H668.47L120.868 477.327H120.619V477.058C120.771 218.93 120.868 54.02 120.868 51.8008C120.868 54.02 120.976 218.953 121.117 477.058L120.868 476.789L668.47 476.719L668.167 477.058V477C668.167 324.646 668.167 180.117 668.167 51.8475L668.448 52.1512L120.89 51.8475Z" fill="#263238"/>
<path d="M621.787 304.544C621.787 304.544 621.787 303.797 621.787 302.372C621.787 300.947 621.787 298.868 621.787 296.088C621.787 290.563 621.787 282.434 621.787 272.004C621.787 251.155 621.722 221.091 621.668 184.147L621.884 184.381L425.488 184.451L425.77 184.147C425.77 226.732 425.77 267.449 425.77 304.533L425.499 304.252L566.69 304.392L607.225 304.474H618.051H620.845H621.797H618.116H607.366L566.885 304.556L425.488 304.848H425.229V304.556C425.229 267.472 425.229 226.756 425.229 184.17V183.867H425.488L621.743 183.937H621.96V184.17C621.96 221.172 621.873 251.295 621.852 272.167C621.852 282.586 621.852 290.68 621.852 296.193C621.852 298.938 621.852 301.029 621.852 302.442C621.852 303.855 621.787 304.544 621.787 304.544Z" fill="#FF725E"/>
<path d="M617.543 183.983L617.066 184.334L615.659 185.303L610.246 188.971C605.514 192.136 598.639 196.691 590.119 202.251C573.088 213.405 549.411 228.566 522.993 244.86C496.576 261.153 472.476 275.473 454.948 285.74C446.178 290.855 439.065 294.955 434.139 297.747L428.455 300.959L426.972 301.788C426.806 301.883 426.637 301.969 426.463 302.045C426.62 301.931 426.783 301.825 426.95 301.729L428.401 300.853L434.031 297.536L454.72 285.319C472.206 275.006 496.284 260.616 522.679 244.322C549.075 228.029 572.764 212.938 589.805 201.889L610.029 188.761L615.529 185.198L616.969 184.287C617.369 184.077 617.543 183.983 617.543 183.983Z" fill="#FF725E"/>
<path d="M619.524 304.544C619.448 304.685 576.38 278.077 523.351 245.128C470.322 212.179 427.383 185.327 427.459 185.186C427.535 185.046 470.593 211.642 523.632 244.603C576.672 277.564 619.6 304.393 619.524 304.544Z" fill="#FF725E"/>
<path d="M617.792 364.416C617.792 364.65 574.897 364.837 522.008 364.837C469.12 364.837 426.203 364.65 426.203 364.416C426.203 364.182 469.088 363.984 522.008 363.984C574.929 363.984 617.792 364.171 617.792 364.416Z" fill="#263238"/>
<path d="M617.792 376.937C617.792 377.171 574.897 377.358 522.008 377.358C469.12 377.358 426.203 377.171 426.203 376.937C426.203 376.703 469.088 376.505 522.008 376.505C574.929 376.505 617.792 376.703 617.792 376.937Z" fill="#263238"/>
<path d="M511.658 408.123C511.658 408.345 492.852 408.52 469.672 408.52C446.493 408.52 427.676 408.345 427.676 408.123C427.676 407.901 446.471 407.737 469.672 407.737C492.874 407.737 511.658 407.912 511.658 408.123Z" fill="#263238"/>
<path d="M593.508 393.02C593.508 393.231 556.383 393.406 510.597 393.406C464.811 393.406 427.676 393.231 427.676 393.02C427.676 392.81 464.79 392.623 510.597 392.623C556.405 392.623 593.508 392.798 593.508 393.02Z" fill="#263238"/>
<path d="M643.028 431.296C643.028 431.296 643.028 430.712 643.028 429.602C643.028 428.493 643.028 426.846 643.028 424.685C643.028 420.352 643.028 413.963 643.028 405.717C643.028 389.248 642.974 365.327 642.931 335.52L643.126 335.718L404.668 335.823L404.95 335.52C404.95 368.948 404.95 401.29 404.95 431.296L404.679 431.004L575.535 431.132L625.218 431.214H638.524H641.967H643.147H642H638.589H625.337L575.719 431.296L404.657 431.436H404.387V431.144C404.387 401.138 404.387 368.796 404.387 335.368V335.216H404.679L643.136 335.309H643.32V335.52C643.32 365.374 643.245 389.341 643.223 405.845C643.223 414.021 643.223 420.433 643.223 424.755C643.223 426.904 643.223 428.539 643.223 429.649C643.223 430.758 643.028 431.296 643.028 431.296Z" fill="#263238"/>
<path d="M171.797 130.664C178.5 130.664 183.934 125.064 183.934 118.155C183.934 111.246 178.5 105.646 171.797 105.646C165.094 105.646 159.66 111.246 159.66 118.155C159.66 125.064 165.094 130.664 171.797 130.664Z" fill="#FFC727"/>
<path d="M167.586 269.68H81.8281V334.048H167.586V269.68Z" fill="#455A64"/>
<path d="M167.575 269.679C167.672 269.82 148.574 284.466 124.939 302.383C101.305 320.301 82.0548 334.749 81.9574 334.609C81.86 334.468 100.958 319.822 124.614 301.905C148.271 283.987 167.488 269.539 167.575 269.679Z" fill="#263238"/>
<path d="M167.576 334.048L167.349 333.908L166.688 333.441L164.198 331.607L155.115 324.704L125.233 301.916L95.4598 279.035L86.4737 272.027L84.0485 270.088C83.7887 269.89 83.583 269.715 83.4206 269.574L83.2148 269.388C83.2148 269.388 83.3015 269.388 83.453 269.528L84.1135 269.995L86.6036 271.829L95.6872 278.673L125.59 301.473L155.364 324.4L164.35 331.408L166.775 333.336L167.403 333.849C167.522 333.966 167.587 334.048 167.576 334.048Z" fill="#263238"/>
<path d="M381.206 412.07H152.904V552.032H381.206V412.07Z" fill="#FAFAFA"/>
<path d="M381.218 552.032C381.218 552.032 381.218 551.168 381.218 549.521C381.218 547.874 381.218 545.409 381.218 542.209C381.218 535.785 381.218 526.348 381.164 514.177C381.164 489.941 381.099 454.983 381.056 412.024L381.272 412.257L152.981 412.327L153.263 412.024C153.263 461.535 153.263 508.874 153.263 551.985L153.003 551.705L317.243 551.833L364.393 551.915H376.963H364.458L317.362 551.985L152.949 552.125H152.656V551.845C152.656 508.734 152.656 461.395 152.656 411.884V411.58H152.959L381.251 411.65H381.467V411.884C381.413 454.901 381.38 489.918 381.348 514.177C381.348 526.289 381.348 535.703 381.294 542.116C381.294 545.304 381.294 547.734 381.294 549.38C381.294 551.027 381.218 552.032 381.218 552.032Z" fill="#263238"/>
<path d="M245.539 434.905C245.539 435.068 230.024 435.208 210.893 435.208C191.763 435.208 176.248 435.068 176.248 434.905C176.248 434.741 191.752 434.601 210.893 434.601C230.035 434.601 245.539 434.741 245.539 434.905Z" fill="#EBEBEB"/>
<path d="M281.808 448.313C281.808 448.489 266.294 448.617 247.163 448.617C228.032 448.617 212.518 448.489 212.518 448.313C212.518 448.138 228.021 448.01 247.163 448.01C266.304 448.01 281.808 448.15 281.808 448.313Z" fill="#EBEBEB"/>
<path d="M357.281 434.905C357.281 435.068 341.777 435.208 322.636 435.208C303.494 435.208 287.99 435.068 287.99 434.905C287.99 434.741 303.505 434.601 322.636 434.601C341.766 434.601 357.281 434.741 357.281 434.905Z" fill="#EBEBEB"/>
<path d="M274.998 434.893C271.888 435.194 268.764 435.295 265.643 435.197C262.522 435.295 259.399 435.194 256.289 434.893C259.399 434.592 262.522 434.491 265.643 434.589C268.764 434.491 271.888 434.592 274.998 434.893Z" fill="#EBEBEB"/>
<path d="M196.98 448.313C193.871 448.621 190.747 448.723 187.626 448.617C184.505 448.722 181.381 448.621 178.271 448.313C181.381 448.013 184.505 447.911 187.626 448.01C190.747 447.911 193.87 448.012 196.98 448.313Z" fill="#EBEBEB"/>
<path d="M308.776 447.753C305.782 448.053 302.774 448.155 299.768 448.056C296.767 448.155 293.762 448.053 290.771 447.753C293.762 447.452 296.767 447.351 299.768 447.449C302.774 447.351 305.782 447.452 308.776 447.753Z" fill="#EBEBEB"/>
<path d="M245.539 465.623C245.539 465.787 230.024 465.927 210.893 465.927C191.763 465.927 176.248 465.787 176.248 465.623C176.248 465.46 191.752 465.319 210.893 465.319C230.035 465.319 245.539 465.448 245.539 465.623Z" fill="#EBEBEB"/>
<path d="M281.808 479.032C281.808 479.207 266.294 479.336 247.163 479.336C228.032 479.336 212.518 479.207 212.518 479.032C212.518 478.857 228.021 478.728 247.163 478.728C266.304 478.728 281.808 478.88 281.808 479.032Z" fill="#EBEBEB"/>
<path d="M357.281 465.623C357.281 465.787 341.777 465.927 322.636 465.927C303.494 465.927 287.99 465.787 287.99 465.623C287.99 465.46 303.505 465.319 322.636 465.319C341.766 465.319 357.281 465.448 357.281 465.623Z" fill="#EBEBEB"/>
<path d="M274.998 465.612C271.888 465.912 268.764 466.014 265.643 465.915C262.522 466.014 259.399 465.912 256.289 465.612C259.399 465.311 262.522 465.209 265.643 465.308C268.764 465.209 271.888 465.311 274.998 465.612Z" fill="#EBEBEB"/>
<path d="M196.98 479.032C193.871 479.34 190.747 479.441 187.626 479.336C184.505 479.441 181.381 479.34 178.271 479.032C181.381 478.731 184.505 478.63 187.626 478.728C190.747 478.629 193.87 478.731 196.98 479.032Z" fill="#EBEBEB"/>
<path d="M308.776 478.471C305.782 478.772 302.774 478.873 299.768 478.775C296.767 478.873 293.762 478.772 290.771 478.471C293.761 478.163 296.767 478.062 299.768 478.168C302.774 478.062 305.783 478.164 308.776 478.471Z" fill="#EBEBEB"/>
<path d="M246.177 518.872C246.177 519.047 230.674 519.176 211.532 519.176C192.391 519.176 176.887 519.047 176.887 518.872C176.887 518.697 192.401 518.569 211.532 518.569C230.663 518.569 246.177 518.709 246.177 518.872Z" fill="#EBEBEB"/>
<path d="M282.447 532.293C282.447 532.456 266.932 532.596 247.802 532.596C228.671 532.596 213.156 532.456 213.156 532.293C213.156 532.129 228.671 531.989 247.802 531.989C266.932 531.989 282.447 532.129 282.447 532.293Z" fill="#EBEBEB"/>
<path d="M357.92 518.872C357.92 519.047 342.405 519.176 323.274 519.176C304.144 519.176 288.629 519.047 288.629 518.872C288.629 518.697 304.133 518.569 323.274 518.569C342.416 518.569 357.92 518.709 357.92 518.872Z" fill="#EBEBEB"/>
<path d="M275.626 518.872C272.517 519.173 269.393 519.274 266.272 519.176C263.151 519.275 260.028 519.173 256.918 518.872C260.027 518.564 263.151 518.463 266.272 518.569C269.393 518.463 272.517 518.565 275.626 518.872Z" fill="#EBEBEB"/>
<path d="M197.63 532.293C194.521 532.593 191.397 532.695 188.276 532.596C185.155 532.695 182.032 532.593 178.922 532.293C182.032 531.992 185.155 531.891 188.276 531.989C191.397 531.891 194.521 531.992 197.63 532.293Z" fill="#EBEBEB"/>
<path d="M309.415 531.72C306.425 532.028 303.42 532.129 300.418 532.024C297.412 532.13 294.404 532.028 291.41 531.72C294.404 531.419 297.412 531.318 300.418 531.417C303.42 531.318 306.425 531.42 309.415 531.72Z" fill="#EBEBEB"/>
<path d="M245.539 494.508C245.539 494.671 230.024 494.811 210.893 494.811C191.763 494.811 176.248 494.671 176.248 494.508C176.248 494.344 191.752 494.204 210.893 494.204C230.035 494.204 245.539 494.333 245.539 494.508Z" fill="#EBEBEB"/>
<path d="M281.808 507.916C281.808 508.08 266.294 508.22 247.163 508.22C228.032 508.22 212.518 508.08 212.518 507.916C212.518 507.753 228.021 507.613 247.163 507.613C266.304 507.613 281.808 507.753 281.808 507.916Z" fill="#EBEBEB"/>
<path d="M357.281 494.508C357.281 494.671 341.777 494.811 322.636 494.811C303.494 494.811 287.99 494.671 287.99 494.508C287.99 494.344 303.505 494.204 322.636 494.204C341.766 494.204 357.281 494.333 357.281 494.508Z" fill="#EBEBEB"/>
<path d="M274.998 494.496C271.888 494.797 268.764 494.898 265.643 494.8C262.522 494.898 259.399 494.797 256.289 494.496C259.398 494.188 262.522 494.087 265.643 494.192C268.764 494.087 271.888 494.188 274.998 494.496Z" fill="#EBEBEB"/>
<path d="M196.98 507.916C193.87 508.218 190.747 508.319 187.626 508.22C184.505 508.319 181.381 508.217 178.271 507.916C181.381 507.616 184.505 507.514 187.626 507.613C190.747 507.514 193.87 507.615 196.98 507.916Z" fill="#EBEBEB"/>
<path d="M308.776 507.356C305.782 507.656 302.774 507.758 299.768 507.66C296.767 507.758 293.762 507.657 290.771 507.356C293.761 507.048 296.767 506.947 299.768 507.052C302.774 506.947 305.783 507.048 308.776 507.356Z" fill="#EBEBEB"/>
<path d="M232.99 466.686V492.207H228.595V481.216H216.36V492.16H211.965V466.686H216.36V477.198H228.595V466.686H232.99Z" fill="#263238"/>
<path d="M244.131 470.704H236.293V466.698H256.376V470.704H248.527V492.219H244.131V470.704Z" fill="#263238"/>
<path d="M281.407 492.207V475.283L273.633 489.299H271.641L263.868 475.516V492.219H259.678V466.686H263.294L272.691 483.552L281.916 466.639H285.532V492.16L281.407 492.207Z" fill="#263238"/>
<path d="M291.953 466.686H296.349V488.224H308.713V492.242H291.953V466.686Z" fill="#263238"/>
<path d="M226.452 181.636L214.326 174.978C214.072 166.451 210.871 158.335 205.353 152.225C199.834 146.114 192.397 142.452 184.502 141.956C176.607 141.461 168.826 144.17 162.689 149.549C156.551 154.928 152.5 162.589 151.332 171.027C150.164 179.465 151.964 188.069 156.377 195.148C160.79 202.227 167.498 207.269 175.183 209.284C182.867 211.298 190.972 210.139 197.905 206.035C204.837 201.93 210.096 195.177 212.648 187.102L226.452 181.636Z" fill="white"/>
<path d="M226.451 181.636L212.69 187.254C212.674 187.263 212.656 187.269 212.638 187.27C212.62 187.271 212.602 187.267 212.585 187.259C212.568 187.251 212.553 187.239 212.542 187.224C212.53 187.209 212.521 187.191 212.517 187.172C212.512 187.149 212.512 187.125 212.517 187.102H212.788C211.008 192.832 207.851 197.951 203.639 201.935C202.384 203.138 201.028 204.213 199.59 205.147C198.843 205.626 198.107 206.129 197.316 206.584L194.88 207.904C187.353 211.245 178.929 211.366 171.322 208.243C167.1 206.52 163.268 203.844 160.083 200.394C156.74 196.731 154.189 192.316 152.613 187.464C150.944 182.415 150.41 177.011 151.054 171.696C151.707 166.24 153.563 161.033 156.467 156.512C159.25 152.214 162.895 148.649 167.132 146.082C171.12 143.647 175.555 142.184 180.124 141.795C188.343 141.129 196.485 143.902 202.86 149.539C205.528 151.964 207.833 154.821 209.691 158.007C212.623 163.12 214.247 168.98 214.401 174.99L214.325 174.861L226.386 181.647L214.195 175.118C214.173 175.106 214.156 175.088 214.144 175.065C214.132 175.042 214.128 175.016 214.13 174.99C213.93 169.049 212.287 163.269 209.366 158.229C207.508 155.098 205.219 152.29 202.578 149.901C196.264 144.378 188.228 141.678 180.124 142.356C175.621 142.738 171.252 144.186 167.327 146.596C163.165 149.124 159.584 152.629 156.846 156.851C154.022 161.278 152.215 166.366 151.574 171.696C150.92 176.924 151.428 182.245 153.057 187.219C154.604 191.991 157.111 196.334 160.397 199.938C163.52 203.337 167.282 205.973 171.43 207.67C178.918 210.762 187.215 210.67 194.642 207.413L197.067 206.245C197.836 205.79 198.572 205.299 199.319 204.832C200.738 203.911 202.079 202.855 203.325 201.679C207.513 197.761 210.669 192.721 212.474 187.067C212.486 187.03 212.511 187 212.543 186.983C212.575 186.965 212.612 186.962 212.647 186.973C212.677 186.986 212.703 187.008 212.721 187.038C212.738 187.067 212.746 187.102 212.744 187.137L212.549 186.985L226.451 181.636Z" fill="#263238"/>
<path d="M189.858 183.563C189.999 183.345 190.162 183.145 190.345 182.967L191.763 181.425C192.965 180.152 194.643 178.389 196.516 176.473V176.73C194.632 174.85 192.943 173.121 191.731 171.871L190.312 170.364C190.13 170.187 189.963 169.991 189.814 169.78C189.814 169.78 190.042 169.932 190.399 170.259L191.893 171.684C193.138 172.852 194.86 174.581 196.744 176.473L196.863 176.602L196.744 176.73C194.871 178.646 193.171 180.374 191.926 181.612L190.442 183.061C190.266 183.252 190.07 183.42 189.858 183.563Z" fill="#263238"/>
<path d="M189.856 183.715C189.825 183.726 189.79 183.726 189.759 183.715C189.661 183.598 189.694 183.551 190.246 182.92L191.664 181.39C192.888 180.082 194.501 178.4 196.233 176.613C194.523 174.908 192.92 173.273 191.675 171.941L190.257 170.435C189.716 169.851 189.651 169.769 189.759 169.64C189.867 169.512 189.932 169.64 190.528 170.119L192.022 171.544C193.299 172.712 194.934 174.394 196.666 176.123L196.85 176.31L197.088 176.543L196.807 176.824L196.677 176.964C194.912 178.774 193.256 180.468 192.011 181.636L190.549 183.177C190.105 183.575 189.943 183.715 189.856 183.715ZM196.428 176.707L192.779 180.503C193.862 179.428 195.129 178.167 196.471 176.753L196.428 176.707ZM192.812 172.642C193.895 173.74 195.129 174.978 196.428 176.31C195.161 175.001 193.895 173.752 192.812 172.689V172.642Z" fill="#263238"/>
<path d="M175.327 169.734C175.191 169.956 175.027 170.157 174.84 170.329L173.432 171.86C172.219 173.144 170.541 174.896 168.679 176.824V176.567C170.563 178.447 172.252 180.164 173.465 181.425L174.883 182.932C175.218 183.283 175.392 183.493 175.37 183.516C175.167 183.37 174.975 183.206 174.796 183.026L173.226 181.659C171.97 180.491 170.26 178.751 168.376 176.87L168.246 176.742L168.376 176.613C170.238 174.686 171.949 172.969 173.194 171.731L174.677 170.271C174.873 170.065 175.091 169.885 175.327 169.734Z" fill="#263238"/>
<path d="M175.392 183.715C175.306 183.715 175.154 183.586 174.721 183.189L173.227 181.764C171.971 180.596 170.325 178.938 168.582 177.186L168.398 176.999L168.16 176.765L168.431 176.485L168.572 176.345C170.336 174.534 171.982 172.841 173.227 171.614L174.721 170.166C175.306 169.617 175.371 169.559 175.479 169.675C175.587 169.792 175.479 169.886 174.992 170.481L173.573 172.011C172.361 173.308 170.748 174.99 169.015 176.777C170.737 178.517 172.35 180.152 173.563 181.449L174.992 182.955C175.533 183.551 175.587 183.61 175.49 183.738C175.456 183.742 175.421 183.734 175.392 183.715ZM168.777 176.975C170.098 178.307 171.354 179.545 172.437 180.596L168.821 176.94L168.777 176.975ZM168.766 176.496C170.098 175.13 171.365 173.822 172.426 172.7C171.332 173.822 170.055 175.118 168.712 176.496H168.766Z" fill="#263238"/>
<path d="M179.062 186.88C178.975 186.88 180.502 182.208 182.462 176.543C184.421 170.878 186.099 166.311 186.175 166.347C186.251 166.382 184.735 171.019 182.776 176.672C180.816 182.325 179.149 186.88 179.062 186.88Z" fill="#263238"/>
<path d="M179.074 186.973H179.009C178.847 186.915 178.825 186.903 179.864 183.738C180.514 181.788 181.391 179.206 182.344 176.461C183.296 173.717 184.195 171.147 184.899 169.22C186.036 166.101 186.068 166.101 186.231 166.171C186.393 166.241 186.415 166.241 185.375 169.407C184.726 171.357 183.849 173.95 182.896 176.683C181.943 179.416 181.045 181.998 180.341 183.937C179.345 186.623 179.204 186.973 179.074 186.973ZM184.65 170.703C184.076 172.303 183.383 174.277 182.593 176.543C181.802 178.809 181.131 180.795 180.59 182.383C181.164 180.795 181.857 178.879 182.647 176.543C183.437 174.207 184.109 172.315 184.65 170.703Z" fill="#263238"/>
<path d="M731.883 552.032C731.883 552.195 583.558 552.336 400.587 552.336C217.616 552.336 69.291 552.195 69.291 552.032C69.291 551.868 217.616 551.728 400.587 551.728C583.558 551.728 731.883 551.868 731.883 552.032Z" fill="#263238"/>
<path d="M263.217 148.021C263.672 144.922 265.06 142.07 267.168 139.908C269.276 137.746 271.985 136.394 274.877 136.06C276.398 136.091 277.916 135.906 279.392 135.511C280.515 134.926 281.601 134.259 282.64 133.514C284.431 132.529 286.481 132.234 288.449 132.675C290.418 133.117 292.187 134.27 293.467 135.943C295.783 139.144 296.715 134.694 302.193 138.198C306.729 141.106 304.358 145.206 304.358 145.206C306.707 145.169 308.995 146.013 310.831 147.594C312.667 149.174 313.938 151.393 314.427 153.872C314.968 157.026 314.373 160.88 316.646 162.913C317.729 163.917 319.288 164.186 320.436 165.143C322.547 166.907 322.601 170.318 322.146 173.156C321.692 175.994 320.847 178.996 321.822 181.682C323.424 186.097 329.249 187.838 329.963 192.51C330.299 194.717 329.444 197.369 330.862 198.992C331.503 199.579 332.236 200.038 333.027 200.347C334.55 201.154 335.837 202.398 336.749 203.941C337.661 205.485 338.162 207.269 338.198 209.098C338.234 210.928 337.803 212.734 336.952 214.317C336.101 215.9 334.863 217.201 333.374 218.077C332.551 218.568 331.566 219.012 331.208 219.969C330.851 220.927 331.511 222.142 331.977 223.158C332.849 225.028 333.131 227.154 332.778 229.213C332.425 231.271 331.458 233.148 330.024 234.558C328.589 235.968 326.767 236.832 324.834 237.02C322.902 237.208 320.965 236.708 319.321 235.597C317.543 238.99 314.611 241.503 311.146 242.605C309.574 243.164 307.883 243.213 306.285 242.745C305.046 242.257 303.911 241.502 302.951 240.526C298.219 236.076 291.583 229.267 291.139 222.516" fill="#263238"/>
<path d="M372.436 227.655L344.07 255.687C340.551 254.811 297.364 226.954 297.364 226.954L290.564 262.8C290.564 262.8 334.77 284.723 346.928 282.072C348.92 281.628 352.179 281.36 354.225 278.568C363.969 265.078 384.605 231.696 384.605 231.696L372.436 227.655Z" fill="#FFBE9D"/>
<path d="M386.176 196.808C384.303 197.637 377.612 209.808 377.612 209.808L375.934 209.901C375.205 209.943 374.492 210.147 373.839 210.499C373.186 210.851 372.607 211.344 372.138 211.947C371.669 212.551 371.319 213.252 371.112 214.007C370.905 214.762 370.843 215.555 370.932 216.337C371.484 221.406 372.469 227.655 372.469 227.655L381.824 232.257L384.606 231.626C387.183 231.486 389.695 225.786 391.286 221.838C392.878 217.89 390.268 217.061 390.268 217.061C390.268 213.102 387.161 213.884 387.161 213.884C387.153 213.421 387.059 212.964 386.886 212.54C386.713 212.116 386.464 211.733 386.153 211.414C385.841 211.095 385.475 210.845 385.074 210.68C384.672 210.514 384.245 210.436 383.816 210.45C383.816 210.45 387.962 202.274 388.774 199.366C389.586 196.458 388.049 195.99 386.176 196.808Z" fill="#FFBE9D"/>
<path d="M386.977 213.884C386.708 214.76 386.383 215.615 386.002 216.442C385.834 216.876 385.638 217.298 385.418 217.703C385.136 218.164 384.793 218.577 384.4 218.93C383.96 219.337 383.437 219.625 382.873 219.771C382.558 219.833 382.235 219.823 381.924 219.742C381.612 219.662 381.32 219.513 381.065 219.304C380.805 219.072 380.619 218.757 380.535 218.404C380.47 218.069 380.47 217.723 380.535 217.388C380.646 216.802 380.806 216.227 381.011 215.671C381.343 214.729 381.733 213.812 382.18 212.926C382.476 212.333 382.805 211.759 383.166 211.209C383.28 210.991 383.426 210.794 383.599 210.625C383.653 210.625 383.101 211.536 382.408 213.055C381.997 213.946 381.635 214.862 381.325 215.8C381.137 216.339 380.988 216.893 380.881 217.458C380.822 217.733 380.831 218.019 380.909 218.289C380.987 218.558 381.131 218.799 381.325 218.988C381.54 219.161 381.785 219.285 382.046 219.351C382.306 219.418 382.577 219.425 382.841 219.374C383.342 219.246 383.809 218.994 384.205 218.638C384.582 218.304 384.911 217.91 385.179 217.47C385.409 217.098 385.612 216.707 385.786 216.302C386.126 215.465 386.524 214.657 386.977 213.884Z" fill="#EB996E"/>
<path d="M390.16 216.5C390.139 216.74 390.088 216.976 390.008 217.201C389.838 217.826 389.632 218.438 389.391 219.035C389.047 219.946 388.568 220.79 387.973 221.535C387.623 221.996 387.178 222.364 386.674 222.609C386.391 222.77 386.071 222.838 385.753 222.805C385.435 222.772 385.133 222.639 384.885 222.423C384.636 222.207 384.451 221.917 384.354 221.589C384.256 221.261 384.25 220.909 384.335 220.577C384.426 220.002 384.572 219.438 384.768 218.895C385.056 217.983 385.392 217.09 385.775 216.22C386.1 215.473 386.392 214.877 386.609 214.48C386.7 214.261 386.825 214.059 386.977 213.884C387.031 213.884 386.598 214.819 386.013 216.325C385.721 217.084 385.396 217.996 385.093 219.012C384.908 219.531 384.777 220.072 384.703 220.624C384.627 220.886 384.625 221.166 384.698 221.429C384.77 221.693 384.914 221.927 385.111 222.101C385.307 222.275 385.548 222.383 385.801 222.409C386.055 222.435 386.309 222.378 386.533 222.247C386.99 222.02 387.396 221.689 387.724 221.278C388.31 220.584 388.792 219.796 389.153 218.942C389.759 217.447 390.106 216.477 390.16 216.5Z" fill="#EB996E"/>
<path d="M391.817 219.432C391.819 220.08 391.693 220.721 391.449 221.313C391.231 221.976 390.944 222.611 390.594 223.205C390.392 223.568 390.153 223.905 389.879 224.209C389.716 224.39 389.514 224.526 389.292 224.605C389.07 224.684 388.833 224.705 388.602 224.665C388.37 224.596 388.163 224.455 388.005 224.26C387.847 224.065 387.746 223.824 387.714 223.567C387.658 223.134 387.68 222.694 387.779 222.27C387.934 221.588 388.167 220.929 388.472 220.308C388.718 219.726 388.996 219.16 389.306 218.615C389.19 219.246 388.989 219.856 388.71 220.425C388.449 221.043 388.249 221.689 388.115 222.352C388.051 222.738 388.051 223.134 388.115 223.52C388.136 223.701 388.205 223.871 388.312 224.011C388.419 224.152 388.561 224.257 388.721 224.314C388.895 224.342 389.073 224.324 389.239 224.261C389.405 224.197 389.554 224.092 389.674 223.952C389.93 223.678 390.155 223.372 390.345 223.041C390.698 222.473 391.002 221.871 391.254 221.243C391.633 220.145 391.763 219.42 391.817 219.432Z" fill="#EB996E"/>
<path d="M375.934 209.901C378.69 209.776 381.451 209.803 384.205 209.983C384.403 210.732 384.345 211.532 384.044 212.239C383.742 212.946 383.215 213.513 382.56 213.837C381.226 214.436 379.773 214.661 378.337 214.491C378.888 215.048 379.325 215.722 379.62 216.471C379.915 217.22 380.061 218.028 380.05 218.841C380.039 219.655 379.87 220.458 379.555 221.197C379.239 221.936 378.784 222.596 378.218 223.135" fill="#FFBE9D"/>
<path d="M378.218 223.088C378.792 222.427 379.251 221.659 379.571 220.822C379.95 219.756 380.023 218.591 379.781 217.48C379.54 216.368 378.996 215.359 378.218 214.585L377.872 214.234H378.348C379.624 214.367 380.911 214.208 382.126 213.767C383.588 213.16 384.573 211.361 384.043 209.995L384.194 210.111C381.78 209.913 379.712 209.913 378.25 209.89H376.551C376.346 209.919 376.138 209.919 375.934 209.89C376.132 209.836 376.335 209.809 376.54 209.808C376.94 209.808 377.514 209.738 378.25 209.714C379.712 209.714 381.78 209.621 384.216 209.784H384.324V209.901C384.466 210.31 384.52 210.749 384.483 211.184C384.445 211.618 384.317 212.039 384.108 212.412C383.685 213.213 383.025 213.838 382.235 214.188C380.964 214.65 379.617 214.813 378.283 214.667L378.413 214.34C379.328 215.267 379.924 216.503 380.102 217.844C380.242 218.892 380.114 219.962 379.734 220.939C379.473 221.578 379.106 222.16 378.651 222.656C378.528 222.823 378.382 222.969 378.218 223.088Z" fill="#EB996E"/>
<path d="M321.778 529.922C321.987 529.621 322.131 529.274 322.201 528.905C322.474 527.93 322.552 526.902 322.428 525.892C322.401 525.539 322.324 525.192 322.201 524.864C322.13 524.652 322.007 524.465 321.844 524.323C321.682 524.181 321.487 524.089 321.28 524.058C321.154 524.043 321.027 524.058 320.907 524.103C320.787 524.147 320.678 524.22 320.587 524.315C320.426 524.505 320.327 524.747 320.306 525.004C320.273 525.424 320.273 525.846 320.306 526.266C320.371 527.118 320.371 527.924 320.49 528.917C320.531 529.2 320.643 529.465 320.812 529.685C320.982 529.905 321.204 530.071 321.454 530.167C321.928 530.317 322.43 530.341 322.915 530.237C323.789 530.067 324.642 529.793 325.459 529.419C325.849 529.24 326.228 529.038 326.596 528.812C326.988 528.609 327.338 528.323 327.625 527.971C327.787 527.761 327.876 527.497 327.876 527.224C327.876 526.95 327.787 526.686 327.625 526.476C327.458 526.315 327.257 526.202 327.04 526.147C326.822 526.091 326.595 526.096 326.38 526.161C325.743 526.342 325.132 526.613 324.561 526.967C323.735 527.448 322.977 528.053 322.309 528.765C321.843 529.268 321.638 529.606 321.67 529.63C322.629 528.776 323.662 528.025 324.756 527.387C325.299 527.086 325.873 526.855 326.466 526.698C326.77 526.698 327.094 526.698 327.213 526.861C327.284 526.975 327.316 527.112 327.304 527.248C327.292 527.384 327.237 527.511 327.148 527.609C326.896 527.879 326.603 528.1 326.282 528.263C325.936 528.462 325.568 528.648 325.2 528.824C324.419 529.171 323.606 529.425 322.774 529.583C322.398 529.684 322.004 529.684 321.627 529.583C321.472 529.529 321.335 529.427 321.233 529.29C321.131 529.153 321.068 528.987 321.053 528.812C320.934 528.006 320.912 527.072 320.836 526.266C320.793 525.878 320.775 525.488 320.782 525.098C320.782 524.771 320.956 524.607 321.172 524.631C321.681 524.631 321.854 525.39 321.941 525.985C322.123 527.296 322.068 528.633 321.778 529.922Z" fill="#263238"/>
<path d="M367.867 482.968C367.945 482.603 367.945 482.223 367.867 481.858C367.692 480.849 367.323 479.89 366.784 479.043C366.618 478.742 366.41 478.471 366.167 478.238C366.017 478.079 365.83 477.968 365.626 477.917C365.422 477.866 365.208 477.875 365.009 477.946C364.889 477.991 364.78 478.066 364.69 478.163C364.6 478.26 364.532 478.377 364.489 478.506C364.418 478.749 364.418 479.011 364.489 479.254C364.635 479.661 364.816 480.052 365.03 480.422C365.431 481.158 365.756 481.882 366.275 482.758C366.429 482.99 366.638 483.174 366.879 483.291C367.121 483.408 367.387 483.454 367.65 483.424C368.138 483.336 368.596 483.115 368.982 482.781C370.05 481.954 370.974 480.93 371.71 479.756C371.973 479.385 372.171 478.965 372.295 478.518C372.359 478.253 372.334 477.971 372.226 477.724C372.117 477.476 371.931 477.278 371.7 477.163C371.488 477.093 371.263 477.083 371.047 477.135C370.831 477.186 370.631 477.296 370.465 477.455C369.966 477.924 369.525 478.462 369.155 479.055C368.615 479.882 368.185 480.786 367.878 481.742C367.736 482.08 367.659 482.445 367.65 482.816C368.169 481.591 368.789 480.418 369.502 479.312C369.866 478.784 370.287 478.306 370.758 477.887C370.854 477.788 370.972 477.717 371.101 477.68C371.23 477.643 371.365 477.642 371.494 477.677C371.601 477.745 371.683 477.85 371.726 477.976C371.77 478.101 371.772 478.239 371.732 478.366C371.624 478.731 371.455 479.071 371.234 479.371C371.004 479.725 370.754 480.064 370.487 480.387C369.935 481.074 369.31 481.689 368.625 482.22C368.311 482.491 367.938 482.672 367.542 482.746C367.381 482.769 367.216 482.742 367.068 482.667C366.921 482.593 366.796 482.474 366.709 482.326C366.275 481.66 365.864 480.831 365.474 480.141C365.275 479.819 365.102 479.479 364.955 479.125C364.846 478.81 364.955 478.611 365.106 478.518C365.583 478.308 366.037 478.88 366.351 479.371C367.058 480.458 367.572 481.678 367.867 482.968Z" fill="#263238"/>
<path d="M335.766 494.368L322.558 525.261L301.24 514.632L314.903 476.404L335.766 494.368Z" fill="#FFBE9D"/>
<path d="M325.058 523.194L317.339 539.079C317.339 539.079 337.098 561.119 335.235 566.036L288.789 542.01L301.554 510.171L325.058 523.194Z" fill="#455A64"/>
<path d="M303.936 529.478C303.424 529.393 302.901 529.515 302.467 529.821C302.033 530.127 301.72 530.596 301.587 531.136C301.491 531.693 301.6 532.268 301.891 532.74C302.182 533.211 302.632 533.541 303.146 533.659C303.69 533.747 304.244 533.614 304.702 533.286C305.16 532.958 305.489 532.458 305.625 531.884C305.656 531.304 305.485 530.733 305.147 530.282C304.809 529.831 304.327 529.532 303.796 529.443" fill="#E0E0E0"/>
<g opacity="0.6">
<path d="M288.789 542.01L290.727 538.016L334.532 562.544C334.532 562.544 336.167 564.588 335.235 566.048L288.789 542.01Z" fill="white"/>
</g>
<path d="M318.205 539.207C318.086 539.452 316.906 538.974 315.433 539.207C313.961 539.441 312.921 540.142 312.748 539.931C312.575 539.721 313.549 538.483 315.336 538.273C317.122 538.062 318.302 539.009 318.205 539.207Z" fill="#263238"/>
<path d="M322.103 543.903C322.049 544.171 320.891 544.078 319.656 544.708C318.422 545.339 317.718 546.332 317.491 546.204C317.264 546.075 317.74 544.615 319.288 543.868C320.837 543.12 322.201 543.669 322.103 543.903Z" fill="#263238"/>
<path d="M322.083 551.623C321.855 551.623 322.083 550.186 323.252 549.147C324.421 548.107 325.731 548.119 325.731 548.376C325.731 548.633 324.768 549.007 323.815 549.871C322.862 550.735 322.31 551.716 322.083 551.623Z" fill="#263238"/>
<path d="M320.47 533.087C320.275 533.262 319.387 532.386 318.066 531.825C316.745 531.265 315.543 531.171 315.522 530.903C315.5 530.634 316.843 530.249 318.391 530.903C319.939 531.557 320.61 532.958 320.47 533.087Z" fill="#263238"/>
<path d="M336.071 504.973L369.72 414.64C369.72 414.64 368.94 398.592 366.201 393.534C363.462 388.477 280.508 358.915 280.508 358.915C280.508 358.915 259.374 353.425 245.289 358.915C231.203 364.404 220.637 383.443 222.553 393.955C224.469 404.467 232.773 412.304 232.773 412.304L293.771 414.266L327.03 427.348L304.662 496.528C304.662 496.528 316.139 510.042 336.071 504.973Z" fill="#263238"/>
<path d="M365.866 444.412L366.656 478.413L343.184 479.032L339.795 438.222L365.866 444.412Z" fill="#FFBE9D"/>
<path d="M368.106 475.376L367.673 493.305C367.673 493.305 394.425 503.665 394.739 508.968L343.237 509.54L341.656 474.874L368.106 475.376Z" fill="#455A64"/>
<path d="M351.671 491.062C351.183 491.243 350.771 491.606 350.509 492.086C350.247 492.565 350.152 493.13 350.242 493.678C350.382 494.215 350.707 494.673 351.149 494.96C351.592 495.246 352.12 495.339 352.624 495.22C353.147 495.039 353.589 494.657 353.867 494.146C354.144 493.636 354.238 493.032 354.129 492.452C353.93 491.909 353.544 491.469 353.052 491.225C352.559 490.982 351.999 490.952 351.487 491.144" fill="#E0E0E0"/>
<g opacity="0.6">
<path d="M343.205 509.54L343.303 505.031L392.65 506.199C392.65 506.199 394.957 507.251 394.708 508.991L343.205 509.54Z" fill="white"/>
</g>
<path d="M368.453 493.013C368.453 493.281 367.197 493.422 365.963 494.309C364.729 495.197 364.09 496.342 363.852 496.236C363.614 496.131 363.982 494.555 365.487 493.515C366.991 492.475 368.507 492.756 368.453 493.013Z" fill="#263238"/>
<path d="M373.878 495.36C373.943 495.617 372.86 496.096 372.015 497.253C371.171 498.409 370.933 499.589 370.684 499.589C370.435 499.589 370.261 498.035 371.333 496.622C372.405 495.209 373.878 495.103 373.878 495.36Z" fill="#263238"/>
<path d="M377.016 502.298C376.789 502.368 376.421 501.014 377.016 499.519C377.612 498.024 378.813 497.416 378.922 497.65C379.03 497.883 378.315 498.678 377.839 499.904C377.363 501.13 377.265 502.24 377.016 502.298Z" fill="#263238"/>
<path d="M367.944 486.46C367.836 486.717 366.677 486.355 365.259 486.46C363.841 486.565 362.736 487.079 362.607 486.846C362.477 486.612 363.527 485.678 365.205 485.514C366.883 485.351 368.106 486.25 367.944 486.46Z" fill="#263238"/>
<path d="M352.159 349.991C352.159 349.991 366.233 348.823 367.792 365.245C369.351 381.667 370.889 458.533 370.889 458.533L338.03 461.488L332.941 382.975L280.508 358.915C280.508 358.915 342.772 347.889 352.159 349.991Z" fill="#263238"/>
<path d="M294.182 327.776C294.182 327.776 302.724 353.6 301.1 356.474C299.476 359.347 277.519 371.19 277.519 371.19L222.596 393.955C222.596 393.955 216.955 384.272 216.955 369.427C216.955 354.581 236.021 327.776 236.021 327.776H294.182Z" fill="#263238"/>
<path d="M277.908 357.595C277.908 357.595 277.984 357.595 278.157 357.747L278.937 358.132L281.979 359.592L293.401 364.965L332.821 383.268L332.648 382.999C333.146 390.754 333.676 399.129 334.239 407.796C335.571 428.06 336.805 446.737 337.78 461.523V461.792H338.018L361.966 459.526L368.56 458.86L370.281 458.662C370.479 458.658 370.676 458.626 370.866 458.568H370.281L368.549 458.685L361.945 459.199L337.985 461.243L338.245 461.488C337.303 446.702 336.08 428.025 334.824 407.76C334.261 399.094 333.741 390.719 333.211 382.964V382.765L333.038 382.695L293.542 364.603L282.055 359.405L278.969 358.05L278.168 357.712C278.088 357.658 278 357.619 277.908 357.595Z" fill="#455A64"/>
<path d="M234.223 360.176C234.749 360.085 235.265 359.933 235.76 359.721L239.896 358.284C244.412 356.633 249.042 355.372 253.743 354.511C258.438 353.684 263.231 353.752 267.904 354.71C269.827 355.194 271.724 355.787 273.588 356.485C273.141 356.167 272.662 355.905 272.159 355.703C270.814 355.094 269.423 354.609 268.002 354.254C263.283 353.146 258.411 353.011 253.646 353.857C248.91 354.714 244.26 356.048 239.755 357.84C238.023 358.506 236.637 359.078 235.684 359.487C235.177 359.663 234.687 359.894 234.223 360.176Z" fill="#455A64"/>
<path d="M241.986 346.569C243.584 346.464 245.185 346.464 246.783 346.569C248.266 346.674 250.031 346.919 251.99 347.165C253.95 347.41 256.093 347.702 258.313 348.157C262.127 348.816 265.783 350.276 269.075 352.456C270.388 353.443 271.636 354.528 272.81 355.703C272.598 355.29 272.327 354.916 272.009 354.593C271.201 353.65 270.301 352.804 269.324 352.07C266.036 349.729 262.323 348.172 258.432 347.503C256.18 347.048 254.015 346.779 252.044 346.557C250.074 346.335 248.309 346.149 246.815 346.102C245.626 346.039 244.433 346.094 243.253 346.265C242.819 346.297 242.392 346.4 241.986 346.569Z" fill="#455A64"/>
<path d="M295.566 226.055C299.438 227.667 302.664 230.692 304.682 234.604C308.115 241.145 307.194 244.381 306.306 248.247C305.419 252.113 303.827 259.787 303.741 259.296C303.654 258.805 295.566 226.055 295.566 226.055Z" fill="#FFBE9D"/>
<path d="M295.155 226.043L287.955 221.441L247.355 220.285L261.03 268.663L285.758 285.471L300.417 277.552L301.879 259.973L295.155 226.043Z" fill="#FFBE9D"/>
<path d="M295.567 226.055C295.567 226.055 304.9 258.362 304.684 267.612C304.467 276.863 300.916 303.143 301.327 308.317C301.739 313.491 300.061 327.776 294.203 327.776H236.021C236.021 327.776 222.899 323.863 222.325 315.348C221.751 306.834 232.426 234.044 232.426 234.044C232.426 234.044 239.875 221.92 244.682 220.857C249.489 219.794 258.41 217.61 261.626 228.344C264.841 239.078 265.892 244.579 272.745 251.984C279.598 259.389 289.375 267.694 289.375 267.694C289.375 267.694 297.256 260.581 297.603 250.956C297.949 241.332 294.626 225.739 294.626 225.739L295.567 226.055Z" fill="#FFC727"/>
<path d="M286.906 328.477C287.757 328.245 288.545 327.797 289.201 327.168C290.857 325.741 292.186 323.923 293.088 321.854C293.981 319.808 294.646 317.656 295.07 315.442C295.321 314.551 295.456 313.627 295.47 312.697C295.111 313.539 294.835 314.42 294.647 315.325C294.107 317.463 293.405 319.549 292.547 321.562C291.668 323.546 290.44 325.327 288.931 326.806C287.783 327.916 286.906 328.371 286.906 328.477Z" fill="#263238"/>
<path d="M256.17 288.426C256.454 288.77 256.782 289.069 257.144 289.314C258.086 290.053 259.094 290.687 260.154 291.206C261.726 291.998 263.397 292.541 265.113 292.818C267.226 293.147 269.378 293.048 271.457 292.526C275.214 291.489 278.632 289.351 281.331 286.347C282.145 285.454 282.902 284.502 283.594 283.497C283.868 283.142 284.098 282.749 284.276 282.329C284.189 282.247 283.139 283.847 281.028 285.996C278.305 288.822 274.947 290.835 271.284 291.836C267.607 292.741 263.758 292.361 260.295 290.75C257.675 289.559 256.235 288.321 256.17 288.426Z" fill="#263238"/>
<path d="M287.654 327.309C287.773 327.425 288.574 326.433 288.845 324.891C289.115 323.349 288.736 322.111 288.585 322.169C288.422 323.025 288.31 323.891 288.249 324.762C287.989 326.164 287.502 327.215 287.654 327.309Z" fill="#263238"/>
<g opacity="0.3">
<path d="M295.566 313.678C295.984 316.061 295.822 318.52 295.095 320.815C294.368 323.11 293.102 325.162 291.42 326.771C291.097 327.158 290.687 327.448 290.23 327.613C289.773 327.779 289.284 327.815 288.811 327.717C292.085 323.596 294.381 318.678 295.501 313.386" fill="black"/>
</g>
<path d="M216.955 269.458L246.241 284.279C246.241 284.279 258.151 255.78 259.233 251.879C260.316 247.978 263.477 241.823 260.175 233.693C256.873 225.564 248.558 221.044 243.037 223.181C230.099 228.029 216.955 269.458 216.955 269.458Z" fill="#FFC727"/>
<path d="M301.88 269.364C303.244 269.364 318.954 278.229 318.954 278.229L327.897 246.273C314.537 236.672 300.895 226.685 293.078 224.419L299.899 249.847L301.88 269.364Z" fill="#FFC727"/>
<path d="M243.372 282.27C237.818 292.105 233.953 297.758 233.953 297.758L283.755 330.462L277.963 344.992L213.436 316.341C213.436 316.341 207.07 309.333 209.322 301.414L219.607 270.777L243.372 282.27Z" fill="#FFBE9D"/>
<path d="M221.849 302.757C223.749 301.476 225.74 300.359 227.804 299.417C229.925 298.68 232.097 298.125 234.3 297.758C232.009 297.58 229.709 297.935 227.555 298.797C225.402 299.659 223.445 301.01 221.816 302.757H221.849Z" fill="#EB996E"/>
<path d="M216.955 269.458C217.152 269.512 217.344 269.586 217.529 269.679L219.153 270.427L225.075 273.265L244.563 282.819L246.934 283.987L246.555 284.139C249.944 276.617 252.9 269.89 255 265.043C256.018 262.707 256.841 260.733 257.447 259.296C257.717 258.677 257.934 258.128 258.107 257.743C258.183 257.561 258.27 257.386 258.367 257.217C258.344 257.416 258.289 257.61 258.205 257.789C258.086 258.163 257.902 258.7 257.642 259.389C257.133 260.768 256.353 262.753 255.346 265.229C253.344 270.135 250.442 276.909 247.064 284.42L246.945 284.688L246.696 284.56L244.325 283.392L224.945 273.662L219.11 270.649L217.529 269.808C217.321 269.725 217.128 269.607 216.955 269.458Z" fill="#263238"/>
<path d="M300.07 240.456C300.343 240.933 300.571 241.438 300.752 241.963C301.29 243.372 301.735 244.82 302.084 246.296C303.187 251.173 303.858 256.151 304.087 261.165C304.375 266.169 304.332 271.188 303.957 276.185C303.806 278.101 303.6 279.689 303.427 280.705C303.363 281.262 303.247 281.81 303.08 282.341C303.079 281.781 303.122 281.222 303.21 280.67C303.307 279.608 303.459 278.066 303.557 276.15C303.828 271.171 303.828 266.179 303.557 261.2C303.312 256.236 302.689 251.302 301.694 246.448C301.382 244.975 300.999 243.521 300.547 242.091C300.343 241.563 300.183 241.016 300.07 240.456Z" fill="#263238"/>
<path d="M322.298 340.402L309.891 334.048L285.682 331.981L283.658 330.439L277.865 344.969C277.865 344.969 284.21 348.251 287.533 348.543L307.898 347.877L318.541 349.045L322.298 340.402Z" fill="#FFBE9D"/>
<path d="M306.752 172.712C307.466 172.873 308.203 172.873 308.917 172.712C310.681 172.404 312.366 171.704 313.865 170.656C315.364 169.615 316.644 168.246 317.622 166.639C318.064 166.002 318.381 165.275 318.553 164.501C318.094 165.098 317.671 165.726 317.286 166.382C315.185 169.326 312.199 171.391 308.842 172.222C308.136 172.337 307.438 172.5 306.752 172.712Z" fill="#455A64"/>
<path d="M303.578 157.189C303.578 157.189 304.011 157.902 304.996 158.72C307.644 160.847 310.964 161.759 314.232 161.254C314.908 161.211 315.567 161.003 316.159 160.647C316.159 160.436 313.116 161.371 309.533 160.355C307.398 159.665 305.386 158.595 303.578 157.189Z" fill="#455A64"/>
<path d="M326.835 234.044H327.03C327.16 234.044 327.344 233.962 327.593 233.869C328.3 233.594 328.961 233.2 329.553 232.701C330.504 231.912 331.268 230.891 331.783 229.722C332.463 228.152 332.653 226.385 332.324 224.688C332.142 223.705 331.793 222.767 331.296 221.92C330.741 221.017 330.066 220.206 329.293 219.514C328.494 218.825 327.797 218.01 327.225 217.096C326.964 216.615 326.819 216.072 326.802 215.515C326.785 214.958 326.897 214.406 327.127 213.907C327.698 212.834 328.381 211.835 329.163 210.929C329.572 210.419 329.934 209.867 330.245 209.282C330.549 208.66 330.757 207.99 330.863 207.297C331.044 205.848 330.802 204.375 330.169 203.083C329.536 201.791 328.544 200.744 327.333 200.09C326.079 199.643 324.788 199.322 323.479 199.132C322.897 199.002 322.345 198.748 321.855 198.385C321.397 198.014 321.063 197.494 320.902 196.901C320.662 195.674 320.795 194.397 321.281 193.257C321.725 192.089 322.364 190.991 322.743 189.812C323.211 188.638 323.291 187.327 322.97 186.097C322.602 184.97 321.921 183.991 321.021 183.294C319.429 182.162 317.65 181.369 315.781 180.958C314.286 180.582 312.876 179.887 311.634 178.914C310.753 178.119 310.144 177.03 309.902 175.819C309.72 175.038 309.792 174.213 310.108 173.483C310.324 172.992 310.53 172.794 310.498 172.771C310.289 172.946 310.119 173.17 310 173.425C309.644 174.139 309.529 174.965 309.675 175.761C309.882 177.057 310.498 178.237 311.418 179.101C312.678 180.132 314.118 180.879 315.651 181.297C317.46 181.728 319.179 182.52 320.718 183.633C321.531 184.272 322.143 185.165 322.472 186.191C322.753 187.297 322.669 188.473 322.234 189.52C321.833 190.688 321.238 191.715 320.761 192.942C320.217 194.208 320.072 195.632 320.35 196.995C320.537 197.718 320.941 198.355 321.498 198.805C322.054 199.225 322.684 199.519 323.349 199.67C324.617 199.859 325.866 200.168 327.084 200.592C328.188 201.18 329.095 202.125 329.677 203.296C330.26 204.466 330.488 205.804 330.332 207.121C330.237 207.743 330.055 208.346 329.791 208.908C329.498 209.457 329.161 209.977 328.784 210.462C327.975 211.406 327.277 212.453 326.705 213.58C326.44 214.163 326.313 214.807 326.335 215.455C326.358 216.104 326.53 216.736 326.835 217.295C327.438 218.25 328.167 219.104 329 219.829C329.746 220.478 330.399 221.241 330.938 222.095C331.407 222.899 331.744 223.784 331.934 224.711C332.269 226.318 332.113 227.997 331.491 229.5C331.017 230.634 330.31 231.637 329.423 232.432C328.641 233.108 327.769 233.652 326.835 234.044Z" fill="#455A64"/>
<path d="M262.416 158.427L262.502 153.627L289.439 149.305C297.721 148.721 306.296 158.03 306.48 166.977C306.686 176.917 306.577 189.064 305.213 196.411C302.463 211.186 291.821 212.576 291.821 212.576L291.236 227.386L260.727 226.464L262.416 158.427Z" fill="#FFBE9D"/>
<path d="M303.005 177.898C302.988 178.394 302.794 178.863 302.463 179.207C302.132 179.552 301.689 179.744 301.23 179.743C301.004 179.753 300.778 179.713 300.567 179.628C300.355 179.542 300.161 179.411 299.997 179.244C299.833 179.076 299.701 178.875 299.61 178.652C299.518 178.429 299.469 178.189 299.465 177.945C299.482 177.448 299.676 176.977 300.007 176.631C300.337 176.285 300.78 176.09 301.24 176.088C301.467 176.08 301.692 176.121 301.904 176.208C302.116 176.295 302.309 176.426 302.474 176.595C302.638 176.763 302.769 176.965 302.861 177.189C302.952 177.413 303.001 177.654 303.005 177.898Z" fill="#263238"/>
<path d="M303.329 173.168C303.102 173.401 301.803 172.28 299.897 172.198C297.992 172.116 296.563 173.086 296.368 172.829C296.173 172.572 296.509 172.268 297.136 171.825C297.98 171.239 298.972 170.954 299.973 171.007C300.964 171.043 301.917 171.424 302.691 172.093C303.264 172.595 303.448 173.063 303.329 173.168Z" fill="#263238"/>
<path d="M285.402 177.139C285.388 177.637 285.194 178.109 284.863 178.456C284.531 178.802 284.088 178.996 283.626 178.996C283.4 179.004 283.174 178.963 282.962 178.876C282.751 178.789 282.557 178.657 282.393 178.489C282.229 178.32 282.097 178.118 282.006 177.895C281.915 177.671 281.866 177.43 281.861 177.186C281.878 176.69 282.073 176.22 282.404 175.876C282.735 175.532 283.177 175.34 283.637 175.34C283.863 175.331 284.088 175.37 284.3 175.456C284.511 175.542 284.705 175.672 284.869 175.84C285.034 176.007 285.166 176.208 285.257 176.431C285.348 176.654 285.397 176.895 285.402 177.139Z" fill="#263238"/>
<path d="M284.611 172.735C284.383 172.969 283.084 171.836 281.178 171.766C279.273 171.696 277.844 172.654 277.649 172.385C277.454 172.116 277.79 171.836 278.418 171.381C279.265 170.805 280.255 170.524 281.254 170.575C282.243 170.612 283.195 170.989 283.972 171.649C284.546 172.163 284.74 172.619 284.611 172.735Z" fill="#263238"/>
<path d="M290.944 188.258C291.961 187.961 293.009 187.804 294.063 187.791C294.55 187.791 295.015 187.674 295.145 187.324C295.206 186.782 295.116 186.233 294.885 185.747C294.474 184.462 294.052 183.107 293.597 181.694C291.811 175.924 290.544 171.182 290.76 171.112C290.977 171.042 292.601 175.656 294.377 181.425C294.81 182.85 295.221 184.205 295.6 185.502C295.882 186.147 295.947 186.878 295.784 187.569C295.704 187.75 295.587 187.91 295.443 188.037C295.299 188.165 295.131 188.256 294.95 188.305C294.68 188.369 294.404 188.397 294.128 188.387C293.066 188.495 291.996 188.451 290.944 188.258Z" fill="#263238"/>
<path d="M291.821 212.658C285.169 212.477 278.689 210.341 273.08 206.479C273.08 206.479 277.346 217.108 291.669 216.36L291.821 212.658Z" fill="#EB996E"/>
<path d="M289.959 193.164C289.613 192.657 289.153 192.253 288.623 191.989C288.093 191.726 287.51 191.611 286.928 191.657C286.513 191.688 286.108 191.807 285.737 192.008C285.365 192.208 285.034 192.486 284.762 192.825C284.496 193.157 284.331 193.569 284.288 194.005C284.246 194.442 284.328 194.882 284.524 195.266C284.816 195.648 285.206 195.928 285.646 196.07C286.086 196.211 286.554 196.208 286.992 196.06C287.902 195.752 288.748 195.256 289.483 194.6C289.704 194.443 289.898 194.245 290.056 194.016C290.125 193.901 290.161 193.768 290.161 193.631C290.161 193.494 290.125 193.36 290.056 193.246" fill="#EB996E"/>
<path d="M285.292 189.426C285.606 189.426 285.52 191.657 287.23 193.316C288.941 194.974 291.15 194.822 291.15 195.138C291.15 195.453 290.641 195.547 289.71 195.535C288.509 195.491 287.36 194.995 286.462 194.133C285.587 193.306 285.05 192.139 284.968 190.886C284.903 189.952 285.152 189.415 285.292 189.426Z" fill="#263238"/>
<path d="M285.411 164.688C285.195 165.237 283.311 164.886 281.081 165.073C278.85 165.26 277.01 165.844 276.75 165.33C276.62 165.085 276.956 164.583 277.703 164.069C278.693 163.443 279.805 163.075 280.951 162.994C282.1 162.898 283.254 163.099 284.318 163.578C285.097 163.987 285.498 164.443 285.411 164.688Z" fill="#263238"/>
<path d="M302.854 167.199C302.507 167.643 301.208 167.106 299.606 167.012C298.003 166.919 296.682 167.199 296.358 166.697C296.228 166.452 296.455 165.996 297.061 165.529C297.867 165.037 298.789 164.814 299.712 164.886C300.634 164.959 301.517 165.325 302.247 165.938C302.843 166.487 303.016 167.024 302.854 167.199Z" fill="#263238"/>
<path d="M310.032 148.955C307.812 154.153 302.832 161.896 297.548 162.457C294.892 162.707 292.221 162.218 289.79 161.039C287.358 159.859 285.247 158.027 283.658 155.718C282.77 159.934 278.364 162.083 274.39 162.726C271.583 163.267 268.693 162.985 266.021 161.908C264.697 161.347 263.527 160.431 262.623 159.245C261.719 158.059 261.111 156.644 260.857 155.134C260.489 152.097 264.635 144.774 267.44 144.283" fill="#263238"/>
<path d="M267.006 224.98C266.833 227.387 265.976 229.678 264.552 231.54C263.128 233.402 261.206 234.746 259.049 235.387C259.122 237.362 258.541 239.301 257.408 240.855C256.276 242.408 254.667 243.475 252.87 243.864C251.074 244.252 249.207 243.937 247.607 242.974C246.007 242.011 244.778 240.464 244.14 238.611C243.912 237.619 243.547 236.67 243.058 235.796C241.704 233.95 239.074 234.324 237.006 233.6C233.27 232.292 231.646 227.351 232.069 223.146C232.207 222.322 232.244 221.482 232.177 220.647C231.95 218.965 230.726 217.668 229.817 216.279C226.06 210.532 227.651 202.192 231.787 196.785C233.173 194.986 234.927 193.105 234.797 190.769C234.587 189.476 234.189 188.226 233.617 187.067C232.933 185.07 232.821 182.898 233.296 180.832C233.771 178.765 234.811 176.901 236.28 175.48C236.722 175.232 237.071 174.827 237.268 174.333C237.466 173.84 237.499 173.288 237.363 172.771C237.13 169.639 238.006 166.529 239.814 164.067C241.622 161.605 244.228 159.974 247.107 159.502C247.458 159.492 247.803 159.408 248.125 159.257C249.012 158.766 249.034 157.446 249.153 156.372C249.456 153.545 251.492 148.266 253.484 146.409C259.049 141.281 264.44 145.451 266.368 147.413C266.368 147.413 270.179 167.783 269.442 171.579C268.706 175.375 266.119 184.836 267.147 189.099C268.176 193.362 269.843 202.204 268.23 206.07C266.617 209.936 267.006 224.98 267.006 224.98Z" fill="#263238"/>
<path d="M246.188 159.432C246.188 159.432 246.426 159.689 246.913 160.074C247.606 160.599 248.329 161.075 249.078 161.499C254.169 164.343 259.966 165.37 265.632 164.431C266.481 164.295 267.32 164.096 268.144 163.835C268.729 163.649 269.043 163.52 269.032 163.473C269.021 163.427 267.7 163.719 265.567 163.987C262.791 164.307 259.988 164.228 257.231 163.754C254.475 163.261 251.794 162.365 249.262 161.091C247.368 160.121 246.242 159.339 246.188 159.432Z" fill="#455A64"/>
<path d="M244.367 160.869C244.452 161.275 244.587 161.668 244.768 162.037C244.938 162.504 245.141 162.957 245.374 163.392C245.648 163.991 245.955 164.572 246.294 165.132C247.163 166.604 248.164 167.982 249.282 169.243C250.659 170.78 252.183 172.154 253.83 173.343C255.494 174.501 257.265 175.472 259.113 176.24C260.629 176.844 262.195 177.29 263.79 177.571C264.399 177.687 265.014 177.765 265.631 177.805C266.096 177.842 266.562 177.842 267.027 177.805C267.426 177.833 267.825 177.81 268.218 177.735C268.218 177.606 266.519 177.629 263.888 177.069C262.337 176.731 260.815 176.25 259.34 175.632C257.542 174.849 255.816 173.883 254.187 172.747C252.578 171.582 251.077 170.252 249.705 168.776C248.591 167.56 247.58 166.238 246.684 164.828C245.125 162.516 244.475 160.81 244.367 160.869Z" fill="#455A64"/>
<path d="M254.242 236.567C254.242 236.567 254.004 236.567 253.582 236.485C252.963 236.341 252.405 235.984 251.99 235.469C251.325 234.666 250.958 233.626 250.962 232.549C251.001 231.109 251.242 229.683 251.676 228.321C252.269 226.606 252.371 224.738 251.968 222.96C251.395 221.032 249.944 219.537 248.72 217.949C248.043 217.176 247.487 216.288 247.075 215.321C246.882 214.833 246.791 214.305 246.805 213.775C246.82 213.244 246.942 212.724 247.161 212.249C247.683 211.25 248.427 210.407 249.327 209.796C250.215 209.095 251.189 208.488 252.131 207.729C253.135 207.022 253.923 206.01 254.394 204.82C254.577 204.215 254.64 203.574 254.579 202.94C254.517 202.306 254.332 201.693 254.036 201.141C252.954 199.027 251.308 197.485 250.907 195.453C250.77 194.488 250.824 193.503 251.067 192.562C251.31 191.622 251.735 190.748 252.315 189.999C253.287 188.596 254.398 187.311 255.628 186.168C256.645 185.184 257.58 184.105 258.421 182.944C259.042 182.05 259.522 181.052 259.839 179.989C260.021 179.306 260.094 178.595 260.056 177.886C260.039 177.641 259.999 177.399 259.937 177.162C259.976 178.091 259.866 179.019 259.612 179.907C258.663 182.249 257.172 184.288 255.281 185.829C254.008 186.971 252.856 188.264 251.849 189.683C251.283 190.493 250.834 191.391 250.518 192.346C250.173 193.383 250.101 194.503 250.312 195.582C250.767 197.918 252.477 199.459 253.463 201.422C253.72 201.897 253.881 202.426 253.935 202.974C253.989 203.521 253.935 204.075 253.777 204.599C253.336 205.662 252.622 206.566 251.719 207.203C250.81 207.927 249.836 208.546 248.915 209.271C247.95 209.947 247.154 210.87 246.598 211.957C246.348 212.511 246.21 213.116 246.193 213.733C246.176 214.349 246.281 214.962 246.501 215.531C246.945 216.562 247.541 217.509 248.266 218.334C249.587 219.934 250.972 221.371 251.514 223.111C251.898 224.793 251.819 226.558 251.286 228.192C250.86 229.599 250.641 231.069 250.637 232.549C250.671 233.701 251.099 234.8 251.839 235.632C252.298 236.157 252.909 236.499 253.571 236.602C253.794 236.647 254.024 236.635 254.242 236.567Z" fill="#455A64"/>
<path d="M392.108 288.835L322.298 289.442C320.035 289.442 317.869 290.61 317.534 293.04L309.901 347.936H273.913C273.625 347.913 273.336 347.955 273.064 348.059C272.792 348.162 272.543 348.325 272.332 348.537C272.12 348.749 271.952 349.006 271.837 349.291C271.722 349.576 271.662 349.884 271.662 350.196C271.662 350.507 271.722 350.815 271.837 351.1C271.952 351.386 272.12 351.642 272.332 351.854C272.543 352.066 272.792 352.229 273.064 352.333C273.336 352.436 273.625 352.478 273.913 352.456H388.784L396.633 294.523C396.735 293.819 396.694 293.099 396.513 292.414C396.333 291.729 396.016 291.094 395.586 290.553C395.156 290.013 394.622 289.579 394.022 289.282C393.421 288.986 392.768 288.833 392.108 288.835Z" fill="#E0E0E0"/>
<path d="M392.109 288.835C392.473 288.808 392.838 288.844 393.191 288.94C394.123 289.175 394.964 289.717 395.597 290.492C396.229 291.266 396.622 292.235 396.721 293.261C396.746 294.3 396.662 295.338 396.472 296.357L395.465 303.995C393.928 315.512 391.708 332.086 388.969 352.479V352.678H388.785L277.368 352.736H274.369C273.824 352.797 273.274 352.683 272.788 352.409C272.287 352.114 271.902 351.633 271.705 351.054C271.51 350.479 271.512 349.847 271.711 349.273C271.909 348.699 272.291 348.221 272.788 347.924C273.274 347.665 273.818 347.556 274.358 347.608H309.891L309.62 347.854C312.37 328.196 314.926 309.859 317.199 293.413C317.265 292.311 317.727 291.28 318.487 290.54C319.249 289.851 320.176 289.409 321.162 289.267C322.097 289.174 323.037 289.139 323.977 289.162H326.716L337.218 289.08L355.904 288.951L382.495 288.811H389.608L382.495 288.928L355.904 289.243L337.228 289.442L326.716 289.547H323.977C323.059 289.523 322.141 289.558 321.227 289.652C320.328 289.785 319.484 290.19 318.791 290.82C318.114 291.483 317.706 292.406 317.654 293.39L310.129 347.854V348.099H274.401C273.955 348.048 273.505 348.133 273.102 348.344C272.733 348.568 272.449 348.925 272.298 349.351C272.148 349.778 272.141 350.249 272.279 350.68C272.423 351.122 272.712 351.492 273.091 351.72C273.495 351.941 273.952 352.027 274.401 351.965H277.4L388.817 352.035L388.612 352.234C391.405 331.864 393.689 315.29 395.27 303.785C395.671 300.912 396.017 298.366 396.353 296.146C396.551 295.145 396.645 294.122 396.634 293.098C396.565 292.254 396.284 291.447 395.822 290.762C395.201 289.812 394.288 289.129 393.246 288.835C392.867 288.8 392.487 288.8 392.109 288.835Z" fill="#263238"/>
<path d="M354.237 324.657C356.653 324.657 358.611 322.545 358.611 319.939C358.611 317.333 356.653 315.22 354.237 315.22C351.822 315.22 349.863 317.333 349.863 319.939C349.863 322.545 351.822 324.657 354.237 324.657Z" fill="white"/>
<path d="M312.728 351.942C312.825 351.942 315.056 337.984 317.697 320.721C320.339 303.458 322.396 289.465 322.299 289.442C322.201 289.419 319.982 303.4 317.34 320.663C314.698 337.926 312.63 351.918 312.728 351.942Z" fill="#263238"/>
<path d="M502.065 251.015C502.065 251.015 502.065 250.314 502.065 248.983C502.065 247.651 502.065 245.677 502.065 243.143C502.065 238.003 502.065 230.481 502.01 220.951C502.01 201.795 501.935 174.417 501.881 141.527L502.119 141.784H388.341L388.623 141.48C388.623 181.367 388.623 218.895 388.623 251.12L388.374 250.851L470.656 250.992L493.869 251.062H500.018H501.599H500.04H493.945L470.743 251.12L388.276 251.26H388.027V250.992C388.027 218.766 388.027 181.239 388.027 141.351V141.048H388.32H502.097H502.357V141.328C502.357 174.347 502.27 201.784 502.238 220.974C502.238 230.528 502.238 238.038 502.173 243.166C502.173 245.712 502.173 247.663 502.173 249.006C502.173 250.349 502.065 251.015 502.065 251.015Z" fill="#263238"/>
<path d="M492.797 147.612H395.703V244.778H492.797V147.612Z" fill="#FFC727"/>
<g opacity="0.3">
<path d="M454.426 169.512C453.114 169.571 451.847 170.045 450.783 170.875C449.718 171.705 448.903 172.854 448.439 174.179C447.974 175.504 447.881 176.947 448.171 178.329C448.46 179.711 449.12 180.971 450.067 181.952C451.015 182.933 452.208 183.592 453.5 183.847C454.792 184.102 456.125 183.942 457.333 183.387C458.541 182.832 459.572 181.907 460.296 180.725C461.021 179.544 461.408 178.159 461.409 176.742C461.391 175.772 461.196 174.816 460.835 173.928C460.474 173.04 459.955 172.237 459.306 171.566C458.658 170.895 457.893 170.368 457.055 170.015C456.218 169.663 455.325 169.492 454.426 169.512Z" fill="black"/>
<path d="M485.261 155.251L403.238 155.181C403.325 155.075 402.351 156.092 402.762 155.671V161.184C402.762 163.018 402.762 164.84 402.762 166.662V177.536C402.762 184.673 402.762 191.669 402.762 198.467C402.762 212.074 402.762 224.945 402.762 236.777V237.104H403.163L462.709 236.894L479.35 236.789H483.68H484.763C484.881 236.809 485.002 236.809 485.12 236.789H484.72H483.572H479.133L462.406 236.684L444.077 236.613H485.11C485.11 236.777 485.11 236.882 485.11 236.882C485.128 236.766 485.128 236.648 485.11 236.532C485.11 236.251 485.11 235.901 485.11 235.445C485.11 234.429 485.11 233.004 485.164 231.147C485.164 227.316 485.218 221.803 485.261 214.737C485.315 200.487 485.38 180.187 485.467 155.811V155.402L485.261 155.251ZM465.405 201.445L452.056 218.416L430.088 186.448L403.628 235.702C403.628 224.151 403.628 211.63 403.628 198.408C403.628 191.61 403.628 184.614 403.628 177.478C403.628 173.904 403.628 170.294 403.628 166.65V156.138L484.828 156.068C484.904 180.152 484.98 200.219 485.023 214.328C485.023 221.406 485.11 226.977 485.131 230.832C485.131 232.712 485.131 234.172 485.131 235.2C485.131 235.679 485.131 236.041 485.131 236.368V236.473L465.405 201.445Z" fill="black"/>
</g>
<path d="M391.264 137.333H385.299V143.769H391.264V137.333Z" fill="#263238"/>
<path d="M504.089 137.333H498.123V143.769H504.089V137.333Z" fill="#263238"/>
<path d="M504.089 246.74H498.123V253.176H504.089V246.74Z" fill="#263238"/>
<path d="M392.098 246.74H386.133V253.176H392.098V246.74Z" fill="#263238"/>
<path d="M392.098 192.673H386.133V199.109H392.098V192.673Z" fill="#263238"/>
<path d="M447.423 247.803H441.457V254.239H447.423V247.803Z" fill="#263238"/>
<path d="M505.053 189.461H499.088V195.897H505.053V189.461Z" fill="#263238"/>
<path d="M447.444 137.917H441.479V144.353H447.444V137.917Z" fill="#263238"/>
</g>
<defs>
<clipPath id="clip0_1498_10142">
<rect width="669" height="584" fill="white"/>
</clipPath>
</defs>
</svg>
