<svg width="65" height="64" viewBox="0 0 65 64" fill="none" xmlns="http://www.w3.org/2000/svg">
<circle cx="32.4272" cy="32" r="27.6364" fill="#FFD3C9" stroke="#F9F5FF" stroke-width="8.72727"/>
<g clip-path="url(#clip0_1256_6415)">
<path d="M23.0927 41.6251H25.876C26.2724 41.6251 26.5937 41.3037 26.5937 40.9074V34.6163C26.5937 34.22 26.2723 33.8987 25.876 33.8987H23.0927C22.6963 33.8987 22.375 34.22 22.375 34.6163V40.9074C22.375 41.3037 22.6964 41.6251 23.0927 41.6251Z" fill="#FC5833"/>
<path d="M29.4208 41.6251H32.2042C32.6005 41.6251 32.9218 41.3037 32.9218 40.9074V30.3976C32.9218 30.0012 32.6005 29.6799 32.2042 29.6799H29.4208C29.0244 29.6799 28.7031 30.0013 28.7031 30.3976V40.9074C28.7031 41.3037 29.0245 41.6251 29.4208 41.6251Z" fill="#FC5833"/>
<path d="M35.7489 41.6251H38.5323C38.9286 41.6251 39.2499 41.3037 39.2499 40.9074V25.3351C39.2499 24.9387 38.9286 24.6174 38.5323 24.6174H35.7489C35.3526 24.6174 35.0312 24.9388 35.0312 25.3351V40.9074C35.0312 41.3037 35.3526 41.6251 35.7489 41.6251Z" fill="#FC5833"/>
<path d="M42.077 41.6251H44.8604C45.2568 41.6251 45.5781 41.3037 45.5781 40.9074V20.2726C45.5781 19.8762 45.2567 19.5549 44.8604 19.5549H42.077C41.6807 19.5549 41.3594 19.8763 41.3594 20.2726V40.9074C41.3594 41.3037 41.6807 41.6251 42.077 41.6251Z" fill="#FC5833"/>
<path d="M45.2823 43.418H21.4052C21.0089 43.418 20.6875 43.0966 20.6875 42.7003V18.7177C20.6875 18.3214 20.3661 18 19.9698 18H19.7177C19.3214 18 19 18.3214 19 18.7177V44.2823C19 44.6786 19.3214 45 19.7177 45H45.2823C45.6786 45 45.9999 44.6786 45.9999 44.2823V44.1357C46 43.7393 45.6786 43.418 45.2823 43.418Z" fill="#FFAE9C"/>
</g>
<defs>
<clipPath id="clip0_1256_6415">
<rect width="27" height="27" fill="white" transform="translate(19 18)"/>
</clipPath>
</defs>
</svg>
