<svg width="65" height="65" viewBox="0 0 65 65" fill="none" xmlns="http://www.w3.org/2000/svg">
<circle cx="32.9272" cy="32.6182" r="27.6364" fill="#FFD3C9" stroke="#F9F5FF" stroke-width="8.72727"/>
<path d="M40.6345 25.2088C41.9464 26.5557 42.9025 28.2079 43.4168 30.0164H46.9375V36.206H43.4168C42.9032 38.016 41.947 39.6697 40.6345 41.0178L42.3979 44.0703L37.0396 47.1641L35.2802 44.1116C33.456 44.5717 31.5461 44.5717 29.7218 44.1116L27.9604 47.1641L22.6021 44.0703L24.3655 41.0178C23.053 39.6697 22.0968 38.016 21.5832 36.206H18.0625V30.0185H21.5832C22.0968 28.2085 23.053 26.5548 24.3655 25.2067L22.6 22.1562L27.9563 19.0625H27.9625L29.7239 22.1109C31.5481 21.6508 33.4581 21.6508 35.2823 22.1109L37.0375 19.0625H37.0416L42.4 22.1562L40.6366 25.2088H40.6345ZM38.6875 33.1122C38.6875 31.4712 38.0356 29.8974 36.8752 28.737C35.7148 27.5766 34.141 26.9247 32.5 26.9247C30.859 26.9247 29.2852 27.5766 28.1248 28.737C26.9644 29.8974 26.3125 31.4712 26.3125 33.1122C26.3125 34.7533 26.9644 36.3271 28.1248 37.4875C29.2852 38.6479 30.859 39.2998 32.5 39.2998C34.141 39.2998 35.7148 38.6479 36.8752 37.4875C38.0356 36.3271 38.6875 34.7533 38.6875 33.1122Z" fill="#FC5833"/>
</svg>
