<svg width="1164" height="501" viewBox="0 0 1164 501" fill="none" xmlns="http://www.w3.org/2000/svg">
<path d="M427.955 25.3667H353.291V130.271H427.955V25.3667Z" fill="#F4F4F4"/>
<path d="M427.955 139.885H353.291V247.335H427.955V139.885Z" fill="#F4F4F4"/>
<path d="M510.667 25.3667H436.003V130.271H510.667V25.3667Z" fill="#F4F4F4"/>
<path d="M510.667 139.885H436.003V247.335H510.667V139.885Z" fill="#F4F4F4"/>
<path d="M135.573 369.311L135.13 369.381L139.166 400.947L139.608 400.877L135.573 369.311Z" fill="#263238"/>
<path d="M139.583 400.097L139.263 399.814C139.327 399.744 143.99 393.594 144.628 391.685L145.011 391.826C144.373 393.806 139.774 399.885 139.583 400.097Z" fill="#263238"/>
<path d="M117.42 451.418L124.19 488.107H150.568L157.466 451.701L117.42 451.418Z" fill="#E8EDF8"/>
<path d="M117.611 357.895C116.525 360.086 115.44 362.278 114.354 364.469C114.29 364.61 114.162 364.822 114.034 364.822C113.843 364.822 113.715 364.681 113.651 364.469C110.777 359.591 107.903 354.714 105.029 349.765L107.009 348.493L117.611 357.895Z" fill="#E7515B"/>
<path d="M117.611 357.895C116.525 360.086 115.44 362.278 114.354 364.469C114.29 364.61 114.162 364.822 114.034 364.822C113.843 364.822 113.715 364.681 113.651 364.469C110.777 359.591 107.903 354.714 105.029 349.765L107.009 348.493L117.611 357.895Z" fill="#71BCAB"/>
<path d="M135.175 369.7C125.339 363.267 115.567 356.905 105.731 350.472C105.412 350.26 105.093 350.048 105.029 349.695C104.901 349.2 105.22 348.776 105.54 348.422C109.564 343.827 115.504 341.141 121.252 341.565C127.064 342.06 132.621 345.736 135.495 351.391C138.305 356.905 138.433 364.398 135.175 369.7Z" fill="#7FCCBB"/>
<path d="M109.947 344.322C109.947 344.322 110.075 344.322 110.33 344.251C110.585 344.251 110.969 344.181 111.416 344.181C112.374 344.181 113.779 344.251 115.503 344.534C117.228 344.817 119.208 345.453 121.316 346.513C123.423 347.574 125.595 349.058 127.575 350.967C129.555 352.946 131.088 355.208 132.237 357.4C133.387 359.591 134.153 361.783 134.601 363.621C135.048 365.459 135.239 367.014 135.303 368.074C135.367 368.64 135.367 368.993 135.367 369.276C135.367 369.559 135.367 369.7 135.367 369.7C135.367 369.7 135.303 369.134 135.175 368.074C135.048 367.014 134.792 365.458 134.345 363.691C133.387 360.086 131.279 355.138 127.319 351.25C123.423 347.362 118.825 345.453 115.44 344.817C113.779 344.463 112.374 344.393 111.416 344.322C110.458 344.322 109.947 344.393 109.947 344.322Z" fill="#263238"/>
<path d="M131.152 356.41C131.152 356.481 130.577 356.764 129.683 357.188C128.725 357.612 127.447 358.107 125.978 358.602C124.509 359.096 123.168 359.521 122.21 359.803C121.252 360.086 120.613 360.227 120.613 360.157C120.613 360.086 121.188 359.874 122.146 359.521C123.232 359.167 124.509 358.672 125.914 358.248C127.319 357.753 128.597 357.329 129.683 356.905C130.513 356.552 131.152 356.41 131.152 356.41Z" fill="#263238"/>
<path d="M126.489 342.625C126.553 342.625 126.808 344.251 126.808 346.231C126.872 348.281 126.745 349.907 126.617 349.907C126.489 349.907 126.489 348.281 126.425 346.231C126.489 344.251 126.425 342.625 126.489 342.625Z" fill="#263238"/>
<path d="M105.412 350.119C105.412 350.048 106.242 349.765 107.584 349.27C108.925 348.846 110.777 348.21 112.885 347.715C114.993 347.15 116.845 346.726 118.25 346.443C119.655 346.16 120.485 346.089 120.485 346.089C120.485 346.16 119.655 346.372 118.314 346.726C116.973 347.079 115.056 347.503 113.013 348.069C110.969 348.634 109.053 349.129 107.711 349.553C106.306 349.907 105.412 350.189 105.412 350.119Z" fill="#263238"/>
<path d="M144.756 391.614L147.438 391.402C149.355 391.261 151.143 390.625 152.803 389.564C153.634 389.069 154.464 388.575 155.294 388.15C158.552 386.666 162.256 386.949 165.769 386.737C171.517 386.383 177.266 384.828 182.439 382C182.758 381.859 183.014 381.576 183.142 381.293C183.717 380.162 182.695 379.243 181.8 378.607C177.33 375.567 172.731 372.457 167.685 370.973C162.576 369.488 156.827 369.7 152.484 373.023C147.502 376.911 145.65 384.828 144.756 391.614Z" fill="#7FCCBB"/>
<path d="M183.269 380.94C183.269 380.94 183.078 380.869 182.822 380.728C182.503 380.516 182.056 380.304 181.545 380.021C180.459 379.385 178.862 378.466 176.882 377.405C174.902 376.345 172.475 375.214 169.665 374.366C166.855 373.517 163.661 373.023 160.34 373.517C157.019 374.012 153.953 375.426 151.845 377.547C149.674 379.668 148.333 382.283 147.438 384.404C146.48 386.595 145.905 388.504 145.522 389.776C145.331 390.413 145.139 390.907 145.075 391.261C144.947 391.614 144.884 391.756 144.884 391.756C144.884 391.756 144.884 391.544 145.011 391.19C145.139 390.837 145.267 390.342 145.394 389.706C145.778 388.433 146.289 386.525 147.247 384.262C148.141 382.071 149.482 379.385 151.718 377.193C153.889 375.002 157.019 373.517 160.404 373.023C163.789 372.528 167.046 373.023 169.857 373.871C172.667 374.719 175.094 375.992 177.074 377.052C179.054 378.112 180.587 379.102 181.673 379.809C182.184 380.162 182.567 380.374 182.886 380.587C183.142 380.799 183.269 380.94 183.269 380.94Z" fill="#263238"/>
<path d="M176.882 384.757C176.819 384.828 173.37 382.354 169.09 379.173C164.875 375.992 161.49 373.376 161.49 373.305C161.554 373.235 165.003 375.709 169.282 378.89C173.561 382 176.946 384.616 176.882 384.757Z" fill="#263238"/>
<path d="M173.561 372.952C173.561 373.022 172.348 373.376 170.879 373.588C169.346 373.729 168.132 373.659 168.132 373.517C168.132 373.376 169.346 373.305 170.879 373.164C172.284 372.952 173.497 372.81 173.561 372.952Z" fill="#263238"/>
<path d="M157.913 369.841C157.977 369.912 157.466 371.043 156.763 372.386C156.061 373.729 155.422 374.79 155.294 374.719C155.231 374.648 155.742 373.517 156.444 372.174C157.211 370.831 157.849 369.771 157.913 369.841Z" fill="#263238"/>
<path d="M161.043 387.019C161.043 387.09 160.404 386.666 159.382 386.03C158.36 385.323 157.019 384.333 155.55 383.202C154.081 382 152.803 380.94 151.909 380.092C151.015 379.314 150.44 378.748 150.44 378.748C150.44 378.678 151.079 379.173 152.037 379.879C153.059 380.728 154.336 381.717 155.741 382.848C157.21 383.98 158.488 385.04 159.51 385.747C160.468 386.524 161.106 386.948 161.043 387.019Z" fill="#263238"/>
<path d="M148.652 404.126C146.097 403.419 143.095 406.106 142.584 408.933C142.073 411.761 143.031 414.659 144.181 417.275C146.672 423.071 150.121 428.444 154.656 432.473C159.19 436.503 164.875 439.048 170.687 438.977C169.601 433.463 170.943 427.737 170.368 422.082C169.857 417.204 167.813 412.539 164.619 409.075C161.49 405.611 157.21 403.349 152.803 402.854C151.207 402.713 149.291 402.43 148.652 404.126Z" fill="#7FCCBB"/>
<path d="M170.687 439.048C170.687 439.048 170.559 438.977 170.304 438.836C170.048 438.694 169.729 438.482 169.346 438.129C168.579 437.493 167.621 436.149 166.855 434.453C166.472 433.605 166.025 432.615 165.578 431.625C165.13 430.565 164.683 429.434 164.236 428.303C163.725 427.101 163.214 425.899 162.576 424.768C161.937 423.566 161.107 422.435 160.276 421.304C158.552 419.042 156.7 417.063 155.039 415.225C153.442 413.387 152.037 411.549 151.079 409.923C150.057 408.297 149.482 406.813 149.163 405.823C148.971 405.328 148.908 404.904 148.844 404.621C148.78 404.339 148.78 404.197 148.78 404.197C148.844 404.197 148.971 404.763 149.355 405.752C149.738 406.742 150.377 408.156 151.398 409.782C152.42 411.408 153.762 413.104 155.422 414.942C157.019 416.78 158.935 418.76 160.66 421.022C161.554 422.153 162.32 423.354 163.023 424.556C163.661 425.758 164.236 427.03 164.683 428.161C165.13 429.363 165.578 430.494 166.025 431.484C166.472 432.544 166.919 433.463 167.302 434.382C168.068 436.149 168.899 437.422 169.665 438.129C170.176 438.765 170.687 438.977 170.687 439.048Z" fill="#263238"/>
<path d="M157.594 434.453C157.53 434.453 157.658 433.746 157.849 432.544C158.041 431.413 158.36 429.787 158.807 428.091C159.254 426.394 159.701 424.839 160.085 423.708C160.468 422.577 160.723 421.941 160.787 421.941C160.851 421.941 160.66 422.647 160.34 423.778C160.021 424.91 159.574 426.465 159.127 428.161C158.68 429.858 158.296 431.484 158.041 432.615C157.785 433.746 157.594 434.453 157.594 434.453Z" fill="#263238"/>
<path d="M170.176 420.951C170.176 421.022 169.473 420.809 168.388 420.527C167.302 420.244 165.769 419.749 164.108 419.325C162.448 418.901 160.915 418.547 159.765 418.335C158.679 418.123 157.977 417.982 157.977 417.911C157.977 417.84 158.679 417.911 159.829 418.053C160.979 418.194 162.512 418.477 164.172 418.901C165.833 419.325 167.366 419.82 168.451 420.173C169.537 420.597 170.24 420.88 170.176 420.951Z" fill="#263238"/>
<path d="M148.141 424.839C148.077 424.839 148.205 423.991 148.396 422.648C148.588 421.304 148.971 419.467 149.418 417.487C149.865 415.508 150.376 413.67 150.823 412.397C151.207 411.125 151.526 410.347 151.526 410.347C151.59 410.347 151.398 411.196 151.015 412.468C150.696 413.811 150.185 415.579 149.738 417.558C149.291 419.537 148.843 421.375 148.588 422.718C148.396 424.061 148.205 424.839 148.141 424.839Z" fill="#263238"/>
<path d="M164.364 409.146C164.364 409.287 161.17 409.004 157.274 408.509C153.378 408.085 150.249 407.59 150.249 407.52C150.249 407.378 153.442 407.661 157.338 408.156C161.234 408.58 164.428 409.004 164.364 409.146Z" fill="#263238"/>
<path d="M162.065 451.63C162.065 451.772 150.951 451.842 137.219 451.842C123.487 451.842 112.374 451.772 112.374 451.63C112.374 451.489 123.487 451.418 137.219 451.418C150.951 451.418 162.065 451.56 162.065 451.63Z" fill="#455B64"/>
<path d="M138.944 444.279H138.497C138.561 443.713 142.329 384.192 134.601 378.749L134.856 378.324C138.177 380.728 139.902 392.533 139.902 413.528C139.902 429.01 138.944 444.067 138.944 444.279Z" fill="#263238"/>
<path d="M134.92 378.395C134.728 375.85 132.365 373.942 130.066 373.871C127.767 373.871 125.595 375.355 124.19 377.405C122.785 379.455 122.018 381.93 121.38 384.404C119.847 390.412 118.953 396.775 119.655 402.995C120.294 409.216 122.593 415.366 126.617 419.749C127.256 420.456 128.15 421.163 129.044 420.951C129.555 420.809 129.938 420.456 130.321 420.102C138.241 412.185 142.84 400.309 142.521 388.504C142.457 386.171 142.201 383.697 140.988 381.717C139.71 379.667 136.964 377.617 134.92 378.395Z" fill="#7FCCBB"/>
<path d="M127.83 421.446C127.83 421.446 127.83 421.304 127.767 421.021C127.767 420.668 127.767 420.244 127.703 419.749C127.639 418.618 127.639 416.992 127.703 415.013C127.767 413.033 127.83 410.63 128.086 408.014C128.341 405.399 128.661 402.5 129.108 399.531C129.619 396.562 130.194 393.735 130.768 391.19C131.407 388.645 132.046 386.383 132.621 384.474C133.195 382.566 133.706 381.081 134.09 380.021C134.281 379.526 134.409 379.173 134.537 378.819C134.664 378.536 134.728 378.395 134.728 378.395C134.728 378.395 134.728 378.536 134.601 378.819C134.473 379.102 134.345 379.526 134.217 380.021C133.898 381.081 133.387 382.566 132.812 384.474C132.237 386.383 131.663 388.645 131.024 391.19C130.449 393.735 129.874 396.562 129.363 399.531C128.916 402.5 128.533 405.399 128.278 408.014C128.022 410.63 127.894 412.963 127.83 414.942C127.767 416.921 127.703 418.547 127.767 419.678C127.767 420.173 127.767 420.597 127.767 420.951C127.83 421.304 127.83 421.446 127.83 421.446Z" fill="#263238"/>
<path d="M129.363 399.249C129.427 399.32 128.98 399.814 128.214 400.663C127.447 401.511 126.361 402.642 125.148 403.844C123.934 405.046 122.785 406.106 121.89 406.813C121.06 407.52 120.485 407.944 120.485 407.944C120.485 407.873 120.932 407.378 121.763 406.601C122.657 405.752 123.743 404.692 124.956 403.561C126.106 402.43 127.192 401.37 128.086 400.451C128.852 399.673 129.363 399.178 129.363 399.249Z" fill="#263238"/>
<path d="M138.688 407.519C138.625 407.519 138.177 406.813 137.411 405.611C136.581 404.338 135.623 402.712 134.473 400.875C133.323 399.107 132.301 397.481 131.471 396.209C130.705 395.007 130.258 394.3 130.258 394.23C130.321 394.23 130.832 394.866 131.663 395.997C132.493 397.128 133.579 398.754 134.728 400.592C135.878 402.43 136.9 404.126 137.539 405.399C138.369 406.671 138.752 407.519 138.688 407.519Z" fill="#263238"/>
<path d="M133.834 381.364C133.898 381.435 130.768 383.768 126.936 386.525C123.04 389.281 119.911 391.473 119.847 391.331C119.783 391.261 122.912 388.928 126.745 386.171C130.577 383.485 133.77 381.293 133.834 381.364Z" fill="#263238"/>
<path d="M142.584 391.826C142.52 391.897 140.413 389.776 137.922 387.019C135.431 384.262 133.387 382 133.515 381.93C133.579 381.859 135.686 383.98 138.177 386.737C140.668 389.493 142.648 391.756 142.584 391.826Z" fill="#263238"/>
<path d="M139.902 410.771L139.455 410.63C139.519 410.347 140.988 403.844 144.373 402.571C145.714 402.076 147.247 402.501 148.78 403.844L148.524 404.197C147.119 402.925 145.778 402.501 144.564 402.995C141.435 404.268 139.902 410.701 139.902 410.771Z" fill="#263238"/>
<path d="M162.001 444.137H112.438V451.701H162.001V444.137Z" fill="#C4D3EC"/>
<path d="M162.065 451.772H112.374V444.067H162.065V451.772ZM112.502 451.56H161.873V444.208H112.502V451.56Z" fill="#C4D3EC"/>
<path d="M117.036 484.431L120.805 490.227H152.931L157.466 484.431H117.036Z" fill="#C4D3EC"/>
<path d="M946.754 367.264L946.311 367.333L950.347 398.899L950.789 398.83L946.754 367.264Z" fill="#263238"/>
<path d="M950.73 398.047L950.411 397.764C950.475 397.694 955.137 391.544 955.776 389.635L956.159 389.776C955.521 391.756 950.922 397.835 950.73 398.047Z" fill="#263238"/>
<path d="M928.631 449.368L935.338 486.057H961.716L968.614 449.651L928.631 449.368Z" fill="#E8EDF8"/>
<path d="M928.823 355.845C927.737 358.036 926.651 360.228 925.566 362.419C925.502 362.56 925.374 362.772 925.246 362.772C925.055 362.772 924.927 362.631 924.863 362.419C921.989 357.541 919.115 352.664 916.241 347.715L918.221 346.443L928.823 355.845Z" fill="#E7515B"/>
<path d="M928.823 355.845C927.737 358.036 926.651 360.228 925.566 362.419C925.502 362.56 925.374 362.772 925.246 362.772C925.055 362.772 924.927 362.631 924.863 362.419C921.989 357.541 919.115 352.664 916.241 347.715L918.221 346.443L928.823 355.845Z" fill="#71BCAB"/>
<path d="M946.323 367.65C936.487 361.217 926.715 354.855 916.879 348.422C916.56 348.21 916.241 347.998 916.177 347.645C916.049 347.15 916.368 346.726 916.688 346.372C920.711 341.777 926.651 339.091 932.4 339.515C938.212 340.01 943.769 343.686 946.643 349.341C949.517 354.926 949.581 362.348 946.323 367.65Z" fill="#7FCCBB"/>
<path d="M921.095 342.272C921.095 342.272 921.222 342.272 921.478 342.201C921.733 342.201 922.117 342.131 922.564 342.131C923.522 342.131 924.927 342.201 926.651 342.484C928.376 342.767 930.356 343.403 932.464 344.463C934.571 345.524 936.743 347.008 938.723 348.917C940.703 350.896 942.236 353.158 943.385 355.35C944.535 357.541 945.301 359.733 945.748 361.571C946.196 363.408 946.387 364.964 946.451 366.024C946.515 366.59 946.515 366.943 946.515 367.226C946.515 367.509 946.515 367.65 946.515 367.65C946.515 367.65 946.451 367.084 946.323 366.024C946.196 364.964 945.94 363.408 945.493 361.641C944.535 358.036 942.427 353.088 938.467 349.2C934.571 345.312 929.973 343.403 926.588 342.767C924.927 342.413 923.522 342.343 922.564 342.272C921.67 342.272 921.095 342.343 921.095 342.272Z" fill="#263238"/>
<path d="M942.363 354.36C942.363 354.431 941.789 354.714 940.894 355.138C939.936 355.562 938.659 356.057 937.19 356.551C935.721 357.046 934.38 357.47 933.422 357.753C932.464 358.036 931.825 358.177 931.825 358.107C931.825 358.036 932.4 357.824 933.358 357.47C934.444 357.117 935.721 356.622 937.126 356.198C938.531 355.703 939.809 355.279 940.894 354.855C941.725 354.501 942.299 354.36 942.363 354.36Z" fill="#263238"/>
<path d="M937.701 340.575C937.765 340.575 938.02 342.201 938.02 344.181C938.084 346.231 937.956 347.857 937.829 347.857C937.701 347.857 937.701 346.231 937.637 344.181C937.637 342.272 937.637 340.575 937.701 340.575Z" fill="#263238"/>
<path d="M916.624 348.069C916.624 347.998 917.454 347.715 918.795 347.22C920.137 346.796 921.989 346.16 924.097 345.665C926.204 345.1 928.056 344.676 929.462 344.393C930.867 344.11 931.697 344.039 931.697 344.039C931.697 344.11 930.867 344.322 929.525 344.676C928.184 345.029 926.268 345.453 924.224 346.019C922.18 346.584 920.264 347.079 918.923 347.503C917.454 347.857 916.624 348.139 916.624 348.069Z" fill="#263238"/>
<path d="M955.968 389.564L958.65 389.352C960.566 389.211 962.355 388.575 964.015 387.514C964.846 387.019 965.676 386.524 966.506 386.1C969.764 384.616 973.468 384.899 976.981 384.687C982.729 384.333 988.477 382.778 993.651 379.95C993.97 379.809 994.226 379.526 994.353 379.243C994.928 378.112 993.906 377.193 993.012 376.557C988.541 373.517 983.943 370.407 978.897 368.923C973.787 367.438 968.039 367.65 963.696 370.973C958.65 374.861 956.798 382.778 955.968 389.564Z" fill="#7FCCBB"/>
<path d="M994.481 378.89C994.481 378.89 994.29 378.819 994.034 378.678C993.715 378.466 993.268 378.254 992.757 377.971C991.671 377.335 990.074 376.416 988.094 375.355C986.114 374.295 983.687 373.164 980.877 372.316C978.067 371.467 974.873 370.973 971.552 371.467C968.231 371.962 965.165 373.376 963.057 375.497C960.886 377.617 959.544 380.233 958.65 382.354C957.692 384.545 957.117 386.454 956.734 387.726C956.542 388.362 956.351 388.857 956.287 389.211C956.159 389.564 956.095 389.706 956.095 389.706C956.095 389.706 956.095 389.493 956.223 389.14C956.351 388.787 956.479 388.292 956.606 387.656C956.99 386.383 957.501 384.474 958.459 382.212C959.353 380.021 960.694 377.335 962.929 375.143C965.101 372.952 968.231 371.467 971.616 370.973C975.001 370.478 978.258 370.973 981.069 371.821C983.879 372.669 986.306 373.942 988.286 375.002C990.266 376.062 991.799 377.052 992.884 377.759C993.395 378.112 993.779 378.324 994.098 378.536C994.29 378.819 994.481 378.89 994.481 378.89Z" fill="#263238"/>
<path d="M988.094 382.707C988.03 382.778 984.581 380.304 980.302 377.123C976.087 373.941 972.702 371.326 972.702 371.255C972.765 371.185 976.214 373.659 980.494 376.84C984.709 379.95 988.094 382.636 988.094 382.707Z" fill="#263238"/>
<path d="M984.709 370.902C984.709 370.973 983.496 371.326 982.027 371.538C980.494 371.679 979.28 371.609 979.28 371.467C979.28 371.326 980.494 371.255 982.027 371.114C983.496 370.973 984.709 370.76 984.709 370.902Z" fill="#263238"/>
<path d="M969.125 367.791C969.189 367.862 968.678 368.993 967.975 370.336C967.273 371.679 966.634 372.74 966.506 372.669C966.442 372.598 966.953 371.467 967.656 370.124C968.422 368.781 969.061 367.721 969.125 367.791Z" fill="#263238"/>
<path d="M972.254 384.969C972.254 385.04 971.616 384.616 970.594 383.979C969.572 383.273 968.231 382.283 966.762 381.152C965.293 379.95 964.015 378.89 963.121 378.042C962.227 377.264 961.652 376.698 961.652 376.698C961.652 376.628 962.291 377.122 963.249 377.829C964.271 378.678 965.548 379.667 966.953 380.798C968.422 381.929 969.7 382.99 970.722 383.697C971.68 384.474 972.254 384.898 972.254 384.969Z" fill="#263238"/>
<path d="M959.864 402.076C957.309 401.369 954.307 404.056 953.796 406.883C953.285 409.711 954.243 412.609 955.393 415.225C957.884 421.021 961.333 426.394 965.867 430.423C970.402 434.453 976.087 436.998 981.899 436.927C980.813 431.413 982.154 425.687 981.579 420.032C981.069 415.154 979.025 410.489 975.831 407.025C972.702 403.561 968.422 401.299 964.015 400.804C962.355 400.663 960.502 400.38 959.864 402.076Z" fill="#7FCCBB"/>
<path d="M981.899 436.998C981.899 436.998 981.771 436.927 981.516 436.786C981.26 436.644 980.941 436.432 980.558 436.079C979.791 435.442 978.833 434.099 978.067 432.403C977.683 431.554 977.236 430.565 976.789 429.575C976.342 428.515 975.895 427.384 975.448 426.253C974.937 425.051 974.426 423.849 973.787 422.718C973.149 421.516 972.318 420.385 971.488 419.254C969.764 416.992 967.911 415.013 966.251 413.175C964.654 411.337 963.249 409.499 962.291 407.873C961.269 406.247 960.694 404.763 960.375 403.773C960.183 403.278 960.119 402.854 960.055 402.571C959.991 402.289 959.991 402.147 959.991 402.147C960.055 402.147 960.183 402.713 960.566 403.702C960.949 404.692 961.588 406.106 962.61 407.732C963.632 409.358 964.973 411.054 966.634 412.892C968.231 414.73 970.147 416.709 971.871 418.972C972.765 420.103 973.532 421.304 974.234 422.506C974.873 423.708 975.448 424.98 975.895 426.111C976.342 427.313 976.789 428.444 977.236 429.434C977.683 430.494 978.131 431.413 978.514 432.332C979.28 434.099 980.11 435.372 980.877 436.079C981.388 436.715 981.899 436.998 981.899 436.998Z" fill="#263238"/>
<path d="M968.742 432.403C968.678 432.403 968.805 431.696 968.997 430.494C969.189 429.363 969.508 427.737 969.955 426.041C970.402 424.344 970.849 422.789 971.233 421.658C971.616 420.527 971.871 419.891 971.935 419.891C971.999 419.891 971.807 420.597 971.488 421.728C971.169 422.86 970.722 424.415 970.274 426.111C969.827 427.808 969.444 429.434 969.189 430.565C968.997 431.696 968.805 432.403 968.742 432.403Z" fill="#263238"/>
<path d="M981.388 418.901C981.388 418.971 980.685 418.759 979.6 418.477C978.514 418.194 976.981 417.699 975.32 417.275C973.66 416.851 972.127 416.497 970.977 416.285C969.891 416.073 969.189 415.932 969.189 415.861C969.189 415.79 969.891 415.861 971.041 416.002C972.191 416.144 973.724 416.427 975.384 416.851C977.045 417.275 978.578 417.77 979.663 418.123C980.749 418.547 981.388 418.83 981.388 418.901Z" fill="#263238"/>
<path d="M959.353 422.789C959.289 422.789 959.417 421.941 959.608 420.597C959.8 419.254 960.183 417.416 960.63 415.437C961.077 413.458 961.588 411.62 962.035 410.347C962.419 409.075 962.738 408.297 962.738 408.297C962.802 408.297 962.61 409.146 962.227 410.418C961.908 411.761 961.397 413.528 960.95 415.508C960.502 417.487 960.055 419.325 959.8 420.668C959.608 422.011 959.417 422.86 959.353 422.789Z" fill="#263238"/>
<path d="M975.576 407.095C975.576 407.237 972.382 406.954 968.486 406.459C964.59 406.035 961.46 405.54 961.46 405.47C961.46 405.328 964.654 405.611 968.55 406.106C972.446 406.53 975.576 407.025 975.576 407.095Z" fill="#263238"/>
<path d="M973.276 449.58C973.276 449.722 962.163 449.792 948.431 449.792C934.699 449.792 923.586 449.722 923.586 449.58C923.586 449.439 934.699 449.368 948.431 449.368C962.099 449.368 973.276 449.51 973.276 449.58Z" fill="#455B64"/>
<path d="M950.092 442.229H949.644C949.708 441.663 953.477 382.142 945.748 376.699L946.004 376.274C949.325 378.678 951.05 390.483 951.05 411.478C951.114 426.96 950.155 442.087 950.092 442.229Z" fill="#263238"/>
<path d="M946.132 376.345C945.94 373.8 943.577 371.891 941.278 371.821C938.978 371.821 936.807 373.305 935.402 375.355C933.996 377.405 933.23 379.88 932.591 382.354C931.058 388.362 930.164 394.725 930.867 400.945C931.505 407.166 933.805 413.316 937.829 417.699C938.467 418.406 939.361 419.113 940.256 418.901C940.767 418.759 941.15 418.406 941.533 418.052C949.453 410.135 954.052 398.259 953.732 386.454C953.668 384.121 953.413 381.647 952.199 379.667C950.922 377.617 948.176 375.567 946.132 376.345Z" fill="#7FCCBB"/>
<path d="M939.042 419.396C939.042 419.396 939.042 419.254 938.978 418.971C938.978 418.618 938.978 418.194 938.914 417.699C938.85 416.568 938.85 414.942 938.914 412.963C938.978 410.983 939.042 408.58 939.298 405.964C939.553 403.349 939.872 400.45 940.319 397.481C940.83 394.512 941.405 391.685 941.98 389.14C942.619 386.595 943.257 384.333 943.832 382.424C944.407 380.516 944.918 379.031 945.301 377.971C945.493 377.476 945.621 377.123 945.748 376.769C945.876 376.486 945.94 376.345 945.94 376.345C945.94 376.345 945.94 376.486 945.812 376.769C945.685 377.052 945.557 377.476 945.429 377.971C945.11 379.031 944.599 380.516 944.024 382.424C943.449 384.333 942.874 386.595 942.236 389.14C941.661 391.685 941.086 394.512 940.575 397.481C940.128 400.45 939.745 403.349 939.489 405.964C939.234 408.58 939.106 410.913 939.042 412.892C938.978 414.871 938.914 416.497 938.978 417.628C938.978 418.123 938.978 418.547 938.978 418.901C939.042 419.254 939.042 419.396 939.042 419.396Z" fill="#263238"/>
<path d="M940.575 397.199C940.639 397.27 940.192 397.764 939.425 398.613C938.659 399.461 937.573 400.592 936.36 401.794C935.146 402.995 933.996 404.056 933.102 404.763C932.272 405.47 931.697 405.894 931.697 405.894C931.697 405.823 932.144 405.328 932.974 404.551C933.869 403.702 934.954 402.642 936.168 401.511C937.318 400.38 938.403 399.32 939.298 398.401C940.064 397.623 940.511 397.128 940.575 397.199Z" fill="#263238"/>
<path d="M949.9 405.469C949.836 405.469 949.389 404.762 948.623 403.561C947.792 402.288 946.834 400.662 945.685 398.824C944.535 397.057 943.513 395.431 942.683 394.159C941.916 392.957 941.469 392.25 941.469 392.18C941.533 392.18 942.044 392.816 942.874 393.947C943.705 395.078 944.79 396.704 945.94 398.542C947.09 400.38 948.112 402.076 948.75 403.349C949.517 404.692 949.964 405.469 949.9 405.469Z" fill="#263238"/>
<path d="M945.046 379.314C945.11 379.385 941.98 381.718 938.148 384.474C934.252 387.231 931.122 389.423 931.058 389.281C930.994 389.211 934.124 386.878 937.956 384.121C941.789 381.435 944.982 379.243 945.046 379.314Z" fill="#263238"/>
<path d="M953.732 389.776C953.668 389.847 951.561 387.726 949.07 384.969C946.579 382.212 944.535 379.95 944.663 379.88C944.727 379.809 946.834 381.93 949.325 384.686C951.816 387.443 953.796 389.706 953.732 389.776Z" fill="#263238"/>
<path d="M951.114 408.721L950.666 408.58C950.73 408.297 952.199 401.794 955.584 400.521C956.926 400.026 958.459 400.451 959.991 401.794L959.736 402.147C958.331 400.875 956.99 400.451 955.776 400.945C952.582 402.218 951.114 408.651 951.114 408.721Z" fill="#263238"/>
<path d="M973.213 442.087H923.65V449.651H973.213V442.087Z" fill="#C4D3EC"/>
<path d="M973.276 449.722H923.586V442.017H973.276V449.722ZM923.713 449.51H973.085V442.158H923.713V449.51Z" fill="#C4D3EC"/>
<path d="M928.248 482.381L932.016 488.177H964.079L968.614 482.381H928.248Z" fill="#C4D3EC"/>
<path d="M719.074 82.3432C702.468 82.3432 688.927 67.3568 688.927 48.9772C688.927 30.5977 702.468 15.6113 719.074 15.6113C735.68 15.6113 749.221 30.5977 749.221 48.9772C749.221 67.3568 735.68 82.3432 719.074 82.3432ZM719.074 17.6613C703.49 17.6613 690.844 31.6581 690.844 48.9066C690.844 66.155 703.49 80.1518 719.074 80.1518C734.658 80.1518 747.305 66.155 747.305 48.9066C747.305 31.6581 734.594 17.6613 719.074 17.6613Z" fill="#F4F4F4"/>
<path d="M738.746 49.9671H718.116V35.1221H720.032V47.8464H738.746V49.9671Z" fill="#F4F4F4"/>
<path d="M965.064 69.1023L956.378 69.1536L956.61 117.011L965.296 116.96L965.064 69.1023Z" fill="#E0E0E0"/>
<path d="M903.544 69.2027L881.062 69.3359L881.19 95.7742L903.672 95.6409L903.544 69.2027Z" fill="#F5F5F5"/>
<path d="M925.963 69.0613L903.48 69.1946L903.608 95.6328L926.09 95.4996L925.963 69.0613Z" fill="#F5F5F5"/>
<path d="M881.112 76.6177C896.058 76.759 911.067 76.6884 926.013 76.4056C926.332 76.4056 926.332 75.9108 926.013 75.9108C911.067 75.8401 896.058 75.9107 881.112 76.1935C880.857 76.1935 880.857 76.6177 881.112 76.6177Z" fill="#E0E0E0"/>
<path d="M907.899 95.2331L867.022 95.4756L867.127 117.036L908.003 116.794L907.899 95.2331Z" fill="#F5F5F5"/>
<path d="M948.648 94.9501L907.772 95.1924L907.876 116.753L948.753 116.511L948.648 94.9501Z" fill="#F5F5F5"/>
<path d="M867.061 101.43C894.205 101.783 921.478 101.43 948.686 101.005C949.006 101.005 949.006 100.511 948.686 100.511C921.542 100.369 894.269 100.369 867.061 101.005C866.805 101.005 866.805 101.43 867.061 101.43Z" fill="#E0E0E0"/>
<path d="M1010.19 116.982H851.732V124.687H1010.19V116.982Z" fill="#E0E0E0"/>
<path d="M884.178 120.728H877.727V147.025H884.178V120.728Z" fill="#E0E0E0"/>
<path d="M980.174 120.728H973.723V147.025H980.174V120.728Z" fill="#E0E0E0"/>
<path d="M973.579 51.2173L964.893 51.2686L965.212 117.081L973.899 117.03L973.579 51.2173Z" fill="#EBEBEB"/>
<path d="M987.086 63.5035L973.609 63.5835L973.868 116.955L987.344 116.875L987.086 63.5035Z" fill="#F5F5F5"/>
<path d="M980.494 101.713C980.366 101.713 980.238 96.34 980.238 89.6951C980.238 83.0502 980.366 77.6777 980.494 77.6777C980.621 77.6777 980.749 83.0502 980.749 89.6951C980.749 96.34 980.621 101.713 980.494 101.713Z" fill="#E0E0E0"/>
<path d="M1001.89 76.6174H987.2V116.911H1001.89V76.6174Z" fill="#EBEBEB"/>
<path d="M969.827 70.1138H968.295V109.276H969.827V70.1138Z" fill="#E0E0E0"/>
<path d="M311.454 434.438L312.387 443.521L329.489 450.084C330.111 450.349 330.546 450.946 330.546 451.675C330.546 452.604 329.862 453.399 328.929 453.399L292.363 453.598L293.793 444.118L294.166 433.709L311.454 434.438Z" fill="#FCD5C8"/>
<path d="M332.163 453.001C331.79 451.742 331.106 450.35 330.422 450.018L313.693 442.328C304.489 446.305 292.549 443.256 292.549 443.256L290.435 456.648C290.435 457.112 290.746 457.443 291.181 457.443H331.852C332.66 457.51 332.163 453.001 332.163 453.001Z" fill="#14365B"/>
<path d="M315.435 447.565L314.502 447.101C315.124 445.576 315.932 444.118 316.927 442.792L317.735 443.455C316.803 444.714 315.994 446.107 315.435 447.565Z" fill="#009294"/>
<path d="M317.922 448.294L316.989 447.83C317.549 446.504 317.984 445.642 318.979 444.184L319.787 444.847C318.855 446.173 318.482 447.035 317.922 448.294Z" fill="#009294"/>
<path d="M319.788 448.957L318.855 448.427C319.29 447.499 320.036 446.04 320.72 445.046L321.529 445.709C320.907 446.703 320.285 448.095 319.788 448.957Z" fill="#009294"/>
<path d="M332.289 453.822L290.624 454.053L290.629 455.181L332.295 454.949L332.289 453.822Z" fill="#009294"/>
<path d="M301.878 454.592C301.131 448.825 291.865 448.56 291.741 448.56V447.432C292.176 447.432 302.002 447.698 302.873 454.394L301.878 454.592Z" fill="#009294"/>
<path d="M324.203 454.592L323.208 454.261C323.767 452.338 326.379 448.294 326.504 448.095L327.374 448.758C327.374 448.825 324.7 452.802 324.203 454.592Z" fill="#009294"/>
<path d="M234.342 434.703L233.409 443.521L250.511 450.084C251.133 450.349 251.568 450.946 251.568 451.675C251.568 452.603 250.884 453.399 249.951 453.399L213.385 453.598L214.815 444.118L216.308 434.173L234.342 434.703Z" fill="#FCD5C8"/>
<path d="M253.185 453.001C252.812 451.742 252.128 450.349 251.444 450.018L234.715 442.328C225.511 446.305 213.571 443.256 213.571 443.256L211.457 456.648C211.457 457.112 211.768 457.443 212.203 457.443H252.874C253.682 457.509 253.185 453.001 253.185 453.001Z" fill="#14365B"/>
<path d="M236.394 447.565L235.461 447.101C236.083 445.576 236.892 444.118 237.887 442.792L238.695 443.455C237.825 444.714 237.016 446.106 236.394 447.565Z" fill="#009294"/>
<path d="M238.944 448.294L238.011 447.83C238.571 446.504 239.006 445.642 240.001 444.184L240.809 444.847C239.877 446.173 239.503 447.035 238.944 448.294Z" fill="#009294"/>
<path d="M240.81 448.957L239.877 448.427C240.312 447.499 241.058 446.04 241.742 445.046L242.551 445.709C241.929 446.703 241.307 448.095 240.81 448.957Z" fill="#009294"/>
<path d="M253.31 453.822L211.645 454.053L211.65 455.181L253.316 454.949L253.31 453.822Z" fill="#009294"/>
<path d="M222.899 454.592C222.153 448.825 212.887 448.559 212.763 448.559V447.432C213.198 447.432 223.024 447.698 223.894 454.393L222.899 454.592Z" fill="#009294"/>
<path d="M245.225 454.592L244.23 454.261C244.789 452.338 247.401 448.294 247.526 448.095L248.396 448.758C248.396 448.825 245.722 452.802 245.225 454.592Z" fill="#009294"/>
<path d="M318.047 213.141C323.892 287.459 319.352 434.372 319.352 434.372H288.57C288.57 434.372 283.843 338.905 277.811 261.869C258.284 227.395 257.041 207.904 254.864 202.932L318.047 213.141Z" fill="#83ABDB"/>
<path d="M287.512 208.169C277.065 266.775 238.322 438.549 238.322 438.549L211.581 435.764C211.581 435.764 219.79 330.618 232.041 249.737C231.792 230.975 234.28 215.395 237.078 200.147L287.512 208.169Z" fill="#83ABDB"/>
<path d="M218.609 436.427C218.733 435.433 229.429 330.817 241.556 250.864C241.307 233.627 242.862 214.799 245.971 197.959L246.966 198.158C243.919 214.931 242.364 233.693 242.613 250.93C230.549 330.95 219.79 435.565 219.666 436.56L218.609 436.427Z" fill="#009294"/>
<path d="M315.186 102.294L330.173 119.199C330.173 119.199 365.869 89.4986 368.543 87.4434C370.346 86.1175 375.259 80.6149 377.995 81.6757C378.306 81.8083 379.115 81.6094 379.363 81.8745C379.612 82.1397 379.426 82.8027 379.674 83.1342C380.11 83.5982 380.98 83.5983 381.416 84.0623C381.851 84.5264 381.913 85.4546 382.535 85.6534C384.649 86.3164 379.426 88.1064 382.659 88.0401C385.893 87.9738 384.338 90.2279 384.338 90.2279L380.483 93.609L368.045 108.526L333.345 143.994C329.24 148.038 322.711 148.038 318.606 143.994L295.472 112.702L315.186 102.294Z" fill="#FBCDC8"/>
<path d="M318.046 213.141L309.9 81.5431C309.9 81.5431 302.189 70.2728 287.201 71.2672C272.214 72.2617 236.767 79.5543 236.767 79.5543L236.519 202.865C242.799 203.396 252.314 204.523 263.819 207.108C274.577 209.495 278.557 211.219 286.704 212.677C293.98 213.937 304.614 214.931 318.046 213.141Z" fill="#B33838"/>
<path d="M309.962 81.5432C309.962 81.5432 325.633 103.554 328.307 115.155C319.477 120.26 312.947 129.21 312.947 129.21L309.962 81.5432Z" fill="#B33838"/>
<path d="M238.509 79.1565C238.509 79.1565 215.126 82.8691 212.079 107.531C209.032 132.26 209.032 132.26 209.032 132.26H238.509L240.685 100.172L238.509 79.1565Z" fill="#B33838"/>
<path d="M302.438 152.082L280.672 177.209L336.703 176.678L354.115 153.342C354.613 152.679 354.115 151.817 353.369 151.751L304.365 151.154C303.619 151.221 302.935 151.486 302.438 152.082Z" fill="#151213"/>
<path d="M302.748 152.944L281.356 177.54H336.392L353.493 154.204C353.991 153.541 353.493 152.679 352.747 152.613L304.676 152.016C303.868 152.082 303.184 152.414 302.748 152.944Z" fill="#5760AB"/>
<path d="M235.772 132.26L235.71 143.199L279.863 163.419C279.863 163.419 289.876 156.392 296.405 155.861C298.831 156.392 297.96 158.646 293.296 161.629C290.871 163.751 290.373 167.529 290.373 167.529L293.918 170.911C293.918 170.911 307.723 164.082 309.651 165.275C311.579 166.469 297.96 172.303 297.96 172.303C297.96 172.303 311.268 166.8 311.828 169.253C312.263 171.308 300.136 174.358 300.261 174.623C300.572 175.286 312.512 170.248 312.823 172.17C313.071 174.093 301.567 176.413 301.442 177.142C301.318 177.805 313.134 173.032 312.823 174.888C312.263 176.612 309.029 178.269 301.753 180.059C290.186 182.844 218.173 161.231 215.561 156.988C213.012 152.812 211.519 132.392 211.519 132.392H235.772V132.26Z" fill="#FBCDC6"/>
<path d="M319.601 164.811C321.031 164.811 322.213 163.817 322.462 162.425C323.892 162.623 325.074 163.883 325.074 165.408C325.074 167.065 323.768 168.391 322.151 168.391C320.534 168.391 319.228 167.065 319.228 165.408C319.228 165.209 319.228 165.01 319.29 164.811C319.352 164.811 319.477 164.811 319.601 164.811Z" fill="white"/>
<path d="M277.687 72.3279C277.687 72.3279 271.654 83.2668 264.068 84.0623C256.481 84.8579 245.163 77.8968 245.163 77.8968C250.075 76.6371 255.424 75.4438 261.145 74.4494C266.99 73.3886 272.525 72.7257 277.687 72.3279Z" fill="#FBCDC6"/>
<path d="M260.088 83.4658C254.429 83.4658 249.827 79.7532 249.827 75.1787V57.5439H270.349V75.1787C270.411 79.7532 265.809 83.4658 260.088 83.4658Z" fill="#FBCDC6"/>
<path d="M243.857 48.2623L241.432 33.2793C239.939 25.5227 248.397 21.4123 253.496 21.4786H271.157C276.567 21.4786 283.035 25.589 280.237 34.2738L278.62 47.4667L243.857 48.2623Z" fill="#1A1A1A"/>
<path d="M274.64 51.7097C277.935 54.7593 285.336 43.2901 282.164 40.0416C278.993 36.793 276.132 41.8316 276.132 41.8316L275.572 46.2734L274.64 50.3838L274.329 51.6434L274.64 51.7097Z" fill="#FBCDC6"/>
<path d="M246.966 52.0412C242.986 54.6931 236.083 42.4946 240.001 39.6438C243.919 36.7931 246.344 42.0968 246.344 42.0968L247.526 46.2072L247.153 50.7153L247.401 51.9749L246.966 52.0412Z" fill="#FBCDC6"/>
<path d="M241.68 43.3565C241.68 43.3565 244.292 42.4946 246.095 46.3398" stroke="#D26765" stroke-width="0.5208" stroke-miterlimit="10" stroke-linecap="round" stroke-linejoin="round"/>
<path d="M244.852 44.4172C244.852 44.4172 242.053 45.9421 243.919 48.2624" stroke="#D26765" stroke-width="0.5208" stroke-miterlimit="10" stroke-linecap="round" stroke-linejoin="round"/>
<path d="M279.366 36.3953C279.366 43.9531 278.371 50.4501 277.376 55.0908C276.381 59.599 273.707 63.5768 269.851 66.096L269.167 66.5601C265.125 69.2782 259.839 69.2782 255.735 66.6927C251.568 64.0408 248.645 59.7979 247.775 54.9582C246.158 46.1408 245.971 36.329 245.971 36.329C245.971 36.329 244.416 17.302 262.451 17.6334C280.485 18.0312 279.366 36.3953 279.366 36.3953Z" fill="#FBCDC6"/>
<path d="M279.366 9.08128C271.095 8.28572 262.575 13.5231 256.419 16.3739C256.543 14.5176 255.424 14.7165 255.424 14.7165C244.603 17.6335 247.402 26.3183 247.402 26.3183C247.402 26.3183 247.464 26.3183 247.526 26.3846C246.407 28.9039 244.914 34.2076 246.282 43.8205C246.282 43.8205 249.143 33.412 249.267 27.1802C254.056 29.3679 267.239 34.6054 275.883 31.6883C276.754 36.992 278.993 43.8868 278.993 43.8868C279.926 37.655 279.552 33.2131 278.931 30.1635C279.49 29.7657 279.988 29.3679 280.423 28.9039C280.361 28.9039 289.316 10.0757 279.366 9.08128Z" fill="#1A1A1A"/>
<path d="M374.264 84.5929L375.134 80.9466C375.134 80.9466 376.005 78.8251 376.689 74.8473C376.876 73.7866 376.876 72.7258 376.751 71.6651C376.565 70.4055 376.316 68.6818 375.881 67.8199C375.383 66.7592 376.316 65.5658 377.187 66.0299C378.119 66.494 379.612 69.4773 379.799 73.3225C379.985 77.234 383.281 72.2618 384.525 70.4718C385.769 68.6818 389.811 63.3781 390.619 63.3118C391.801 63.3118 392.049 64.6377 390.806 66.4277C389.5 68.2177 386.079 73.7203 386.95 74.3833C387.821 75.0462 393.977 65.8973 393.977 65.8973C393.977 65.8973 394.972 63.7096 396.092 64.4388C398.019 65.7647 390.806 74.9799 390.059 75.8418C389.562 76.4384 390.495 77.234 390.992 76.5047C391.49 75.8418 396.962 67.1569 398.89 68.5492C400.383 69.5436 393.044 76.1733 392.796 78.6925C392.609 81.1455 397.895 73.0573 399.325 74.1181C399.823 74.5159 400.196 74.8473 396.527 79.024C392.734 83.3333 382.473 91.6866 382.473 91.6866L374.202 84.3277" fill="#FBCCC5"/>
<path d="M265.436 50.4501C265.436 50.3838 266.058 50.3175 267.115 50.3175C267.364 50.3175 267.612 50.3175 267.612 50.1186C267.675 49.986 267.612 49.6545 267.55 49.2568C267.364 48.5275 267.177 47.7319 266.99 46.9364C266.244 43.6879 265.809 40.9697 265.933 40.9697C266.058 40.9034 266.804 43.5553 267.55 46.8038C267.737 47.5993 267.861 48.3286 268.048 49.1242C268.11 49.4556 268.234 49.8534 268.048 50.3175C267.923 50.5164 267.737 50.649 267.55 50.7153C267.364 50.7153 267.239 50.7153 267.115 50.7153C266.12 50.649 265.436 50.5164 265.436 50.4501Z" fill="#263238"/>
<path d="M273.582 39.3787C273.458 39.5113 272.712 38.8483 271.592 38.782C270.473 38.7157 269.665 39.3124 269.54 39.1798C269.478 39.1135 269.602 38.8483 269.975 38.5831C270.349 38.3179 270.908 38.0527 271.592 38.0527C272.276 38.119 272.836 38.3842 273.209 38.7157C273.52 39.0472 273.645 39.3124 273.582 39.3787Z" fill="#14365B"/>
<path d="M262.202 38.8484C262.078 38.981 261.269 38.318 260.212 38.2517C259.093 38.1854 258.284 38.7821 258.16 38.6495C258.098 38.5832 258.222 38.318 258.595 38.0528C258.968 37.7876 259.528 37.5225 260.212 37.5225C260.896 37.5888 261.456 37.8539 261.829 38.1854C262.14 38.5169 262.264 38.7821 262.202 38.8484Z" fill="#14365B"/>
<path d="M270.659 41.8316C270.722 42.9586 271.219 43.7541 271.717 43.7541C272.214 43.6878 272.587 42.7597 272.463 41.699C272.401 40.5719 271.903 39.7764 271.406 39.7764C270.908 39.7764 270.597 40.7045 270.659 41.8316Z" fill="#14365B"/>
<path d="M261.331 41.1687C261.456 42.2957 261.145 43.2239 260.647 43.2902C260.15 43.3565 259.652 42.5609 259.528 41.4339C259.404 40.3069 259.714 39.3787 260.212 39.3124C260.709 39.2461 261.207 40.108 261.331 41.1687Z" fill="#14365B"/>
<path d="M263.384 56.0854H269.727C269.727 56.0854 266.12 60.5936 265 58.5384C263.943 56.4832 263.384 56.0854 263.384 56.0854Z" fill="white"/>
<path d="M310.273 433.444L308.532 223.417H309.091L310.895 433.444H310.273Z" fill="#009294"/>
<path d="M268.981 293.956L268.172 293.691C268.234 293.36 275.324 262.532 276.754 252.389L277.5 253.052C276.008 263.195 269.043 293.691 268.981 293.956Z" fill="#009294"/>
<path d="M288.072 434.306C288.01 433.179 283.906 322.663 276.194 250.93L277.252 250.798C284.963 322.596 289.129 433.179 289.129 434.239L288.072 434.306Z" fill="#009294"/>
<path d="M709.455 251.925H616.484C610.266 271.747 604.109 291.504 597.89 311.326C635.079 312.851 672.329 314.376 709.517 315.901C710.885 307.017 711.942 296.41 711.942 284.476C712.004 272.013 710.885 261.074 709.455 251.925Z" fill="#313A3D"/>
<path d="M601 331.149L572.456 457.974H576.995L609.768 334.265L601 331.149Z" fill="#D09A2D"/>
<path d="M625.377 330.751L657.404 455.985H661.695L633.524 329.16L625.377 330.751Z" fill="#D09A2D"/>
<path d="M594.719 337.182C594.719 337.182 583.774 309.271 616.174 301.382C648.635 293.493 650.75 245.03 654.108 251.262C657.404 257.427 664.244 332.607 637.442 337.116C610.639 341.624 594.719 337.182 594.719 337.182Z" fill="#263238"/>
<path d="M616.609 290.774C616.609 290.774 576.995 182.91 606.908 178.203C636.82 173.496 673.759 178.203 673.759 178.203L691.483 292.1L616.609 290.774Z" fill="#F99B23"/>
<path d="M602.741 234.754C602.741 234.754 595.714 265.714 574.57 267.571C553.426 269.427 513.875 267.571 513.875 267.571L521.773 234.754L563.128 238.533L600.938 181.783L602.741 234.754Z" fill="#F99B23"/>
<path d="M562.692 432.184L562.195 443.322L544.285 450.151C543.601 450.416 543.166 451.079 543.166 451.808C543.166 452.802 543.912 453.598 544.845 453.598L583.152 453.797L581.597 443.852L581.1 432.45L562.692 432.184Z" fill="#FCD5C8"/>
<path d="M541.486 453.267C541.86 451.941 542.606 450.482 543.29 450.151L560.765 442.129C570.404 446.305 582.903 443.123 582.903 443.123L585.142 457.178C585.142 457.642 584.769 458.04 584.334 458.04H541.735C540.865 457.974 541.424 453.267 541.486 453.267Z" fill="#14365B"/>
<path d="M558.961 447.565L559.956 447.101C559.272 445.51 558.401 443.985 557.406 442.593L556.536 443.322C557.531 444.582 558.339 446.04 558.961 447.565Z" fill="#009294"/>
<path d="M556.349 448.294L557.344 447.83C556.722 446.438 556.349 445.576 555.292 443.985L554.421 444.648C555.354 446.173 555.789 447.035 556.349 448.294Z" fill="#009294"/>
<path d="M554.359 449.024L555.292 448.493C554.795 447.499 554.111 446.04 553.364 444.979L552.494 445.642C553.178 446.637 553.924 448.095 554.359 449.024Z" fill="#009294"/>
<path d="M541.263 454.135L541.258 455.262L584.913 455.505L584.919 454.378L541.263 454.135Z" fill="#009294"/>
<path d="M573.14 454.924C573.948 448.891 583.65 448.626 583.774 448.626V447.499C583.339 447.499 573.078 447.83 572.083 454.791L573.14 454.924Z" fill="#009294"/>
<path d="M549.757 454.924L550.815 454.592C550.255 452.537 547.456 448.361 547.332 448.162L546.461 448.825C546.461 448.891 549.198 453.068 549.757 454.924Z" fill="#009294"/>
<path d="M619.78 432.184L619.283 443.322L601.373 450.151C600.689 450.416 600.253 451.079 600.253 451.808C600.253 452.802 601 453.598 601.932 453.598L640.24 453.797L638.685 443.852L638.126 431.72L619.78 432.184Z" fill="#FCD5C8"/>
<path d="M598.574 453.267C598.948 451.941 599.694 450.482 600.378 450.151L617.853 442.129C627.492 446.305 639.991 443.123 639.991 443.123L642.23 457.178C642.23 457.642 641.857 458.04 641.422 458.04H598.823C598.015 457.974 598.574 453.267 598.574 453.267Z" fill="#14365B"/>
<path d="M616.049 447.565L617.044 447.101C616.36 445.51 615.489 443.985 614.494 442.593L613.624 443.322C614.619 444.582 615.427 446.04 616.049 447.565Z" fill="#009294"/>
<path d="M613.437 448.294L614.432 447.83C613.81 446.438 613.437 445.576 612.38 443.985L611.51 444.648C612.505 446.173 612.878 447.035 613.437 448.294Z" fill="#009294"/>
<path d="M611.447 449.024L612.38 448.493C611.882 447.499 611.198 446.04 610.452 444.979L609.582 445.642C610.266 446.637 611.012 448.095 611.447 449.024Z" fill="#009294"/>
<path d="M598.363 454.147L598.358 455.274L642.013 455.517L642.019 454.39L598.363 454.147Z" fill="#009294"/>
<path d="M630.228 454.924C631.036 448.891 640.738 448.626 640.862 448.626V447.499C640.427 447.499 630.166 447.83 629.171 454.791L630.228 454.924Z" fill="#009294"/>
<path d="M606.845 454.924L607.903 454.592C607.343 452.537 604.544 448.361 604.42 448.162L603.549 448.825C603.549 448.891 606.348 453.068 606.845 454.924Z" fill="#009294"/>
<path d="M559.085 432.516L555.727 322C555.727 322 551.498 290.244 590.739 289.581C629.917 288.918 641.359 289.581 641.359 289.581L651.807 335.325L592.978 336.254L585.142 432.914L559.085 432.516Z" fill="#83ABDB"/>
<path d="M616.174 432.184L613.251 322C613.251 322 609.022 290.244 648.262 289.581C687.44 288.918 691.607 292.1 691.607 292.1C692.54 295.614 694.343 304.166 691.296 314.31C689.306 320.873 686.072 325.713 683.212 329.094C680.849 331.878 677.49 333.536 673.884 333.933L650.439 336.32L642.23 432.251H629.109H616.174V432.184Z" fill="#83ABDB"/>
<path d="M662.939 332.143L634.332 459.565H638.934L671.707 335.325L662.939 332.143Z" fill="#D09A2D"/>
<path d="M687.316 331.745L719.343 457.642H723.634L695.463 330.154L687.316 331.745Z" fill="#D09A2D"/>
<path d="M650.128 337.845C650.128 337.845 639.183 309.934 671.583 302.045C704.044 294.155 706.159 245.693 709.517 251.925C712.813 258.09 719.654 333.27 692.851 337.778C665.986 342.287 650.128 337.845 650.128 337.845Z" fill="#263238"/>
<path d="M432.099 457.244H427.372L462.57 277.648L467.048 278.642L432.099 457.244Z" fill="#F5BC36"/>
<path d="M497.458 457.244L462.571 278.642L467.048 277.648L502.184 457.244H497.458Z" fill="#F5BC36"/>
<path d="M720.703 277.623L685.76 456.286L690.265 457.287L725.207 278.624L720.703 277.623Z" fill="#F5BC36"/>
<path d="M725.184 277.576L720.679 278.577L755.638 457.24L760.143 456.238L725.184 277.576Z" fill="#F5BC36"/>
<path d="M758.832 267.438H430.979V278.112H758.832V267.438Z" fill="#F5BC36"/>
<path d="M594.843 268.101L585.951 209.76C585.577 207.307 583.587 205.517 581.286 205.517H504.796C501.935 205.517 499.759 208.235 500.132 211.219L507.532 268.101H594.843Z" fill="#D1E2F4"/>
<path d="M618.537 268.101H588.562C587.132 268.101 586.013 266.908 586.013 265.383V262.599C586.013 261.074 587.132 259.88 588.562 259.88H618.537C619.967 259.88 621.086 261.074 621.086 262.599V265.383C621.086 266.841 619.905 268.101 618.537 268.101Z" fill="#D1E2F4"/>
<path d="M549.695 239.129C545.777 239.129 542.544 236.014 542.544 232.235C542.544 231.439 542.73 230.644 542.979 229.914C539.248 230.113 536.263 233.097 536.263 236.809C536.263 240.654 539.434 243.704 543.414 243.704C546.524 243.704 549.135 241.781 550.13 239.129C550.006 239.129 549.82 239.129 549.695 239.129Z" fill="white"/>
<path d="M620.775 176.678C620.775 176.678 630.539 189.54 649.755 176.347C642.728 175.22 636.509 174.69 633.151 174.822C633.151 174.822 631.285 174.888 620.775 176.678Z" fill="#FBCCC5"/>
<path d="M625.813 177.341L626.621 171.905C626.621 171.905 615.489 171.905 614.494 160.568C613.624 149.961 613.624 149.961 612.878 144.922C611.758 128.415 618.599 128.68 626.559 129.741C634.519 130.801 640.551 124.105 642.23 134.05C643.909 143.994 652.18 144.392 653.113 145.585C654.108 146.779 655.041 155.331 645.713 161.496C644.034 168.723 644.593 177.408 644.593 177.408H625.813V177.341Z" fill="#FBCCC5"/>
<path d="M613.002 145.453C613.002 145.453 607.592 140.481 607.032 130.271C606.472 120.061 608.524 109.255 614.557 109.653C620.589 110.051 628.3 110.448 634.394 109.653C640.427 108.857 654.232 112.305 655.227 123.509C655.227 123.509 660.264 130.735 659.518 141.077C658.772 151.486 654.916 165.541 644.718 168.59L644.78 160.038C644.78 160.038 653.735 151.022 650.314 146.712C647.267 143 642.852 146.58 642.23 150.491C642.23 150.491 639.369 147.574 639.058 140.282C639.058 140.282 634.021 136.437 633.897 131.067C633.897 131.067 616.733 128.547 614.619 132.591C613.126 135.442 613.002 145.453 613.002 145.453Z" fill="#161B36"/>
<path d="M622.33 155.066C622.33 154.999 621.646 154.933 620.589 154.933C620.34 154.933 620.091 154.933 620.029 154.734C619.967 154.602 620.029 154.27 620.091 153.872C620.278 153.143 620.464 152.348 620.651 151.552C621.397 148.237 621.833 145.519 621.708 145.519C621.522 145.453 620.838 148.105 620.091 151.419C619.905 152.215 619.78 153.011 619.594 153.74C619.532 154.071 619.407 154.469 619.594 154.933C619.718 155.132 619.905 155.331 620.091 155.331C620.278 155.331 620.402 155.331 620.589 155.331C621.708 155.265 622.33 155.198 622.33 155.066Z" fill="#263238"/>
<path d="M613.997 143.862C614.121 143.994 614.93 143.331 616.049 143.265C617.169 143.199 618.039 143.796 618.164 143.663C618.226 143.597 618.101 143.331 617.728 143.066C617.355 142.801 616.733 142.536 616.049 142.536C615.365 142.602 614.743 142.867 614.432 143.199C614.059 143.53 613.935 143.796 613.997 143.862Z" fill="#14365B"/>
<path d="M625.688 143.331C625.813 143.464 626.621 142.801 627.74 142.735C628.86 142.668 629.73 143.265 629.855 143.132C629.917 143.066 629.793 142.801 629.419 142.536C629.046 142.271 628.425 142.005 627.74 142.005C627.056 142.072 626.435 142.337 626.124 142.668C625.75 143 625.626 143.265 625.688 143.331Z" fill="#14365B"/>
<path d="M617.044 146.315C616.982 147.442 616.485 148.304 615.925 148.237C615.427 148.171 615.054 147.243 615.179 146.116C615.241 144.989 615.738 144.127 616.298 144.193C616.795 144.326 617.106 145.254 617.044 146.315Z" fill="#14365B"/>
<path d="M626.559 145.718C626.435 146.845 626.745 147.773 627.243 147.84C627.74 147.906 628.3 147.044 628.425 145.983C628.549 144.856 628.238 143.928 627.74 143.862C627.181 143.795 626.683 144.591 626.559 145.718Z" fill="#14365B"/>
<path d="M624.444 160.767H617.977C617.977 160.767 621.708 165.275 622.828 163.22C623.885 161.165 624.444 160.767 624.444 160.767Z" fill="white"/>
<path d="M645.837 148.569C645.837 148.635 645.961 148.569 646.21 148.569C646.397 148.569 646.708 148.701 646.956 148.966C647.454 149.563 647.454 150.823 646.956 151.95C646.708 152.48 646.335 152.944 645.899 153.276C645.526 153.607 645.091 153.806 644.78 153.674C644.469 153.607 644.345 153.276 644.345 153.077C644.345 152.878 644.469 152.745 644.407 152.745C644.407 152.745 644.22 152.745 644.158 153.077C644.096 153.209 644.096 153.408 644.22 153.607C644.282 153.806 644.469 154.005 644.718 154.071C645.153 154.27 645.775 154.071 646.21 153.74C646.645 153.408 647.081 152.878 647.392 152.281C647.951 151.022 647.951 149.563 647.267 148.9C646.894 148.569 646.521 148.502 646.272 148.569C645.899 148.436 645.837 148.569 645.837 148.569Z" fill="#F5855A"/>
<path d="M572.021 432.184L574.757 324.254L613.126 314.111" stroke="#009294" stroke-miterlimit="10"/>
<path d="M629.171 432.184L633.524 329.16L648.324 325.58" stroke="#009294" stroke-miterlimit="10"/>
<path d="M648.014 255.836L659.891 254.908L659.518 267.504H649.257L648.014 255.836Z" fill="#FBCCC5"/>
<path d="M648.884 255.836C648.884 255.836 621.708 244.698 624.755 267.504H650.812L648.884 255.836Z" fill="#FBCCC5"/>
<path d="M673.946 178.203C673.946 178.203 729.417 258.554 707.403 263.195C685.388 267.836 651.869 267.438 651.869 267.438L648.449 248.676L680.911 242.312L667.23 212.147L673.946 178.203Z" fill="#F99B23"/>
<path d="M672.951 225.075L680.786 242.378L656.72 247.019L648.324 248.676L651.745 267.438L685.761 266.178" stroke="white" stroke-miterlimit="10"/>
<path d="M805.845 175.817L796.828 204.457L759.205 258.024L748.881 254.046L776.866 190.733L785.199 164.48L805.845 175.817Z" fill="#F5C7BE"/>
<path d="M775.56 429.334L773.757 440.737L751.556 449.223C750.747 449.554 750.188 450.35 750.188 451.278C750.188 452.537 751.12 453.532 752.302 453.532L799.751 453.797L797.885 441.532L798.445 428.671L775.56 429.334Z" fill="#FCD5C8"/>
<path d="M748.073 453.001C748.571 451.41 749.441 449.554 750.374 449.156L772.077 439.212C784.017 444.383 799.502 440.405 799.502 440.405L802.238 457.841C802.238 458.438 801.803 458.902 801.243 458.902H748.446C747.389 458.835 748.073 453.001 748.073 453.001Z" fill="#14365B"/>
<path d="M769.776 445.908L771.02 445.311C770.212 443.322 769.155 441.399 767.911 439.676L766.854 440.538C768.035 442.261 769.03 444.051 769.776 445.908Z" fill="#009294"/>
<path d="M766.543 446.836L767.787 446.239C767.04 444.582 766.543 443.455 765.237 441.466L764.18 442.328C765.361 444.184 765.859 445.245 766.543 446.836Z" fill="#009294"/>
<path d="M764.055 447.764L765.237 447.101C764.615 445.908 763.744 444.051 762.811 442.725L761.754 443.587C762.625 444.847 763.495 446.637 764.055 447.764Z" fill="#009294"/>
<path d="M747.87 454.022L747.863 455.48L801.966 455.781L801.974 454.322L747.87 454.022Z" fill="#009294"/>
<path d="M787.313 455.123C788.308 447.631 800.373 447.3 800.497 447.3V445.841C799.937 445.841 787.189 446.239 786.07 454.924L787.313 455.123Z" fill="#009294"/>
<path d="M758.334 455.057L759.64 454.659C758.956 452.14 755.473 446.902 755.349 446.703L754.23 447.499C754.292 447.565 757.712 452.736 758.334 455.057Z" fill="#009294"/>
<path d="M869.028 249.869L811.629 350.772L799.502 430.792L772.202 429.798L779.229 338.11L822.511 240.522L869.028 249.869Z" fill="#83ABDB"/>
<path d="M842.225 248.477L795.647 339.635L786.007 428.604" stroke="#009294" stroke-miterlimit="10"/>
<path d="M810.696 174.292L807.897 181.518L780.597 167.397C780.597 167.397 787.065 129.608 791.045 128.348C794.9 127.155 810.696 174.292 810.696 174.292Z" fill="#00B9C3"/>
<path d="M869.028 429.334L871.764 440.737L849.563 449.223C848.755 449.554 848.195 450.35 848.195 451.278C848.195 452.537 849.128 453.532 850.309 453.532L897.758 453.797L895.893 441.532L892.348 428.671L869.028 429.334Z" fill="#FCD5C8"/>
<path d="M846.081 453.001C846.578 451.41 847.449 449.554 848.381 449.156L870.085 439.212C882.025 444.383 897.51 440.405 897.51 440.405L900.246 457.841C900.246 458.438 899.811 458.902 899.251 458.902H846.454C845.334 458.835 846.018 453.001 846.081 453.001Z" fill="#14365B"/>
<path d="M867.784 445.908L869.028 445.311C868.219 443.322 867.162 441.399 865.918 439.676L864.861 440.538C865.98 442.261 866.976 444.051 867.784 445.908Z" fill="#009294"/>
<path d="M864.488 446.836L865.732 446.239C864.986 444.582 864.488 443.455 863.182 441.466L862.125 442.328C863.307 444.184 863.804 445.245 864.488 446.836Z" fill="#009294"/>
<path d="M862.063 447.764L863.244 447.101C862.622 445.908 861.752 444.051 860.819 442.725L859.762 443.587C860.632 444.847 861.503 446.637 862.063 447.764Z" fill="#009294"/>
<path d="M845.845 454.052L845.838 455.51L899.941 455.811L899.949 454.352L845.845 454.052Z" fill="#009294"/>
<path d="M885.321 455.123C886.316 447.631 898.38 447.3 898.505 447.3V445.841C897.945 445.841 885.197 446.239 884.077 454.924L885.321 455.123Z" fill="#009294"/>
<path d="M856.342 455.057L857.647 454.659C856.963 452.14 853.481 446.902 853.357 446.703L852.237 447.499C852.237 447.565 855.657 452.736 856.342 455.057Z" fill="#009294"/>
<path d="M897.945 430.792L874.065 332.408L886.005 278.708C886.005 278.708 895.457 258.024 886.005 240.588C861.379 236.61 822.511 240.588 822.511 240.588L836.877 345.866L866.416 430.659L897.945 430.792Z" fill="#83ABDB"/>
<path d="M888.803 248.477H818.967L790.858 128.415C790.858 128.415 835.82 107.929 850.496 120.393C865.11 132.856 880.408 160.303 888.803 248.477Z" fill="#00B9C3"/>
<path d="M873.07 248.477C873.07 248.477 875.122 270.09 869.028 276.852C865.918 283.681 854.289 334.729 854.289 334.729L883.953 430.726" stroke="#009294" stroke-miterlimit="10"/>
<path d="M832.524 314.044L831.031 303.702L835.135 302.111" stroke="#009294" stroke-miterlimit="10"/>
<path d="M848.817 193.12C848.817 193.12 827.86 219.639 820.584 222.025C813.308 224.412 748.384 228.854 748.384 228.854L740.735 216.059L805.783 200.943L828.544 173.032L848.817 193.12Z" fill="#FCD5C8"/>
<path d="M863.866 180.457L861.005 183.971L845.645 203.064L820.584 180.457L838.058 148.834L863.866 180.457Z" fill="#00B9C3"/>
<path d="M863.866 180.457L845.645 203.064L820.584 180.457L838.058 148.834" stroke="white" stroke-miterlimit="10"/>
<path d="M803.98 184.568L801.679 174.623" stroke="white" stroke-miterlimit="10"/>
<path d="M793.345 82.8693C792.91 76.2396 797.699 70.5381 803.98 70.273L825.496 69.5437L825.87 73.1237L828.668 117.012C828.668 117.012 824.75 122.713 818.407 123.774C814.862 124.371 808.83 121.918 809.079 121.586C807.897 118.404 807.462 115.553 807.462 115.553C807.462 115.553 799.378 115.288 796.331 104.548C794.714 99.2445 793.843 90.2281 793.345 82.8693Z" fill="#FCD5C8"/>
<path d="M791.853 72.1292C791.791 69.2122 792.475 65.8973 794.776 64.5051C796.02 63.7096 796.89 61.9858 798.258 61.4555C800.373 60.5936 801.368 59.2677 802.86 57.4114C804.353 55.5551 807.524 54.5607 809.763 54.6269C811.94 54.6932 813.93 56.417 816.106 56.3507C817.847 56.2181 819.34 54.9584 820.957 54.0966C822.511 53.2347 823.009 50.9144 824.128 52.4392L824.502 54.3618C824.439 55.4225 824.875 56.0855 824.75 57.0799C826.429 57.7429 828.046 58.8036 829.228 60.1959C830.223 61.3229 830.969 62.7151 832.026 63.7095C832.897 64.5051 833.892 65.1018 834.762 65.831C838.618 68.947 839.551 75.2451 836.877 79.5544C836.255 80.5488 835.509 81.477 835.571 82.6703C835.633 83.5984 836.379 84.394 836.877 85.1895C838.618 87.7751 838.742 91.554 837.063 94.2058C836.006 95.8633 834.451 97.1229 833.146 98.5814C831.84 100.04 827.797 107.001 828.046 108.99C826.056 106.67 825.807 96.9903 826.056 92.7473C822.636 90.8247 820.708 86.3166 821.579 82.3388C821.703 81.6759 821.952 81.0129 821.641 80.4162C821.268 79.7533 820.459 79.6207 819.713 79.4218C816.79 78.7588 814.178 76.571 812.997 73.7203C812.375 72.1292 812.126 70.4055 812.313 68.7481C811.753 66.9581 808.208 70.9358 808.519 69.3447C807.462 71.2673 807.338 68.5492 805.97 70.8695C804.912 72.6595 803.917 71.7314 801.43 72.9247C799.626 73.7203 798.507 71.4662 796.766 72.3281C793.843 73.8529 793.719 80.0184 793.283 82.9355C792.91 80.4825 791.915 75.0462 791.853 72.1292Z" fill="#263238"/>
<path d="M793.47 77.8307C793.47 77.8307 798.942 80.0185 805.348 75.5767C809.514 72.6596 814.614 70.8696 815.857 71.7315C817.101 72.5933 817.847 77.5655 822.387 78.56C822.387 78.56 823.071 88.173 826.491 87.4437C829.912 86.7144 826.927 67.6211 826.927 67.6211L817.288 68.4167L807.773 67.4885L799.129 69.8089L792.599 72.6596L793.47 77.8307Z" fill="#263238"/>
<path d="M826.802 64.903C826.865 64.7704 825.932 64.5052 824.999 65.0356C824.066 65.5659 823.693 66.4278 823.817 66.4941C823.942 66.5604 824.439 65.9637 825.248 65.4996C826.056 65.1682 826.802 65.1018 826.802 64.903Z" fill="#263238"/>
<path d="M823.444 62.1184C823.258 62.1847 823.506 63.2454 823.444 64.5714C823.444 65.8973 823.009 66.8917 823.133 67.0243C823.258 67.0906 823.942 66.0962 823.942 64.6377C824.004 63.1791 823.569 62.1184 823.444 62.1184Z" fill="#263238"/>
<path d="M821.516 88.2392C821.641 88.1067 825.807 83.267 828.792 88.9022C831.777 94.5374 825.87 96.5263 825.745 96.3937C825.621 96.1948 821.516 88.2392 821.516 88.2392Z" fill="#FCD5C8"/>
<path d="M826.181 93.2777C826.181 93.2777 826.305 93.2777 826.491 93.2777C826.678 93.2777 826.989 93.1451 827.176 92.8799C827.611 92.3496 827.611 91.0899 827.051 90.0955C826.802 89.5651 826.429 89.1673 826.056 88.8359C825.683 88.5044 825.248 88.3718 824.937 88.5044C824.626 88.5707 824.501 88.9022 824.564 89.101C824.564 89.2999 824.688 89.3662 824.626 89.4325C824.626 89.4325 824.439 89.4325 824.377 89.1673C824.315 89.0348 824.315 88.9022 824.377 88.7033C824.439 88.5044 824.626 88.3718 824.812 88.2392C825.248 88.0403 825.807 88.1729 826.243 88.5044C826.678 88.8359 827.113 89.2999 827.362 89.8966C827.922 91.0236 827.922 92.4159 827.3 93.1451C826.989 93.4766 826.616 93.5429 826.367 93.4766C826.305 93.4103 826.181 93.2777 826.181 93.2777Z" fill="#F5855A"/>
<path d="M805.472 97.2555C805.472 97.1892 804.85 97.1892 803.855 97.3218C803.606 97.3881 803.42 97.3881 803.358 97.2555C803.296 97.1229 803.296 96.7914 803.358 96.46C803.42 95.7307 803.482 95.0014 803.606 94.2059C803.917 91.0237 803.98 88.3718 803.855 88.3718C803.731 88.3718 803.358 90.9574 803.047 94.1396C802.985 94.9351 802.922 95.6644 802.86 96.3937C802.86 96.7251 802.736 97.1229 802.985 97.5207C803.109 97.7196 803.358 97.8522 803.544 97.7859C803.731 97.7859 803.855 97.7196 803.98 97.7196C804.912 97.5207 805.472 97.3881 805.472 97.2555Z" fill="#263238"/>
<path d="M796.393 87.8413C796.517 87.9739 797.201 87.1784 798.258 86.9795C799.316 86.7806 800.186 87.2447 800.248 87.0458C800.311 86.9795 800.124 86.7143 799.751 86.5154C799.378 86.3165 798.756 86.1176 798.134 86.2502C797.45 86.3828 796.952 86.7806 796.704 87.1121C796.393 87.5098 796.331 87.8413 796.393 87.8413Z" fill="#14365B"/>
<path d="M807.213 85.7861C807.338 85.9187 808.022 85.1232 809.079 84.9243C810.136 84.7254 811.007 85.1895 811.069 84.9906C811.131 84.9243 810.945 84.6591 810.571 84.4602C810.198 84.2613 809.576 84.0624 808.955 84.195C808.271 84.3276 807.773 84.7254 807.524 85.0569C807.213 85.3884 807.151 85.7198 807.213 85.7861Z" fill="#14365B"/>
<path d="M799.627 90.891C799.689 91.9517 799.316 92.8135 798.818 92.8798C798.321 92.9461 797.885 92.0843 797.823 91.0236C797.761 89.9628 798.134 89.101 798.631 89.0347C799.129 89.0347 799.564 89.8302 799.627 90.891Z" fill="#14365B"/>
<path d="M808.395 89.0347C808.395 90.0954 808.83 90.9573 809.266 90.9573C809.763 90.9573 810.136 90.0954 810.136 89.0347C810.136 87.9739 809.701 87.1121 809.266 87.1121C808.83 87.1121 808.395 87.9739 808.395 89.0347Z" fill="#14365B"/>
<path d="M808.146 102.36L802.114 103.222C802.114 103.222 806.094 107.001 806.902 104.88C807.711 102.758 808.146 102.36 808.146 102.36Z" fill="white"/>
<path d="M747.513 217.517C747.513 217.517 744.839 210.954 736.879 210.821C728.919 210.755 716.793 209.893 715.611 212.147C714.492 214.335 727.738 215.859 727.738 215.859C727.738 215.859 725.623 230.246 734.827 229.715C744.031 229.185 750.498 228.787 750.498 228.787L749.876 217.451L747.513 217.517Z" fill="#FCD5C8"/>
<path d="M759.516 256.897C759.516 256.897 756.842 267.438 754.23 267.703C751.556 267.968 719.031 267.703 719.031 267.703C719.031 267.703 718.036 262.399 729.603 262.333C741.17 262.267 748.881 254.046 748.881 254.046L759.516 256.897Z" fill="#F5C7BE"/>
</svg>
