<svg width="65" height="64" viewBox="0 0 65 64" fill="none" xmlns="http://www.w3.org/2000/svg">
<circle cx="32.25" cy="32" r="27.6364" fill="#FFD3C9" stroke="#F9F5FF" stroke-width="8.72727"/>
<path opacity="0.3" fill-rule="evenodd" clip-rule="evenodd" d="M37.3952 23.8115C37.3952 22.4378 36.1521 21.3242 34.6187 21.3242H29.6827C28.1493 21.3242 26.9062 22.4378 26.9062 23.8115V25.1933H37.3952V23.8115ZM29.6822 19.666H34.6182C37.1738 19.666 39.2456 21.522 39.2456 23.8115V26.8515H25.0547V23.8115C25.0547 21.522 27.1265 19.666 29.6822 19.666Z" fill="#FC5833"/>
<path fill-rule="evenodd" clip-rule="evenodd" d="M32.1523 34.037C32.9353 34.037 33.6047 34.4725 33.8752 35.0879C37.8018 34.8367 41.4569 33.7183 44.8307 31.7355C45.0045 31.6333 45.1092 31.4596 45.1092 31.2734V29.0625C45.1092 26.9256 43.1756 25.1934 40.7902 25.1934H23.5143C21.129 25.1934 19.1953 26.9256 19.1953 29.0625V31.2734C19.1953 31.4596 19.3 31.6333 19.4739 31.7355C22.8477 33.7183 26.5027 34.8367 30.4294 35.0879C30.6999 34.4725 31.3693 34.037 32.1523 34.037ZM32.1529 37.3541C31.3243 37.3541 30.623 36.8665 30.3868 36.1941C26.5407 35.9543 22.9353 34.9242 19.5938 33.1105L21.0808 39.7712C21.4846 41.5797 23.2571 42.8815 25.3159 42.8815H38.99C41.0488 42.8815 42.8214 41.5797 43.2251 39.7712L44.7122 33.1104C41.3706 34.9242 37.7651 35.9543 33.9189 36.1941C33.6827 36.8665 32.9814 37.3541 32.1529 37.3541Z" fill="#FC5833"/>
</svg>
