<svg width="65" height="65" viewBox="0 0 65 65" fill="none" xmlns="http://www.w3.org/2000/svg">
<circle cx="32.6182" cy="32.8091" r="27.8012" fill="#FFD3C9" stroke="#F9F5FF" stroke-width="8.77934"/>
<path fill-rule="evenodd" clip-rule="evenodd" d="M22.635 43.1592V33.1255L24.2071 31.7377C25.2523 30.7855 26.7757 30.5745 28.0403 31.2069L31.7975 33.0868C32.9286 33.5716 33.4526 34.8814 32.9678 36.0125C32.8888 36.1969 32.787 36.3663 32.6667 36.5182L35.6007 37.1054L44.0093 34.5023C45.3556 34.1082 46.7664 34.88 47.1606 36.2263C47.366 36.9281 47.259 37.6844 46.867 38.3017C46.5508 38.7994 46.2821 39.1439 46.0315 39.3527C45.4997 39.7957 43.1107 42.1259 37.7825 45.3796C36.9003 45.9182 35.8219 46.0291 34.8486 45.6812L27.7928 43.1592H22.635Z" fill="#FC5833"/>
<path opacity="0.3" fill-rule="evenodd" clip-rule="evenodd" d="M33.5828 28.7935C33.5828 32.2158 35.2711 33.582 38.3713 33.582C41.4716 33.582 43.1599 32.2158 43.1599 28.7935C43.1599 26.3307 41.7237 23.4583 38.8917 20.1404C38.6186 19.8204 38.1241 19.8204 37.851 20.1404C35.019 23.4583 33.5828 26.3307 33.5828 28.7935ZM20.2625 31.1874H20.6046V44.185H20.2625C19.6958 44.185 19.2364 44.6444 19.2364 45.2111C19.2364 45.7778 19.6958 46.2372 20.2625 46.2372H21.6307C22.1974 46.2372 22.6568 45.7778 22.6568 45.2111V30.1613C22.6568 29.5946 22.1974 29.1352 21.6307 29.1352H20.2625C19.6958 29.1352 19.2364 29.5946 19.2364 30.1613C19.2364 30.728 19.6958 31.1874 20.2625 31.1874Z" fill="#FC5833"/>
</svg>
